<?xml version="1.0" standalone="no"?>
<!DOCTYPE svg PUBLIC "-//W3C//DTD SVG 1.1//EN" "http://www.w3.org/Graphics/SVG/1.1/DTD/svg11.dtd" >
<svg xmlns="http://www.w3.org/2000/svg" xmlns:xlink="http://www.w3.org/1999/xlink" version="1.1">
<metadata>
Created by FontForge 20170910 at Fri Feb  3 23:13:17 2012
 By Jimmy Wärting
Copyright (c) 2011, Johan Kallas (johankallas@gmail.com), Copyright (c) 2011 Mihkel Virkus (mihkelvirkus@gmail.com) with Reserved Font Name Ewert.
</metadata>
<defs>
<font id="Ewert-Regular" horiz-adv-x="753" >
  <font-face 
    font-family="Ewert"
    font-weight="400"
    font-stretch="normal"
    units-per-em="1000"
    panose-1="2 0 0 0 0 0 0 0 0 0"
    ascent="800"
    descent="-200"
    x-height="700"
    cap-height="700"
    bbox="-16 -299 1622 944"
    underline-thickness="50"
    underline-position="-100"
    unicode-range="U+0020-2215"
  />
<missing-glyph horiz-adv-x="399" 
 />
    <glyph glyph-name=".notdef" horiz-adv-x="399" 
 />
    <glyph glyph-name=".null" horiz-adv-x="0" 
 />
    <glyph glyph-name="nonmarkingreturn" horiz-adv-x="333" 
 />
    <glyph glyph-name="space" unicode=" " horiz-adv-x="399" 
 />
    <glyph glyph-name="exclam" unicode="!" horiz-adv-x="388" 
d="M288 70v-72q0 -29 -26 -43.5t-57 -14.5q-45 0 -84 41.5t-39 76.5v72q0 42 54 54l-42 51q-14 236 -23 291l-3 19q-5 -3 -6 -6l-28 18l-50 60q6 47 34 71t67.5 24t77.5 -27q38 27 81.5 27t92.5 -47t55 -108l-28 -18q-4 9 -19 9q-30 0 -40 -62t-23 -311h-63q31 -15 50 -44
t19 -61zM309 632q-20 50 -63.5 50t-79.5 -31h-6q-36 31 -79.5 31t-63.5 -50q7 4 23 4t29 -13.5t23.5 -59t16 -110.5t13.5 -191h83l2 34q13 225 26 282.5t60 57.5zM165 27q56 0 56 45v44q0 45 -56 45t-56 -45v-44q0 -45 56 -45z" />
    <glyph glyph-name="quotedbl" unicode="&#x22;" horiz-adv-x="497" 
d="M240 470h-140l-50 60v182h140l50 -60v-182zM80 557h80v128h-80v-128zM460 470h-140l-50 60v182h140l50 -60v-182zM300 557h80v128h-80v-128z" />
    <glyph glyph-name="numbersign" unicode="#" horiz-adv-x="631" 
d="M161 285h-100l-10 -60h101l-27 -178h66l26 178h104l-27 -178h66l26 178h99l10 60h-100l21 134h98l10 60h-99l26 173h-67l-25 -173h-103l26 173h-67l-26 -173h-99l-10 -60h100zM329 285h-103l20 134h103zM270 -40h-133l-50 60l17 118h-40l-50 60l17 114h99l3 20h-40
l-50 60l17 114h99l27 173h133l30 -37l6 37h133l50 -60l-18 -113h41l50 -60l-17 -114h-100l-3 -20h41l50 -60l-17 -114h-100l-26 -178h-133l-31 37z" />
    <glyph glyph-name="dollar" unicode="$" horiz-adv-x="628" 
d="M574 161l2 -42q0 -80 -47.5 -127.5t-120.5 -59.5v-92h-130l-50 60v70l-43 25q-21 -21 -55.5 -38t-61.5 -17l-50 60l-18 28q18 10 18 44v180h116l50 -60v-31l4 -29q21 -13 63 -13q47 3 57 42q-16 -9 -22 -15l-97 116l18 16q-44 28 -68.5 46t-60.5 52q-71 66 -71 154
t66.5 134.5t154.5 47.5v88h130l50 -60v-40h99l50 -60v-224h-117l-50 60l-14 46q-17 9 -40 9t-38.5 -16t-15.5 -44l1 -9q3 -3 55.5 -27.5t100.5 -58t60 -66.5q15 2 54 2l50 -60v-73q-29 0 -29 -18zM328 773h-70v-91q-8 1 -26 1q-79 0 -137 -39.5t-58 -105.5q0 -49 25.5 -87.5
t55.5 -58t77 -45.5t66 -40q18 5 36 5q39 0 75 -30l18 20h25q13 -17 23 -23q12 15 30 23q-21 37 -68 67.5t-89.5 47.5t-76 46.5t-33.5 67.5q0 25 11 46q23 42 76 42q88 0 125 -115h71v168h-76v-70h-6q-34 42 -74 61v110zM129 90q85 -55 129 -67v-96h70v90q73 6 121 46.5
t48 113.5l-2 44q0 42 33 42v25q-19 0 -28.5 -1.5t-24.5 -12.5t-28 -33q-24 4 -44 34q-19 -23 -40 -29q-28 42 -76 42q-31 0 -61 -28l15 -19q19 15 39 15t35.5 -12t19 -28t3.5 -41t-19 -53.5t-68 -31.5q-57 0 -98 34t-47 99h-59v-141q0 -41 -10 -50q19 3 51.5 23t40.5 35z
" />
    <glyph glyph-name="percent" unicode="%" horiz-adv-x="902" 
d="M264 299q-87 0 -157 48t-70 128v121q0 44 29.5 71.5t66.5 36t85.5 8.5t98.5 -17t87.5 -59t37.5 -100v-22l112 185h153l50 -60l-179 -302q24 4 65.5 4t91.5 -17t87.5 -59t37.5 -100v-121q0 -33 -16.5 -57t-43.5 -36q-53 -23 -118 -23q-87 0 -157 48t-70 128v26l-113 -190
h-153l-60 60l184 302q-26 -3 -49 -3zM62 595v-119q0 -92 152.5 -92t152.5 92v119q0 92 -152.5 92t-152.5 -92zM480 224v-119q0 -92 152.5 -92t152.5 92v119q0 92 -152.5 92t-152.5 -92zM176 27h99l386 645h-90zM703 122q0 -33 -20 -51t-51.5 -18t-50.5 18t-19 51v85
q0 33 19.5 51t51 18t51 -18t19.5 -51v-85zM285 493q0 -33 -20 -51t-51.5 -18t-50.5 18t-19 51v85q0 33 19.5 51t51 18t51 -18t19.5 -51v-85zM636 147v-69q42 1 42 45v68q-42 -2 -42 -44zM218 518v-69q42 1 42 45v68q-42 -2 -42 -44z" />
    <glyph glyph-name="ampersand" unicode="&#x26;" horiz-adv-x="765" 
d="M315 125q16 -6 43 -6t51 16l-76 82q-11 -14 -18 -42l17 -10l-18 -31zM252 551q0 26 18.5 43.5t46 17.5t46 -18t18.5 -57q0 -55 -85 -97q-44 59 -44 111zM567 472q0 -65 -48 -119h24q14 -19 25 -25q25 30 66 33q15 1 49 1l50 -60v-72q-57 0 -62 -40v-59q0 -13 -6 -31
q10 0 18 13l27 -18l50 -60q-13 -95 -96 -95q-37 0 -92 39q-69 -51 -194 -51t-208.5 66.5t-88.5 185.5h-11l-50 60v72q59 0 80 -8q21 55 77 99q-63 76 -63 147.5t58 116.5t154.5 45t168.5 -63t72 -177zM137 276q14 2 33 27h33q11 -38 37 -55q8 39 43 70l169 -184l-20 -17
q-33 -27 -81.5 -27t-80.5 29t-34 75l12 21q-46 19 -65 60q-20 -26 -47 -32l-10 -2q-21 33 -40 40q-18 6 -40 6v-24q31 0 46 -20t17 -48v-6q0 -90 56 -131t169.5 -41t165.5 41l21 16q59 -47 95 -47q18 0 31 7.5t18 15.5q7 11 14 29q-12 -4 -18 -4q-34 0 -90 56q16 22 22 55
l2 11v50q7 66 62 66v24q-41 0 -61 -20q-9 -10 -19 -26q-23 4 -45 34q-11 -22 -36 -35v-34l-1 -24l-1 -16q0 -3 -1 -5l-137 155q67 32 100 76t33 90q0 77 -47 115.5t-125 38.5t-126.5 -39t-48.5 -103.5t73 -146.5l-14 -10q-47 -33 -77 -98z" />
    <glyph glyph-name="quotesingle" unicode="'" horiz-adv-x="299" 
d="M246 470h-140l-50 60v182h140l50 -60v-182zM86 557h80v128h-80v-128z" />
    <glyph glyph-name="parenleft" unicode="(" horiz-adv-x="334" 
d="M325 604q-138 -135 -138 -314.5t138 -322.5l-34 -39q-113 48 -195 174.5t-82 244.5t66 218t161 138zM64 472.5q-22 -57.5 -22 -117t17 -113t41 -90.5t52 -66q46 -49 79 -64l5 6q-127 151 -127 326q0 97 45 188t85 122l-5 6q-52 -22 -116 -101q-32 -39 -54 -96.5z" />
    <glyph glyph-name="parenright" unicode=")" horiz-adv-x="344" 
d="M17 27q138 143 138 322.5t-138 314.5l34 39q101 -41 188.5 -161t88 -241t-62.5 -225.5t-164 -147.5zM233 242.5q17 53.5 17 113t-22 117t-54 96.5q-64 79 -116 101l-5 -6q40 -31 85 -122t45 -188q0 -175 -127 -326l5 -6q33 15 70 54t61 76t41 90.5z" />
    <glyph glyph-name="asterisk" unicode="*" horiz-adv-x="491" 
d="M404 332l46 -57l-63 -109l-83 70l22 -105h-126l-43 50l-17 -15l-50 60l-63 109l47 16l-47 56l63 109l81 -70l-21 105h129l39 -51l19 16l50 -60l63 -109zM267 375l95 42l-35 60l-84 -64l-10 5l15 105h-70l15 -105l-9 -5l-84 64l-35 -60l94 -42v-8l-94 -42l35 -60l84 64
l9 -5l-15 -105h70l-15 105l10 5l84 -64l35 60l-95 42v8z" />
    <glyph glyph-name="plus" unicode="+" horiz-adv-x="587" 
d="M99 444h109v109h144l50 -60v-49h60l50 -60v-144h-110v-110h-144l-50 60v50h-59l-50 60v144zM129 327h106v-107h90v107h107v90h-107v106h-90v-106h-106v-90z" />
    <glyph glyph-name="comma" unicode="," horiz-adv-x="292" 
d="M253 70v-72q0 -45 -16 -75.5t-43 -44.5q-46 -23 -98 -23l-50 60v73q24 0 33 2q-5 3 -12 8t-18.5 22.5t-11.5 37.5v72q0 29 26 43.5t57 14.5q48 0 90.5 -35.5t42.5 -82.5zM108 35h29q-5 -71 -66 -71v-25q36 0 67 21q39 25 39 97v59q0 45 -56.5 45t-56.5 -45v-44
q0 -25 9 -31t35 -6z" />
    <glyph glyph-name="hyphen" unicode="-" horiz-adv-x="480" 
d="M469 240h-393l-50 60v144h393l50 -60v-144zM56 327h333v90h-333v-90z" />
    <glyph glyph-name="period" unicode="." horiz-adv-x="302" 
d="M234 70v-72q0 -29 -26 -43.5t-57 -14.5q-45 0 -84 41.5t-39 76.5v72q0 29 26 43.5t57 14.5q48 0 85.5 -35.5t37.5 -82.5zM111 27q56 0 56 45v44q0 45 -56 45t-56 -45v-44q0 -45 56 -45z" />
    <glyph glyph-name="slash" unicode="/" horiz-adv-x="387" 
d="M243 -60h-163l-50 60l105 699h163l50 -60zM68 27h96l97 645h-97z" />
    <glyph glyph-name="zero" unicode="0" horiz-adv-x="752" 
d="M675 471v-159h11l50 -60v-73q-38 0 -49 -14t-11 -44v-13q0 -52 -25.5 -89t-68.5 -56q-81 -35 -184 -35q-144 0 -236 68.5t-92 171.5v11h-10l-50 60v73q44 0 61 -3v222q0 52 25.5 89.5t68.5 56.5q79 35 183 35q146 0 236.5 -66.5t90.5 -174.5zM123 279q12 7 25 24h25
q13 -18 24 -24q18 21 41 27v197q0 51 31 79.5t80 28.5t79 -28t30 -80v-197q23 -6 41 -27q10 6 24 24h25q13 -18 25 -24q10 13 23 20v230q0 42 -22 73t-59 48t-79 25t-88 8t-87.5 -8t-79 -25t-59.5 -48t-22 -73v-230q14 -9 23 -20zM348 18q63 0 116 13t92.5 48.5t39.5 89.5
v10q0 83 65 83v24q-18 0 -27.5 -1.5t-25 -12t-28.5 -31.5q-22 5 -44 34q-18 -26 -46 -34q-12 21 -27 31.5t-25 12t-28 1.5v-24q33 0 47 -19t14 -38q0 -54 -35 -84.5t-88 -30.5t-88 30.5t-35 84.5q0 19 14 38t47 19v24q-18 0 -28 -1.5t-25 -12t-27 -31.5q-26 5 -46 34
q-20 -26 -44 -34q-13 21 -28.5 31.5t-25 12t-27.5 1.5v-24q65 0 65 -83v-10q0 -54 39.5 -89.5t92.5 -48.5t116 -13zM317 442v-135l46 -55v-73q-17 -1 -27 -2.5t-21.5 -10.5t-11.5 -26q0 -21 40 -21t64.5 16.5t32.5 43.5h-7l-50 60v73q32 0 46 -1v191q0 8 -11 13.5t-20 5.5
q-37 0 -59 -20.5t-22 -58.5z" />
    <glyph glyph-name="one" unicode="1" horiz-adv-x="442" 
d="M351 312h8l50 -60v-73q-39 0 -50.5 -14t-11.5 -45v-15q7 0 12 8l28 -18l50 -60q-6 -47 -34 -71t-67.5 -24t-77.5 27q-38 -27 -78.5 -27t-92.5 48t-58 107l28 18q4 -9 19 -9q43 0 43 75h-12l-50 60v73q41 0 58 -3v154h-39l-50 60v84q34 0 73 33t43 60h159l50 -60v-328z
M171 279q10 6 24 24h26q13 -18 24 -24q10 14 26 22v371h-109q-6 -29 -45.5 -57.5t-62.5 -28.5v-33h91v-252q14 -7 26 -22zM211 61q36 -31 79.5 -31t63.5 50q-7 -4 -16 -4q-70 0 -70 103q0 84 66 84v25q-19 0 -29 -1.5t-25 -12.5t-27 -33q-24 5 -45 35q-21 -27 -45 -35
q-13 22 -28 33t-25 12.5t-28 1.5v-25q66 0 66 -84q0 -76 -32 -95q-15 -8 -38 -8l-16 4q20 -50 63.5 -50t79.5 31h6z" />
    <glyph glyph-name="two" unicode="2" horiz-adv-x="687" 
d="M610 472q0 -36 -22.5 -70t-79.5 -89.5t-70 -70.5v-62q-17 -1 -27 -2.5t-20.5 -11t-10.5 -26.5v-6q16 -5 41 -5t48 16.5t23 46.5q0 14 -4 29v31h115l50 -60v-181q0 -33 18 -45l-18 -26q-27 0 -54.5 12.5t-42.5 27.5q-55 -40 -128.5 -40t-123.5 36q-44 -36 -107.5 -36
t-118.5 51.5t-55 102.5l32 19q2 -10 21 -10t35.5 24t17.5 53l-50 60l11 72q53 0 72 -6q24 31 74 75.5t80 79.5t30 67q-4 1 -10 1q-38 0 -63 -28.5t-31 -56.5l-7 -28h-118l-50 60v224h124l22 -27q53 39 125 39t132 -28.5t100 -84.5t40 -127zM198 278q14 7 30 25h25
q11 -20 24 -25q25 32 81 34q19 21 71.5 69.5t77 82.5t24.5 71q0 67 -55.5 108t-131.5 41q-103 0 -174 -83h-4v71h-76v-168h74q27 112 122 112q49 0 69 -29.5t20 -59.5t-21 -62t-48 -56q-88 -78 -119 -117zM516 224l5 -37q0 -40 -31 -63t-76 -23t-77.5 25t-32.5 79
q0 28 17.5 43t39.5 15v24q-16 0 -26 -2t-24 -12.5t-25 -31.5q-41 17 -50 34q-24 -26 -53 -34q-8 21 -21 32t-22.5 12.5t-27.5 1.5l-5 -24q56 -9 56 -71q0 -43 -27 -80t-66 -37l-15 4q4 -21 32.5 -36.5t57.5 -15.5q59 0 107 48l8 -7q47 -41 115 -41t131 48q8 -9 34.5 -25.5
t42.5 -18.5q-8 8 -8 51v142h-59z" />
    <glyph glyph-name="three" unicode="3" horiz-adv-x="673" 
d="M587 472q0 -57 -58 -105q27 -24 50 -56q12 1 42 1l50 -60v-73q-38 0 -49.5 -14.5t-11.5 -43.5v-10q-2 -61 -40 -104q-68 -79 -195 -79q-99 0 -170 66q-21 -21 -55 -37.5t-62 -16.5l-50 60l-17 26q17 11 17 45v182h116l50 -60v-31l3 -28q20 -10 55 -10q69 0 79 55h-9
l-50 60v49h-24l-50 60v68h-111l-50 60v224h124l24 -28q59 40 137 40q100 0 177.5 -67t77.5 -173zM395 279q10 6 24 24h16l16 -18l17 18h17q14 -18 24 -24l9 10q6 5 13 10q-7 37 -41.5 66t-77.5 34v15q38 18 67 50.5t29 70.5q0 68 -50.5 108.5t-125.5 40.5q-115 0 -181 -83
h-5v71h-76v-168h72q31 112 120 112q50 0 72.5 -30t22.5 -60.5t-13.5 -53t-33.5 -33.5q-38 -20 -75 -20v-45h4q99 0 127 -73q19 -9 29 -22zM307 286v-24q33 0 48.5 -21.5t15.5 -42.5v-7q0 -38 -28 -67t-82.5 -29t-92 32t-42.5 98h-59v-143q0 -44 -10 -51q18 2 50.5 22.5
t43.5 35.5q50 -41 85.5 -58t88.5 -17q82 0 142.5 38.5t63.5 113.5v13q0 83 65 83v24q-43 0 -63 -23q-8 -10 -15 -22q-24 6 -46 30l-21 -21l-20 21q-20 -22 -45 -30q-12 18 -17 23q-20 22 -62 22zM312 529q-66 0 -92 -87q109 6 109 84z" />
    <glyph glyph-name="four" unicode="4" horiz-adv-x="635" 
d="M592 499h-56v-187l50 -60v-72q-38 0 -49.5 -14.5t-11.5 -46.5v-15q6 2 11 9l76 -79q-6 -47 -33 -70.5t-65 -23.5t-81 25q-40 -25 -83 -25t-90.5 51t-53.5 103l26 19q6 -10 25 -10t31 20h-220l-50 60v114l174 403h340l60 -60v-141zM456 588h58v84h-306l-162 -375v-86h254
v41q54 11 67 51h29q14 -19 25 -25q14 18 35 26v284zM331 602v-305h-184v40l117 265h67zM387 61q37 -34 80 -34t63 52q-5 -4 -16 -4q-30 0 -46 16.5t-19.5 36t-3.5 50.5q0 85 65 85v24q-42 0 -60 -20q-10 -10 -20 -26q-25 4 -47 34q-9 -20 -19 -28t-33 -17v-52
q0 -103 -77 -103l-15 4q20 -52 67 -52q37 0 74 34h7zM303 325v128l-56 -128h56z" />
    <glyph glyph-name="five" unicode="5" horiz-adv-x="681" 
d="M669 179q-38 0 -49.5 -14.5t-11.5 -43.5v-10q-2 -61 -40 -104q-68 -79 -195 -79q-99 0 -170 66q-21 -21 -55 -37.5t-62 -16.5l-50 60l-17 26q17 11 17 45v182h95l-49 69v378h436l60 -60v-141h-260v-47q90 -4 156 -42t101 -99q13 1 44 1l50 -60v-73zM393 279q10 6 24 24
h16l16 -18l17 18h17q14 -18 24 -24l9 10q4 4 6 5q-15 52 -71 90.5t-152 38.5q-19 0 -49 -7l-10 -3v174h260v85h-390v-332h61q42 19 84 19q85 0 106 -56q19 -8 32 -24zM305 286v-24q33 0 48.5 -21.5t15.5 -42.5v-7q0 -38 -28 -67t-82.5 -29t-92 32t-42.5 98h-59v-143
q0 -44 -10 -51q18 2 50.5 22.5t43.5 35.5q50 -41 85.5 -58t88.5 -17q82 0 142.5 38.5t63.5 113.5v13q0 83 65 83v24q-43 0 -63 -23q-8 -10 -15 -22q-24 6 -46 30l-21 -21l-20 21q-20 -22 -45 -30q-12 18 -17 23q-20 22 -62 22zM280 268q-24 -4 -48 -16h-79l49 -59v-31l3 -28
q20 -10 55 -10q69 0 79 55h-9l-50 60v29z" />
    <glyph glyph-name="six" unicode="6" horiz-adv-x="718" 
d="M649 420h-142q69 -35 112 -109q12 1 42 1l50 -60v-72q-39 0 -50.5 -14.5t-11.5 -46.5v-12q0 -52 -23 -89t-63 -56q-75 -34 -165 -34t-157.5 24t-114.5 80t-47 135v12l-14 1l-50 60v72q46 0 64 -3v224q0 51 22.5 88t62.5 56q72 35 173 35q115 0 209 -54q46 -27 74.5 -75
t28.5 -110v-53zM473 278q9 7 22 25h26q13 -19 24 -25q12 15 26 22q-17 53 -70 88.5t-148 35.5q-36 0 -62.5 -8t-61.5 -37v114q0 108 108 108q48 0 74 -20.5t30 -72.5h130v24q0 54 -35.5 89.5t-85.5 48.5t-113 13q-97 0 -163.5 -36t-66.5 -115v-233q12 -7 24 -21q13 8 23 25
h26q14 -19 24 -25q13 17 34 25q17 32 40.5 45t64.5 13q78 0 100 -59q17 -8 30 -24zM570 168v10q0 85 65 85v24q-41 0 -61 -20q-11 -10 -21 -26q-22 4 -44 34q-20 -26 -45 -34q-13 22 -28.5 32.5t-25.5 12t-28 1.5v-24q33 0 48 -19.5t15 -38.5q0 -56 -27.5 -81t-80.5 -25
t-79 24.5t-26 81.5q0 28 19 43t42 15v24q-18 0 -28 -1q-28 -5 -52 -45q-24 4 -46 34q-20 -26 -44 -34q-13 22 -28 32.5t-24.5 12t-27.5 1.5v-24q63 0 63 -85v-10q0 -80 66.5 -116.5t165 -36.5t165.5 36.5t67 116.5zM308 450q21 3 54.5 3t80.5 -10l-31 37v19l-1 10
q-7 2 -34 2q-62 0 -69 -61zM310 140v-11q8 -2 27 -2q68 0 77 53h-7l-39 47v-47q-16 -1 -26 -2.5t-21 -11t-11 -26.5z" />
    <glyph glyph-name="seven" unicode="7" horiz-adv-x="583" 
d="M515 179q-25 0 -34 -1q-50 -10 -52 -65l25 -19l50 -60q-15 -47 -47.5 -70.5t-69.5 -23.5t-74 25q-43 -25 -82 -25q-55 0 -94.5 49.5t-39.5 104.5l29 19q6 -10 19 -10q26 0 39.5 23t14.5 53l-50 60v73h44q19 0 33 -3l38 190h-62v-103h-116l-50 60v244h489l50 -60v-141h-57
l-44 -198l41 -49v-73zM269 276q12 6 29 27h25q10 -19 20 -25q18 18 40 26l61 283h53v85h-433v-188h60v103h184l-55 -292q9 -7 16 -19zM174 263q14 0 22 -2q37 -8 37 -56.5t-22 -89t-69 -40.5l-16 4q13 -52 56 -52t83 34h7q30 -34 73 -34t71 52q-5 -4 -15 -4q-56 0 -56 59
q0 47 18 84q21 45 77 45v25q-17 0 -24 -1q-38 -4 -71 -46q-24 4 -39 34q-24 -26 -51 -34q-12 32 -33 39q-16 6 -48 8v-25z" />
    <glyph glyph-name="eight" unicode="8" horiz-adv-x="739" 
d="M663 118v-10q0 -52 -24.5 -89t-66.5 -56q-77 -35 -179 -35q-125 0 -216 54q-47 27 -75.5 75t-28.5 111v12h-11l-50 60v72q52 0 71 -5q9 53 49 93q-21 20 -28.5 45t-7.5 75v12q0 66 37 108t89.5 57t115 15t113 -13t94 -39.5t69 -75t25.5 -112.5v-12q0 -48 -8 -73t-29 -44
q21 -23 26 -32q14 1 46 1l50 -60v-72q-39 0 -50 -15t-11 -47zM486 278q11 7 24 25h26q13 -19 24 -25q6 8 14 14q-8 67 -65 107q52 45 52 121v12q0 55 -35 91.5t-81.5 49.5t-101.5 13t-101.5 -13t-82 -49.5t-35.5 -91.5v-12q0 -81 49 -123q-54 -39 -61 -105q7 -6 14 -14
q10 8 24 25h26q12 -19 24 -25q17 21 43 29q21 54 100 54t100 -54q24 -7 43 -29zM584 169v9q0 85 65 85v24q-41 0 -61 -20q-10 -10 -20 -26q-21 4 -44 34q-18 -26 -45 -34q-13 21 -28.5 32t-25 12.5t-26.5 1.5v-24q31 0 45 -20t14 -38q0 -106 -115 -106t-115 106
q0 19 14 38.5t45 19.5v24q-18 0 -27.5 -1.5t-24.5 -12t-28 -32.5q-24 4 -45 34q-20 -26 -44 -34q-13 21 -28 32t-25 12.5t-28 1.5v-24q65 0 65 -85v-9q0 -55 38 -91t89.5 -49.5t113.5 -13.5t113.5 13.5t89.5 49.5t38 91zM441 506q0 -94 -98.5 -94t-98.5 94q0 96 98.5 96
t98.5 -96zM305 140v-8q16 -5 38 -5q74 0 86 53h-7l-50 60v32q-10 -1 -21 -5l13 -15v-72q-59 -2 -59 -40zM412 502v10q-12 2 -19 2q-70 0 -70 -62v-12q6 -1 20 -1q39 0 54 17t15 46z" />
    <glyph glyph-name="nine" unicode="9" horiz-adv-x="677" 
d="M604 452v-140h11l50 -60v-73q-38 0 -49.5 -14.5t-11.5 -43.5v-15q0 -51 -22.5 -88t-61.5 -56q-74 -34 -160.5 -34t-157 28.5t-119.5 84.5t-49 125v54h110q14 -27 24 -33q20 26 59 31q-86 24 -137.5 87t-51.5 161v46q0 55 23 95.5t62 62.5q74 42 175 42q111 0 204 -60
q46 -30 74 -82t28 -118zM67 466q0 -95 51.5 -134t162.5 -39q35 0 62 8.5t62 37.5v-76q31 14 57 40h17q14 -18 24 -24l9 10q6 5 13 10v213q0 90 -64.5 130.5t-162.5 40.5q-125 0 -192 -69q-39 -41 -39 -102v-46zM524 181q0 81 66 81v24q-43 0 -63 -23q-8 -10 -15 -22
q-24 6 -46 30q-11 -15 -40.5 -29.5t-61.5 -17.5v-21h36v-29q0 -50 -31.5 -75.5t-66.5 -25.5t-58.5 15.5t-23.5 46.5q0 16 10.5 25.5t24.5 9.5v24q-18 0 -28 -1.5t-25.5 -12t-27.5 -31.5q-26 7 -43 42h-69v-24q0 -54 35.5 -89t85.5 -48t113 -13q97 0 162.5 35.5t65.5 114.5
v14zM191 462v33q0 56 27.5 80.5t80.5 24.5t79.5 -24.5t26.5 -80.5v-33q0 -56 -26.5 -80t-79.5 -24t-80.5 24t-27.5 80zM349 512q-80 0 -80 -71v-52q13 -3 42 -3t47.5 16t18.5 51v57q-16 2 -28 2zM333 205q-29 0 -42 2l39 -47v-52q23 9 35 30l-32 39v28z" />
    <glyph glyph-name="colon" unicode=":" horiz-adv-x="415" 
d="M310 180v-72q0 -29 -26 -43.5t-57 -14.5q-45 0 -84 41.5t-39 76.5v72q0 29 26 43.5t57 14.5q48 0 85.5 -35.5t37.5 -82.5zM187 137q56 0 56 45v44q0 45 -56 45t-56 -45v-44q0 -45 56 -45zM310 457v-72q0 -29 -26 -43.5t-57 -14.5q-45 0 -84 41.5t-39 76.5v72
q0 29 26 43.5t57 14.5q48 0 85.5 -35.5t37.5 -82.5zM187 414q56 0 56 45v44q0 45 -56 45t-56 -45v-44q0 -45 56 -45z" />
    <glyph glyph-name="semicolon" unicode=";" horiz-adv-x="384" 
d="M290 457v-72q0 -29 -26 -43.5t-57 -14.5q-45 0 -84 41.5t-39 76.5v72q0 29 26 43.5t57 14.5q48 0 85.5 -35.5t37.5 -82.5zM167 414q56 0 56 45v44q0 45 -56 45t-56 -45v-44q0 -45 56 -45zM300 180v-72q0 -45 -16 -75.5t-42 -44.5q-47 -23 -99 -23l-50 60v73q24 0 33 2
q-5 3 -12 8t-18.5 22.5t-11.5 37.5v72q0 29 26 43.5t57 14.5q48 0 90.5 -35.5t42.5 -82.5zM155 145h29q-5 -71 -66 -71v-25q36 0 68 21q38 25 38 97v59q0 45 -56.5 45t-56.5 -45v-44q0 -25 9 -31t35 -6z" />
    <glyph glyph-name="less" unicode="&#x3c;" horiz-adv-x="510" 
d="M261 267l164 -96l50 -60l-47 -99l-350 173l-50 60v134l350 173l50 -60l47 -99zM155 300v24l238 139l-26 56l-312 -152v-110l312 -152l26 56z" />
    <glyph glyph-name="equal" unicode="=" horiz-adv-x="603" 
d="M511 350h-363l-50 60v124h363l50 -60v-124zM128 437h303v70h-303v-70zM511 129h-363l-50 60v124h363l50 -60v-124zM128 216h303v70h-303v-70z" />
    <glyph glyph-name="greater" unicode="&#x3e;" horiz-adv-x="497" 
d="M14 171l213 126l-163 96l-50 60l47 99l350 -173l50 -60v-129l-350 -178l-50 60zM284 324v-24l-238 -139l26 -56l312 152v110l-312 152l-26 -56z" />
    <glyph glyph-name="question" unicode="?" horiz-adv-x="610" 
d="M357 70v-72q0 -29 -26 -43.5t-57 -14.5q-45 0 -84 41.5t-39 76.5v72q0 39 46 52l-45 55v25q0 44 27.5 85.5t60.5 68.5q87 71 87 112q-1 1 -10 1q-38 0 -63 -28.5t-32 -56.5l-6 -28h-118l-50 70v214h124l22 -27q54 39 132 39q101 0 177.5 -67t76.5 -173q0 -50 -23 -89.5
t-56 -63.5t-65.5 -43t-55.5 -37t-23 -37v-25h-74q32 -15 53 -44t21 -63zM336 586.5q20 -29.5 20 -57.5t-18.5 -53.5t-44.5 -48.5t-52 -47q-63 -60 -63 -118h102q0 47 78 90q33 17 65 37.5t55 57.5t23 88q0 68 -50.5 108.5t-125.5 40.5q-103 0 -174 -83h-4v71h-76v-168h74
q27 112 122 112q49 0 69 -29.5zM234 27q56 0 56 45v44q0 45 -56 45t-56 -45v-44q0 -45 56 -45z" />
    <glyph glyph-name="at" unicode="@" horiz-adv-x="884" 
d="M252 343q0 55 24 101q-54 -67 -54 -154q0 -186 196 -186h27l50 -60v-116h-27q-91 0 -169.5 36.5t-131 96t-82 135t-29.5 154.5q0 150 106 256t256 106q103 0 198.5 -59t154.5 -157.5t59 -203.5t-47.5 -171t-139 -66t-145.5 75q-28 -16 -54 -16q-75 0 -133.5 65t-58.5 164
zM418 16v60q-125 0 -199.5 78.5t-74.5 193.5t80.5 195.5t193.5 80.5t193.5 -80.5t80.5 -193.5q0 -80 -41 -132q-24 -31 -59 -31q-47 0 -47 53v257h-51v-46q-47 47 -95 47t-83.5 -42t-35.5 -113q0 -98 62 -127q27 -14 52 -14q48 0 100 48v-39q8 -35 29.5 -52.5t67.5 -17.5
q77 0 119 64.5t42 144.5q0 138 -98 236t-236 98t-236 -98t-98 -239t89.5 -236t244.5 -95zM358.5 280q-18.5 21 -18.5 65.5t22.5 71t59.5 26.5q76 0 76 -96q0 -33 -29 -60.5t-60.5 -27.5t-50 21zM664 350q0 103 -74 152l31 -37v-243q21 18 32 57.5t11 70.5zM475 352v6h-8
q-21 0 -34.5 -18.5t-14.5 -54.5q21 5 39 26.5t18 40.5zM469 525h73q-36 11 -71.5 11t-72.5 -10q41 -2 71 -29v28z" />
    <glyph glyph-name="A" unicode="A" horiz-adv-x="806" 
d="M133 700h490l50 -60v-139h-52l37 -190q9 1 28 1l50 -60l12 -72q-54 0 -54 -48q0 -29 7 -29q17 0 19 10l32 -19l50 -60q0 -48 -23.5 -71t-60 -23t-83.5 25q-37 -25 -72 -25q-55 0 -103.5 49t-65.5 105l24 19q8 -10 23 -10q33 0 33 39l-3 23q-19 10 -46.5 10t-52.5 -16
t-34 -46l24 -19l50 -60q-14 -47 -46.5 -70.5t-69 -23.5t-76.5 25q-45 -25 -83 -25q-52 0 -91.5 50t-39.5 104l31 19q2 -10 19.5 -10t34 24t20.5 53l-53 60l12 72q43 0 65 -6l40 204l-42 51v139zM504 278q9 7 20 25h26q16 -19 29 -25q4 7 16 17l-57 295h57v82h-434v-82h57
l-58 -295q12 -9 18 -17q12 7 28 25h26q8 -19 17 -25q38 38 128.5 38t126.5 -38zM582 61q44 -34 84.5 -34t53.5 52q-5 -4 -14 -4q-38 0 -64.5 37.5t-26.5 71.5q0 71 55 79l-4 24q-19 0 -28.5 -1.5t-22.5 -12t-22 -32.5q-23 4 -52 34q-7 -13 -16.5 -21.5t-21.5 -12.5
q-39 48 -126 48t-124 -48q-23 4 -39 34q-24 -26 -50 -34q-9 22 -22.5 32.5t-23.5 12t-28 1.5l-4 -24q28 -4 41.5 -23.5t13.5 -54.5t-26.5 -72.5t-63.5 -37.5l-14 4q13 -52 52.5 -52t84.5 34h6q34 -34 68 -34q45 0 78 52q-8 -4 -18 -4q-56 0 -56 58t38 91.5t88 33.5t88 -33.5
t38 -91.5t-56 -58l-19 4q32 -52 79 -52q35 0 68 34h6zM287 340l54 250h74l56 -250h-184zM410 485l-26 -119h53z" />
    <glyph glyph-name="B" unicode="B" horiz-adv-x="752" 
d="M752 179q-40 0 -51 -16t-11 -55q0 -168 -270 -168q-73 0 -107 9t-63 30q-37 -39 -82 -39q-59 0 -103.5 50t-52.5 105l27 18q6 -8 22 -8t26 12.5t12 26t2 35.5h-12l-50 60v73q44 0 62 -3v190h-11l-50 60v141h362q116 0 185.5 -61.5t69.5 -180.5q0 -67 -37 -118
q12 -13 25 -30q16 2 57 2l50 -60v-73zM153 279q8 5 23 24h26q13 -18 23 -24q14 17 31 24v52h119q72 0 95 -48q27 -6 45 -28q10 8 23 24h27q11 -18 23 -24q7 10 19 18q-21 52 -84 91q56 51 56 129q0 155 -187 155h-324v-85h63v-289q10 -5 22 -19zM486 205q0 -103 -116.5 -103
t-116.5 103q0 18 14.5 37.5t47.5 19.5v24q-18 0 -28 -1.5t-25 -12t-28 -31.5q-24 5 -45 34q-20 -26 -44 -34q-13 21 -28 31.5t-25 12t-28 1.5v-24q64 0 64 -83q0 -32 -3.5 -51t-19 -35t-45.5 -16l-17 2q24 -52 73 -52q23 0 40.5 11t39.5 35h8q27 -24 60.5 -34t105.5 -10
q242 0 242 140q0 93 64 93v24q-18 0 -27.5 -1.5t-24.5 -12t-28 -31.5q-23 5 -44 34q-20 -26 -47 -34q-13 21 -27.5 31.5t-24 12t-28.5 1.5v-24q33 0 47 -19t14 -38zM333 407h-77v180h77q67 0 90.5 -19t23.5 -69q0 -92 -114 -92zM399 268h-22l14 -16v-73q-59 -2 -59 -39v-5
q16 -4 38 -4q73 0 86 48h-7l-50 60v29zM334 500v-66q61 0 75 24q10 17 10 40q-1 2 -36 2h-49z" />
    <glyph glyph-name="C" unicode="C" horiz-adv-x="731" 
d="M484 278q11 7 24 25h26q13 -19 24 -25q18 23 41.5 28.5t72.5 5.5l50 -60v-72q-39 0 -50 -15t-11 -47v-10q0 -52 -24.5 -89t-66.5 -56q-77 -35 -179 -35q-125 0 -216 54q-47 27 -75.5 75t-28.5 111v12h-11l-50 60v72q43 0 61 -3v222q0 117 122 159q62 22 136 22t129 -13.5
t101.5 -41t73.5 -75.5t27 -111v-101h-194l-50 60v72l-1 16q-9 3 -26 3q-74 0 -74 -79v-134l47 -56v-72q-59 -2 -59 -40v-8q16 -5 38 -5q74 0 86 53h-7l-50 60v72q34 0 50 -1q39 -3 64 -33zM124 278q10 8 24 25h26q12 -19 24 -25q15 19 39 27v198q0 52 27 80t76 28t77 -27.5
t28 -80.5v-45h137v71q0 55 -37.5 91t-89.5 49.5t-107 13.5t-95.5 -8t-76 -25t-56.5 -48t-21 -73v-230q13 -7 25 -21zM582 169v9q0 85 65 85v24q-41 0 -61 -20q-10 -10 -20 -26q-21 4 -44 34q-18 -26 -45 -34q-13 21 -28.5 32t-25 12.5t-26.5 1.5v-24q31 0 45 -20t14 -38
q0 -106 -115 -106t-115 106q0 19 14 38.5t45 19.5v24q-18 0 -27.5 -1.5t-24.5 -12t-28 -32.5q-24 4 -45 34q-20 -26 -44 -34q-13 21 -28 32t-25 12.5t-28 1.5v-24q65 0 65 -85v-9q0 -55 38 -91t89.5 -49.5t113.5 -13.5t113.5 13.5t89.5 49.5t38 91z" />
    <glyph glyph-name="D" unicode="D" horiz-adv-x="763" 
d="M692 458v-146h13l50 -60v-73q-40 0 -51 -16t-11 -55q0 -168 -270 -168q-73 0 -107 9t-63 30q-37 -39 -82 -39q-59 0 -103.5 50t-52.5 105l27 18q6 -8 22 -8t26 12.5t12 26t2 35.5h-12l-50 60v73q44 0 62 -3v190h-8l-50 60v141h344q120 0 207 -54q44 -28 69.5 -76.5
t25.5 -111.5zM518 279q10 8 23 24h27q11 -18 23 -24q10 13 23 20v218q0 80 -64 117.5t-160 37.5h-316v-85h60v-289q10 -5 22 -19q8 5 23 24h26q13 -18 23 -24q15 18 34 25v283h110q50 0 80 -26t30 -75v-181q21 -8 36 -26zM489 205q0 -103 -116.5 -103t-116.5 103
q0 18 14.5 37.5t47.5 19.5v24q-18 0 -28 -1.5t-25 -12t-28 -31.5q-24 5 -45 34q-20 -26 -44 -34q-13 21 -28 31.5t-25 12t-28 1.5v-24q64 0 64 -83q0 -32 -3.5 -51t-19 -35t-45.5 -16l-17 2q24 -52 73 -52q23 0 40.5 11t39.5 35h8q27 -24 60.5 -34t105.5 -10q242 0 242 140
q0 93 64 93v24q-18 0 -27.5 -1.5t-24.5 -12t-28 -31.5q-23 5 -44 34q-20 -26 -47 -34q-13 21 -27.5 31.5t-24 12t-28.5 1.5v-24q33 0 47 -19t14 -38zM402 312q37 0 52 -2v172l-1 13q-12 4 -31 4h-82v-187h4l50 -60v-73q-59 -2 -59 -39v-5q16 -4 38 -4q73 0 86 48h-7l-50 60
v73z" />
    <glyph glyph-name="E" unicode="E" horiz-adv-x="656" 
d="M617 13q0 -35 18 -46l-18 -27q-26 0 -54.5 13t-44.5 28q-17 -15 -57.5 -28t-76.5 -13q-73 0 -119 39q-41 -39 -93.5 -39t-97 50.5t-51.5 104.5l28 18q5 -8 20 -8q40 0 40 74h-10l-50 60v73q42 0 59 -3v190h-28l-50 60v141h537l50 -60v-244h-116l-50 60v43h-107v-58h71
l50 -60v-116h-75l11 -13v-73q-16 -1 -26 -2.5t-21 -10.5t-11 -26v-4q14 -5 40 -5t49 16t23 45q0 5 -6 29v32h116l50 -60v-180zM165 279q10 6 24 24h27q13 -18 23 -24q11 14 27 22v52h123v60h-123v174h215v-103h60v188h-481v-85h80v-287q13 -7 25 -21zM484 188
q0 -40 -30.5 -63t-74.5 -23t-78.5 25.5t-34.5 77.5q0 18 14.5 37.5t46.5 19.5v24q-18 0 -27.5 -1.5t-24.5 -12t-27 -31.5q-24 5 -46 34q-18 -26 -45 -34q-13 21 -28 31.5t-24.5 12t-27.5 1.5v-24q34 0 49.5 -23.5t15.5 -65.5t-13.5 -69t-56.5 -27l-14 2q18 -51 63 -51t88 45
h9l4 -4q48 -40 116.5 -40t129.5 47q9 -9 37 -25.5t44 -19.5q-9 10 -9 52v140h-61q5 -17 5 -35z" />
    <glyph glyph-name="F" unicode="F" horiz-adv-x="636" 
d="M468 265h-74l11 -13v-73q-39 0 -50.5 -14t-11.5 -45v-15q7 0 12 8l28 -18l50 -60q-6 -47 -34 -71t-67.5 -24t-77.5 27q-38 -27 -78.5 -27t-92.5 48t-58 107l28 18q4 -9 19 -9q43 0 43 75h-12l-50 60v73q41 0 58 -3v190h-28l-50 60v141h537l50 -60v-244h-116l-50 60v43
h-107v-58h71l50 -60v-116zM167 279q10 6 24 24h26q13 -18 24 -24q10 14 26 22v52h123v60h-123v174h215v-103h60v188h-481v-85h80v-286q14 -7 26 -22zM207 61q36 -31 79.5 -31t63.5 50q-7 -4 -16 -4q-70 0 -70 103q0 84 66 84v25q-19 0 -29 -1.5t-25 -12.5t-27 -33
q-24 5 -45 35q-21 -27 -45 -35q-13 22 -28 33t-25 12.5t-28 1.5v-25q66 0 66 -84q0 -76 -32 -95q-15 -8 -38 -8l-16 4q20 -50 63.5 -50t79.5 31h6z" />
    <glyph glyph-name="G" unicode="G" horiz-adv-x="763" 
d="M481 279q10 8 23 24h26q12 -18 23 -24q18 22 41.5 27.5t72.5 5.5l50 -60v-73q-38 0 -50 -14t-12 -43v-16q7 1 12 7l27 -18l50 -60q-7 -47 -35 -71t-72 -24t-81 39q-24 -18 -37.5 -26t-48.5 -16.5t-102 -8.5t-136.5 22.5t-117.5 78.5t-48 139v11h-12l-50 60v73q44 0 62 -3
v222q0 117 122 159q62 22 136 22t129 -13.5t101.5 -41t73.5 -75.5t27 -111v-101h-194l-50 60v72l-1 16q-9 3 -26 3q-74 0 -74 -79v-134l47 -56v-73q-17 -1 -27.5 -2.5t-21.5 -10.5t-11 -26l1 -15q16 -6 44.5 -6t51 16t28.5 44h-7l-50 60v73q34 0 50 -1q44 -3 66 -32z
M118 279q12 7 23 24h27q13 -18 23 -24q18 21 41 27v197q0 52 27 80t76 28t77 -27.5t28 -80.5v-45h137v71q0 55 -37.5 91t-89.5 49.5t-107 13.5t-95.5 -8t-76 -25t-56.5 -48t-21 -73v-229q14 -8 24 -21zM336 90q-53 0 -84.5 30t-31.5 85q0 19 14 38t47 19v24
q-19 0 -28.5 -1.5t-24 -12t-27.5 -31.5q-25 5 -47 34q-18 -26 -44 -34q-13 21 -28 31.5t-24.5 12t-27.5 1.5v-24q64 0 64 -93q0 -54 38 -89q67 -63 204 -63q48 0 82.5 9.5t48 18.5t35.5 28h8q22 -24 39.5 -35t40.5 -11q49 0 73 52q-6 -2 -17 -2q-30 0 -45.5 16t-19 35
t-3.5 51q0 83 64 83v24q-18 0 -28 -1.5t-25 -12t-28 -31.5q-22 5 -44 34q-18 -26 -45 -34q-13 21 -28 31.5t-25 12t-28 1.5v-24q33 0 47.5 -19.5t14.5 -37.5q0 -55 -32 -85t-85 -30z" />
    <glyph glyph-name="H" unicode="H" horiz-adv-x="855" 
d="M54 312q41 0 58 -3v190h-8l-50 60v141h304l50 -60v-141h-60v-60h158v60h-8l-50 60v141h304l50 -60v-141h-60v-187h8l50 -60v-73q-39 0 -50.5 -14t-11.5 -45v-15q7 0 12 8l28 -18l50 -60q-6 -47 -34 -71t-67.5 -24t-77.5 27q-38 -27 -78.5 -27t-92.5 48t-58 107l28 18
q4 -9 19 -9q43 0 43 75h-12l-50 60v26h-53l11 -13v-73q-39 0 -50.5 -14t-11.5 -45v-15q7 0 12 8l28 -18l50 -60q-6 -47 -34 -71t-67.5 -24t-77.5 27q-38 -27 -78.5 -27t-92.5 48t-58 107l28 18q4 -9 19 -9q43 0 43 75h-12l-50 60v73zM168 279q10 6 24 24h26q13 -18 24 -24
q10 14 26 22v51h268v-51q14 -7 26 -22q10 6 24 24h26q13 -18 24 -24q10 14 26 22v286h62v85h-248v-85h60v-175h-268v175h62v85h-248v-85h60v-286q14 -7 26 -22zM602 61q36 -31 79.5 -31t63.5 50q-7 -4 -16 -4q-70 0 -70 103q0 84 66 84v25q-19 0 -29 -1.5t-25 -12.5t-27 -33
q-24 5 -45 35q-21 -27 -45 -35q-13 22 -28 33t-25 12.5t-28 1.5v-25q66 0 66 -84q0 -76 -32 -95q-15 -8 -38 -8l-16 4q20 -50 63.5 -50t79.5 31h6zM208 61q36 -31 79.5 -31t63.5 50q-7 -4 -16 -4q-70 0 -70 103q0 84 66 84v25q-19 0 -29 -1.5t-25 -12.5t-27 -33
q-24 5 -45 35q-21 -27 -45 -35q-13 22 -28 33t-25 12.5t-28 1.5v-25q66 0 66 -84q0 -76 -32 -95q-15 -8 -38 -8l-16 4q20 -50 63.5 -50t79.5 31h6z" />
    <glyph glyph-name="I" unicode="I" horiz-adv-x="463" 
d="M410 499h-60v-187h8l50 -60v-73q-39 0 -50.5 -14t-11.5 -45v-15q7 0 12 8l28 -18l50 -60q-6 -47 -34 -71t-67.5 -24t-77.5 27q-38 -27 -78.5 -27t-92.5 48t-58 107l28 18q4 -9 19 -9q43 0 43 75h-12l-50 60v73q41 0 58 -3v190h-8l-50 60v141h304l50 -60v-141zM170 279
q10 6 24 24h26q13 -18 24 -24q10 14 26 22v286h62v85h-248v-85h60v-286q14 -7 26 -22zM210 61q36 -31 79.5 -31t63.5 50q-7 -4 -16 -4q-70 0 -70 103q0 84 66 84v25q-19 0 -29 -1.5t-25 -12.5t-27 -33q-24 5 -45 35q-21 -27 -45 -35q-13 22 -28 33t-25 12.5t-28 1.5v-25
q66 0 66 -84q0 -76 -32 -95q-15 -8 -38 -8l-16 4q20 -50 63.5 -50t79.5 31h6z" />
    <glyph glyph-name="J" unicode="J" horiz-adv-x="656" 
d="M335 499h-8l-50 60v141h304l50 -60v-141h-60v-187h10l50 -60v-73q-38 0 -49.5 -14.5t-11.5 -43.5v-15q0 -51 -22.5 -88t-61.5 -56q-74 -34 -160.5 -34t-157 28.5t-119.5 84.5t-49 125v54h110q14 -27 24 -33q20 29 64 32q15 1 48 1l50 -60v-52q23 9 35 30l-32 39v69
q15 1 36 5v248zM490 181q0 81 66 81v24q-43 0 -63 -23q-8 -10 -15 -22q-24 6 -46 30q-11 -15 -40.5 -29.5t-61.5 -17.5v-21h36v-29q0 -50 -31.5 -75.5t-66.5 -25.5t-58.5 15.5t-23.5 46.5q0 16 10.5 25.5t24.5 9.5v24q-18 0 -28 -1.5t-25.5 -12t-27.5 -31.5q-26 7 -43 42
h-69v-24q0 -54 35.5 -89t85.5 -48t113 -13q97 0 162.5 35.5t65.5 114.5v14zM365 587v-326q38 15 63 42h17q14 -18 24 -24l9 10q6 5 13 10v288h62v85h-248v-85h60z" />
    <glyph glyph-name="K" unicode="K" horiz-adv-x="730" 
d="M411 179h-12q-39 0 -49.5 -14t-10.5 -45v-15q6 3 10 8l78 -78q-6 -47 -34 -71t-66 -24t-78 27q-40 -27 -78 -27q-54 0 -99 50.5t-52 104.5l28 18q5 -9 22 -9t26.5 13.5t11 26.5t1.5 35h-11l-50 60v73q41 0 58 -3v190h-8l-50 60v141h284l50 -60v-122l25 29l-16 12v141h260
l50 -60v-141h-52l-150 -175l23 -25q55 -13 85 -64.5t30 -115.5v-14q7 3 11 8l27 -18l50 -60q-5 -50 -37 -72.5t-100 -22.5t-122.5 58.5t-54.5 149.5v31zM162 279q10 6 24 24h26q13 -18 25 -24q22 29 63 32q15 1 49.5 1t50.5 -1q43 -3 65 -32q9 4 21 19l-78 81l177 208h38v85
h-205v-85h59l-178 -206h-37v206h42v85h-228v-85h60v-286q15 -8 26 -22zM324 288q-18 0 -27.5 -1.5t-24.5 -12.5t-27 -33q-25 5 -46 35q-21 -27 -46 -35q-12 22 -27 33t-24.5 12.5t-26.5 1.5v-25q64 0 64 -84q0 -31 -3.5 -50.5t-19.5 -36t-46 -16.5l-15 4q20 -50 63 -50
t78 31h6q35 -31 77.5 -31t64.5 50q-5 -4 -22 -4t-31.5 8.5t-20.5 24.5q-10 27 -10 70q0 84 64 84h52q65 0 65 -84v-26q0 -123 104 -123q53 0 74 18q20 16 23 32q-6 -4 -15 -4q-41 0 -54 28t-13 79q0 74 -59 93q-19 -27 -44 -35q-13 22 -28 33t-25 12.5t-28 1.5h-52z" />
    <glyph glyph-name="L" unicode="L" horiz-adv-x="636" 
d="M404 499h-60v-187h7l50 -60v-73q-16 -1 -26 -2.5t-21 -10.5t-11 -26v-4q14 -5 40 -5t49 16t23 45q0 5 -6 29v32h116l50 -60v-180q0 -35 18 -46l-18 -27q-26 0 -54.5 13t-44.5 28q-17 -15 -57.5 -28t-76.5 -13q-73 0 -119 39q-41 -39 -93.5 -39t-97 50.5t-51.5 104.5
l28 18q5 -8 20 -8q40 0 40 74h-10l-50 60v73q42 0 59 -3v190h-8l-50 60v141h304l50 -60v-141zM482 188q0 -40 -30.5 -63t-74.5 -23t-78.5 25.5t-34.5 77.5q0 18 14.5 37.5t46.5 19.5v24q-18 0 -27.5 -1.5t-24.5 -12t-27 -31.5q-24 5 -46 34q-18 -26 -45 -34q-13 21 -28 31.5
t-24.5 12t-27.5 1.5v-24q34 0 49.5 -23.5t15.5 -65.5t-13.5 -69t-56.5 -27l-14 2q18 -51 63 -51t88 45h9l4 -4q48 -40 116.5 -40t129.5 47q9 -9 37 -25.5t44 -19.5q-9 10 -9 52v140h-61q5 -17 5 -35zM163 279q10 6 24 24h27q13 -18 23 -24q11 14 27 22v286h62v85h-248v-85
h60v-287q13 -7 25 -21z" />
    <glyph glyph-name="M" unicode="M" horiz-adv-x="914" 
d="M337 312h8l50 -60v-73q-39 0 -50.5 -14t-11.5 -45v-15q7 0 12 8l28 -18l50 -60q-6 -47 -34 -71t-67.5 -24t-77.5 27q-38 -27 -78.5 -27t-92.5 48t-58 107l28 18q4 -9 19 -9q43 0 43 75h-12l-50 60v73q41 0 58 -3v190h-8l-50 60v141h239l161 -195l163 195h218l50 -60v-141
h-60v-187h8l50 -60v-73q-39 0 -50.5 -14t-11.5 -45v-15q7 0 12 8l28 -18l50 -60q-6 -47 -34 -71t-67.5 -24t-77.5 27q-38 -27 -78.5 -27t-92.5 48t-58 107l28 18q4 -9 19 -9q43 0 43 75h-12l-50 60v17l-26 -32h-23l-50 59l-84 106v-77zM634 279q10 6 24 24h26q13 -18 24 -24
q10 14 26 22v286h62v85h-176l-176 -207h-23l-175 207h-175v-85h60v-286q14 -7 26 -22q10 6 24 24h26q13 -18 24 -24q11 15 29 23v190h27l145 -181l146 181h27v-190q16 -7 29 -23zM197 61q36 -31 79.5 -31t63.5 50q-7 -4 -16 -4q-70 0 -70 103q0 84 66 84v25q-19 0 -29 -1.5
t-25 -12.5t-27 -33q-24 5 -45 35q-21 -27 -45 -35q-13 22 -28 33t-25 12.5t-28 1.5v-25q66 0 66 -84q0 -76 -32 -95q-15 -8 -38 -8l-16 4q20 -50 63.5 -50t79.5 31h6zM674 61q36 -31 79.5 -31t63.5 50q-7 -4 -16 -4q-70 0 -70 103q0 84 66 84v25q-19 0 -29 -1.5t-25 -12.5
t-27 -33q-24 5 -45 35q-21 -27 -45 -35q-27 46 -72 46h-9v-24q66 0 66 -84q0 -76 -32 -95q-15 -8 -38 -8l-16 4q20 -50 63.5 -50t79.5 31h6z" />
    <glyph glyph-name="N" unicode="N" horiz-adv-x="834" 
d="M624 -30q-13 -6 -17 -30q-46 0 -102 48q-27 23 -45.5 65.5t-18.5 94.5v31h-12l-34 41v-41q-39 0 -50.5 -14t-11.5 -45v-15q7 0 12 8l28 -18l50 -60q-6 -47 -34 -71t-67.5 -24t-77.5 27q-38 -27 -78.5 -27t-92.5 48t-58 107l28 18q4 -9 19 -9q43 0 43 75h-12l-50 60v73
q40 0 56 -2v189h-8l-50 60v141h234l224 -267v66h-11l-50 60v141h304l50 -60v-141h-60v-187h9l50 -60v-73q-39 0 -50 -14t-11 -45v-15q7 2 11 8l78 -78q-6 -47 -34.5 -71t-58.5 -24t-58 8.5t-44 21.5zM157 279q10 6 24 24h26q13 -18 24 -24q11 14 27 22v191h28l146 -182
q41 -5 62 -31q10 6 24 24h83q13 -18 25 -24q13 14 26 21v287h62v85h-248v-85h60v-210h-34l-248 295h-175v-85h60v-285q16 -8 28 -23zM667 30q49 0 68 50q-6 -4 -15 -4q-30 0 -46.5 16.5t-20 36t-3.5 50.5q0 84 65 84v25q-18 0 -27.5 -1.5t-25 -12.5t-28.5 -33q-24 5 -45 35
h-59q-21 -28 -45 -35q-13 22 -28 33t-24.5 12.5t-27.5 1.5v-25q64 0 64 -84v-26q0 -78 51 -111q10 -6 18 -8q8 28 33 28q17 -14 47 -23t49 -9zM197 61q36 -31 79.5 -31t63.5 50q-7 -4 -16 -4q-70 0 -70 103q0 84 66 84v25q-19 0 -29 -1.5t-25 -12.5t-27 -33q-24 5 -45 35
q-21 -27 -45 -35q-13 22 -28 33t-25 12.5t-28 1.5v-25q66 0 66 -84q0 -76 -32 -95q-15 -8 -38 -8l-16 4q20 -50 63.5 -50t79.5 31h6zM335 312h10l34 -41v41h14l-58 73v-73z" />
    <glyph glyph-name="O" unicode="O" 
d="M399 -72q-144 0 -236 68.5t-92 171.5v11h-10l-50 60v73q44 0 61 -3v222q0 52 25.5 89.5t68.5 56.5q79 35 183 35q146 0 236.5 -66.5t90.5 -174.5v-159h11l50 -60v-73q-38 0 -49 -14t-11 -44v-13q0 -52 -25.5 -89t-69.5 -56q-80 -35 -183 -35zM124 279q12 7 25 24h25
q13 -18 24 -24q18 21 41 27v197q0 51 31 79.5t80 28.5t79 -28t30 -80v-197q23 -6 41 -27q10 6 24 24h25q13 -18 25 -24q10 13 23 20v230q0 42 -22 73t-59 48t-79 25t-88 8t-87.5 -8t-79 -25t-59.5 -48t-22 -73v-230q14 -9 23 -20zM349 18q63 0 116 13t92.5 48.5t39.5 89.5
v10q0 83 65 83v24q-18 0 -27.5 -1.5t-25 -12t-28.5 -31.5q-22 5 -44 34q-18 -26 -46 -34q-12 21 -27 31.5t-25 12t-28 1.5v-24q33 0 47 -19t14 -38q0 -54 -35 -84.5t-88 -30.5t-88 30.5t-35 84.5q0 19 14 38t47 19v24q-18 0 -28 -1.5t-25 -12t-27 -31.5q-26 5 -46 34
q-20 -26 -44 -34q-13 21 -28.5 31.5t-25 12t-27.5 1.5v-24q65 0 65 -83v-10q0 -54 39.5 -89.5t92.5 -48.5t116 -13zM318 442v-135l46 -55v-73q-17 -1 -27 -2.5t-21.5 -10.5t-11.5 -26q0 -21 40 -21t64.5 16.5t32.5 43.5h-7l-50 60v73q32 0 46 -1v191q0 8 -11 13.5t-20 5.5
q-37 0 -59 -20.5t-22 -58.5z" />
    <glyph glyph-name="P" unicode="P" horiz-adv-x="699" 
d="M690 425q0 -117 -61.5 -174.5t-168.5 -57.5h-50v-14q-39 0 -50.5 -14t-11.5 -45v-15q7 0 12 8l28 -18l50 -60q-6 -47 -34 -71t-67.5 -24t-77.5 27q-38 -27 -78.5 -27t-92.5 48t-58 107l28 18q4 -9 19 -9q43 0 43 75h-12l-50 60v73q41 0 58 -3v190h-28l-50 60v141h359
q137 0 215 -79t78 -196zM172 279q10 6 24 24h26q13 -18 24 -24q17 23 40.5 28t73.5 5l26 -31h15q209 0 209 204q0 62 -34 116q-21 32 -68.5 51.5t-117.5 19.5h-324v-85h80v-286q14 -7 26 -22zM274 587h63q143 0 143 -111q0 -59 -34.5 -97t-107.5 -38h-64v246zM212 61
q36 -31 79.5 -31t63.5 50q-7 -4 -16 -4q-70 0 -70 103q0 84 66 84v25q-19 0 -29 -1.5t-25 -12.5t-27 -33q-24 5 -45 35q-21 -27 -45 -35q-13 22 -28 33t-25 12.5t-28 1.5v-25q66 0 66 -84q0 -76 -32 -95q-15 -8 -38 -8l-16 4q20 -50 63.5 -50t79.5 31h6zM384 500h-32v-130
q100 8 100 106l-1 15q-19 9 -67 9z" />
    <glyph glyph-name="Q" unicode="Q" horiz-adv-x="774" 
d="M658 471v-159h11l50 -60v-73q-38 0 -50 -14t-12 -43v-16q7 1 12 7l27 -18l50 -60q-7 -47 -35 -71t-72 -24t-81 39q-24 -18 -37.5 -26t-48.5 -16.5t-102 -8.5t-136.5 22.5t-117.5 78.5t-48 139v11h-12l-50 60v73q45 0 63 -3v222q0 52 24.5 89t66.5 56q78 36 178 36
q119 0 212 -50q49 -27 78.5 -76t29.5 -115zM483 279q10 8 23 24h26q7 -13 23 -24q10 13 25 21v230q0 54 -38 90t-89.5 49t-114 13t-114 -13t-89.5 -49t-38 -90v-231q14 -9 23 -20q10 5 23 24h27q13 -18 23 -24q19 23 44 29v183q0 53 27 81t75 28t75.5 -27.5t27.5 -81.5v-185
q23 -6 41 -27zM393 286v-46q34 -3 48 -20.5t14 -34.5q0 -54 -30 -74.5t-85 -20.5t-86.5 30t-31.5 85q0 19 14 38t47 19v24q-19 0 -28.5 -1.5t-24 -12t-27.5 -31.5q-25 5 -47 34q-19 -26 -44 -34q-13 21 -28 31.5t-24.5 12t-27.5 1.5v-24q64 0 64 -93q0 -54 38 -89
q67 -63 204 -63q48 0 82.5 9.5t48 18.5t35.5 28h8q22 -24 39.5 -35t40.5 -11q49 0 73 52q-6 -2 -17 -2q-30 0 -45.5 16t-19 35t-3.5 51q0 83 64 83v24q-18 0 -28 -1.5t-25 -12t-28 -31.5q-21 7 -44 34q-18 -26 -45 -34q-13 21 -28 31.5t-25 12t-28 1.5zM315 429v-133l44 -44
v-73q-17 -1 -27.5 -2.5t-21.5 -10.5t-11 -26l2 -17q16 -6 37 -6q71 0 85 40h-6l-50 70v85q33 0 47 -1v178l-1 17q-7 3 -25 3q-73 0 -73 -80z" />
    <glyph glyph-name="R" unicode="R" horiz-adv-x="741" 
d="M420 179h-12q-39 0 -49.5 -14t-10.5 -45v-15q6 3 10 8l78 -78q-6 -47 -34 -71t-66 -24t-78 27q-40 -27 -78 -27q-54 0 -99 50.5t-52 104.5l28 18q5 -9 22 -9t26.5 13.5t11 26.5t1.5 35h-11l-50 60v73q41 0 58 -3v190h-28l-50 60v141h359q137 0 215 -79t78 -201t-76 -181
q33 -51 33 -120v-14q7 3 11 8l27 -18l50 -60q-5 -50 -37 -72.5t-100 -22.5t-122.5 58.5t-54.5 149.5v31zM474 279q12 7 25 24q10 0 14 -1q96 44 96 183q0 49 -16.5 84.5t-39 55t-65 33.5t-99.5 14h-324v-85h80v-286q15 -8 26 -22q10 6 24 24h26q13 -18 25 -24q22 29 63 32
q15 1 57 1t66 -5.5t42 -27.5zM333 288q-18 0 -27.5 -1.5t-24.5 -12.5t-27 -33q-25 5 -46 35q-21 -27 -46 -35q-12 22 -27 33t-24.5 12.5t-26.5 1.5v-25q64 0 64 -84q0 -31 -3.5 -50.5t-19.5 -36t-46 -16.5l-15 4q20 -50 63 -50t78 31h6q35 -31 77.5 -31t64.5 50
q-5 -4 -22 -4t-31.5 8.5t-20.5 24.5q-10 27 -10 70q0 84 64 84h52q65 0 65 -84v-26q0 -123 104 -123q53 0 74 18q20 16 23 32q-6 -4 -15 -4q-41 0 -54 28t-13 79q0 74 -59 93q-19 -27 -44 -35q-13 22 -28 33t-25 12.5t-28 1.5h-52zM273 587h63q143 0 143 -111
q0 -59 -34.5 -97t-107.5 -38h-64v246zM383 500h-32v-130q100 8 100 106l-1 15q-19 9 -67 9z" />
    <glyph glyph-name="S" unicode="S" horiz-adv-x="656" 
d="M602 161l2 -42q0 -94 -64.5 -142.5t-152.5 -48.5q-27 0 -54 7t-41 14.5t-33.5 19t-21.5 12.5l-24 14q-21 -21 -55.5 -38t-61.5 -17l-50 60l-18 28q18 10 18 44v180h116l50 -60v-31l4 -29q21 -13 65.5 -13t54.5 42q-16 -9 -22 -15l-97 116l17 15q-43 27 -68.5 46t-60.5 53
q-70 66 -70 154.5t67.5 135t156.5 46.5q48 0 86 -14.5t52 -29.5l14 -14v46h124l50 -60v-224h-117l-50 60l-14 46q-17 9 -40 9t-38.5 -16t-15.5 -44l1 -9q3 -3 55.5 -27.5t100.5 -58t60 -66.5q15 2 54 2l50 -60v-73q-29 0 -29 -18zM65 538q0 -49 25.5 -87.5t55.5 -58
t77 -45.5t66 -40q18 5 36 5q39 0 75 -30l18 20h25q13 -17 23 -23q12 15 30 23q-21 37 -68 67.5t-89.5 47.5t-76 46.5t-33.5 67.5q0 25 11 46q23 42 76 42q88 0 125 -115h71v168h-76v-70h-6q-65 81 -170 81q-79 0 -137 -39.5t-58 -105.5zM525 177l-2 44q0 42 33 42v25
q-19 0 -28.5 -1.5t-24.5 -12.5t-28 -33q-24 4 -44 34q-19 -23 -40 -29q-28 42 -76 42q-31 0 -61 -28l15 -19q19 15 39 15t35.5 -12t19 -28t3.5 -35.5t-5.5 -37.5t-26.5 -35.5t-55 -17.5q-57 0 -98 34t-47 99h-59v-141q0 -41 -10 -50q19 3 51.5 23t40.5 35q14 -9 40 -25
q79 -49 138 -49q80 0 135 41.5t55 119.5z" />
    <glyph glyph-name="T" unicode="T" horiz-adv-x="646" 
d="M443 499v-187h8l50 -60v-73q-39 0 -50.5 -14t-11.5 -45v-15q7 0 12 8l28 -18l50 -60q-6 -47 -34 -71t-67.5 -24t-77.5 27q-38 -27 -78.5 -27t-92.5 48t-58 107l28 18q4 -9 19 -9q43 0 43 75h-12l-50 60v73q41 0 58 -3v190h-29v-103h-116l-50 60v244h576l50 -60v-244h-110
l-50 60v43h-35zM263 279q10 6 24 24h26q13 -18 24 -24q10 14 26 22v286h140v-103h57v188h-520v-188h60v103h137v-286q14 -7 26 -22zM303 61q36 -31 79.5 -31t63.5 50q-7 -4 -16 -4q-70 0 -70 103q0 84 66 84v25q-19 0 -29 -1.5t-25 -12.5t-27 -33q-24 5 -45 35
q-21 -27 -45 -35q-13 22 -28 33t-25 12.5t-28 1.5v-25q66 0 66 -84q0 -76 -32 -95q-15 -8 -38 -8l-16 4q20 -50 63.5 -50t79.5 31h6z" />
    <glyph glyph-name="U" unicode="U" horiz-adv-x="774" 
d="M751 499h-60v-187h7l50 -60v-73q-38 0 -49 -14t-11 -44v-13q0 -52 -25.5 -89t-68.5 -56q-81 -35 -184 -35q-144 0 -236 68.5t-92 171.5v11h-10l-50 60v73q41 0 58 -3v190h-8l-50 60v141h304l50 -60v-141h-60v-187h9l50 -60v-73q-17 -1 -27 -2.5t-21.5 -10.5t-11.5 -26
q0 -21 40 -21t64.5 16.5t32.5 43.5h-7l-50 60v73q43 0 60 -3v190h-8l-50 60v141h304l50 -60v-141zM360 18q63 0 116 13t92.5 48.5t39.5 89.5v10q0 83 65 83v24q-18 0 -27.5 -1.5t-25 -12t-28.5 -31.5q-22 5 -44 34q-18 -26 -46 -34q-12 21 -27 31.5t-25 12t-28 1.5v-24
q33 0 47 -19t14 -38q0 -54 -35 -84.5t-88 -30.5t-88 30.5t-35 84.5q0 19 14 38t47 19v24q-18 0 -28 -1.5t-25 -12t-27 -31.5q-26 5 -46 34q-20 -26 -44 -34q-13 21 -28.5 31.5t-25 12t-27.5 1.5v-24q65 0 65 -83v-10q0 -54 39.5 -89.5t92.5 -48.5t116 -13zM511 279
q10 6 24 24h25q13 -18 25 -24q11 13 26 21v287h62v85h-248v-85h60v-287q14 -8 26 -21zM135 279q12 7 25 24h25q13 -18 24 -24q11 14 27 22v286h62v85h-248v-85h60v-287q13 -7 25 -21z" />
    <glyph glyph-name="V" unicode="V" horiz-adv-x="732" 
d="M544 70q0 -53 38 -59v-71q-51 0 -73 5t-38 25q-8 -5 -25 -33l-6 -9h-95q-20 35 -31 42q-15 -20 -36 -25t-74 -5l-50 70v61q38 6 38 59q0 22 -7 45q-11 5 -25 5l-50 60v72h25l-41 187h-28l-50 60v141h278l50 -60v-141h-51l42 -200l25 -30v43h30l41 198l-41 49v141h278
l50 -60v-141h-65l-49 -220l23 -27v-72q-39 -1 -61 -35t-22 -75zM551 289q-52 0 -79 -47q-25 18 -46 44h-40v-20q20 -12 20 -41t-25 -67.5t-39 -46.5q-13 8 -38 46.5t-25 67t20 41.5v20h-40q-15 -22 -43 -44q-30 47 -80 47v-25q38 -5 62 -47.5t24 -85.5q0 -68 -41 -76v-30
q47 0 68 19q11 9 20 25q24 -27 45 -56h56l46 56q20 -32 46 -39q22 -5 44 -5v30q-40 8 -40 76q0 43 24 85.5t61 47.5v25zM640 587v85h-222v-85h56l-56 -275h21q19 -26 30 -32q18 23 48 29l63 278h60zM218 280q10 8 29 32h18l-55 275h56v85h-222v-85h60l62 -278q31 -4 52 -29z
" />
    <glyph glyph-name="W" unicode="W" horiz-adv-x="990" 
d="M343 499h-51l40 -195l31 -38v46h29l49 224h70l50 -60l43 -188l18 -22v46h34l41 198l-41 49v141h278l50 -60v-141h-65l-50 -225l19 -22v-72q-38 -1 -60 -35t-22 -75q0 -53 39 -59v-71q-54 0 -75.5 5t-37.5 25q-10 -6 -24 -33l-4 -9h-116l-50 60l-20 37l-54 -97h-117
q-20 35 -31 42q-17 -21 -37.5 -25.5t-70.5 -4.5l-50 60v71q37 7 37 59q0 24 -7 45l-26 5l-50 60v72h23l-42 187h-28l-50 60v141h278l50 -60v-141zM524 286q-19 -25 -47 -44q-27 18 -48 44h-39v-20q7 -5 13.5 -18.5t6.5 -32t-25.5 -58t-39.5 -47.5q-13 9 -38 48t-25 67t20 41
v20h-40q-17 -22 -45 -44q-27 47 -79 47v-25q37 -5 61 -47.5t24 -85.5q0 -68 -40 -76v-30q47 0 68 19q11 9 21 25q24 -27 45 -56h80l67 115h28l61 -115h81l42 56q20 -32 46 -39q22 -5 46 -5v30q-41 8 -41 76q0 43 24.5 85.5t62.5 47.5v25q-52 0 -82 -47q-24 18 -46 44h-38
v-20q21 -14 21 -42t-25 -67t-39 -47q-13 8 -38 47.5t-25 68.5t19 40v20h-37zM220 280q10 8 29 32h15l-55 275h56v85h-222v-85h60l62 -277q35 -5 55 -30zM906 587v85h-222v-85h56l-56 -275h14q20 -26 32 -32q20 26 53 30l63 277h60zM477 276q10 6 36 36h22l-45 197h-28
l-43 -197h24q24 -30 34 -36z" />
    <glyph glyph-name="X" unicode="X" horiz-adv-x="828" 
d="M54 700h306l48 -58v58h305l50 -60v-141h-68l-115 -210l6 -10q22 33 106 33l50 -60l12 -72q-54 0 -54 -48q0 -29 7 -29q17 0 19 10l32 -19l50 -60q0 -48 -23.5 -71t-60 -23t-83.5 25q-37 -25 -72 -25q-55 0 -103.5 49t-65.5 105l24 19q8 -10 23 -10q33 0 33 39l-3 23
q-19 10 -46.5 10t-52.5 -16t-34 -46l24 -19l50 -60q-14 -47 -46.5 -70.5t-69 -23.5t-76.5 25q-45 -25 -83 -25q-52 0 -91.5 50t-39.5 104l31 19q2 -10 19.5 -10t34 24t20.5 53l-53 60l12 72q85 0 108 -34q13 6 26 23l28 49l-83 149h-51l-50 60v141zM685 587v85h-250v-85h64
l-102 -186h-25l-104 186h64v85h-250v-85h59l131 -238l-30 -54q7 -14 13 -17q38 38 128.5 38t126.5 -38q11 6 15 17l-29 54l129 238h60zM588 61q44 -34 84.5 -34t53.5 52q-5 -4 -14 -4q-38 0 -64.5 37.5t-26.5 71.5q0 71 55 79l-4 24q-19 0 -28.5 -1.5t-22.5 -12t-22 -32.5
q-23 4 -52 34q-7 -13 -16.5 -21.5t-21.5 -12.5q-39 48 -126 48t-124 -48q-23 4 -39 34q-24 -26 -50 -34q-9 22 -22.5 32.5t-23.5 12t-28 1.5l-4 -24q28 -4 41.5 -23.5t13.5 -54.5t-26.5 -72.5t-63.5 -37.5l-14 4q13 -52 52.5 -52t84.5 34h6q34 -34 68 -34q45 0 78 52
q-8 -4 -18 -4q-56 0 -56 58t38 91.5t88 33.5t88 -33.5t38 -91.5t-56 -58l-19 4q32 -52 79 -52q35 0 68 34h6zM410 499h-44l28 -56l42 83l-26 30v-57z" />
    <glyph glyph-name="Y" unicode="Y" horiz-adv-x="689" 
d="M169 312h29l-99 187h-49l-50 60v141h296l48 -58v58h295l50 -60v-141h-68l-119 -224l19 -23v-73q-39 0 -50.5 -14t-11.5 -45v-15q7 0 12 8l28 -18l50 -60q-6 -47 -34 -71t-67.5 -24t-77.5 27q-38 -27 -78.5 -27t-92.5 48t-58 107l28 18q4 -9 19 -9q43 0 43 75h-12l-50 60
v73zM283 279q10 6 24 24h26q13 -18 24 -24q17 24 50 30l144 278h60v85h-239v-85h61l-95 -206h-36l-96 206h62v85h-240v-85h60l143 -278q34 -6 52 -30zM323 61q36 -31 79.5 -31t63.5 50q-7 -4 -16 -4q-70 0 -70 103q0 84 66 84v25q-19 0 -29 -1.5t-25 -12.5t-27 -33
q-24 5 -45 35q-21 -27 -45 -35q-13 22 -28 33t-25 12.5t-28 1.5v-25q66 0 66 -84q0 -76 -32 -95q-15 -8 -38 -8l-16 4q20 -50 63.5 -50t79.5 31h6zM346 499h-43l29 -68l40 94l-26 31v-57z" />
    <glyph glyph-name="Z" unicode="Z" horiz-adv-x="707" 
d="M212 499v-103h-116l-50 60v244h540l50 -60v-141h-67l-133 -233l12 -14v-72q-17 -1 -27 -2.5t-20.5 -11t-10.5 -26.5v-6q13 -5 39.5 -5t49.5 16.5t23 46.5q0 14 -4 29v31h115l50 -60v-181q0 -33 18 -45l-18 -26q-27 0 -54.5 12.5t-42.5 27.5q-55 -40 -128.5 -40t-123.5 36
q-44 -36 -108.5 -36t-118.5 48.5t-54 105.5l32 19q2 -10 21 -10t35.5 24t17.5 53l-50 60l11 72q61 0 82 -10l105 197h-75zM208 278q14 7 30 25h25q11 -20 24 -25q23 30 60 33l153 276h57v85h-483v-188h60v103h233l-162 -304zM526 224l5 -37q0 -40 -31 -63t-76 -23t-77.5 25
t-32.5 79q0 28 17.5 43t39.5 15v24q-17 0 -26 -1.5t-23.5 -12.5t-25.5 -32q-34 8 -50 34q-24 -26 -53 -34q-8 21 -21 32t-22.5 12.5t-27.5 1.5l-5 -24q56 -9 56 -71q0 -43 -27 -80t-66 -37l-15 4q4 -21 32.5 -36.5t57.5 -15.5q59 0 107 48l8 -7q47 -41 115 -41t131 48
q8 -9 34.5 -25.5t42.5 -18.5q-8 8 -8 51v142h-59z" />
    <glyph glyph-name="bracketleft" unicode="[" horiz-adv-x="360" 
d="M71 712h223l50 -60v-114h-93v-436h43l50 -60v-114h-223l-50 60v724zM99 685v-670h165v60h-91v550h91v60h-165z" />
    <glyph glyph-name="backslash" unicode="\" horiz-adv-x="419" 
d="M369 -60h-163l-50 60l-105 699h163l50 -60zM185 27h96l-96 645h-97z" />
    <glyph glyph-name="bracketright" unicode="]" horiz-adv-x="366" 
d="M33 712h223l50 -60v-724h-223l-50 60v114h93v436h-43l-50 60v114zM228 15v670h-165v-60h91v-550h-91v-60h165z" />
    <glyph glyph-name="asciicircum" unicode="^" horiz-adv-x="468" 
d="M305 639l120 -186h-104l-78 70l-78 -70h-104l-50 60l120 186h124zM152 672l-91 -132h42l81 70h18l81 -70h42l-91 132h-82z" />
    <glyph glyph-name="underscore" unicode="_" horiz-adv-x="562" 
d="M563 -250h-513l-50 60v144h513l50 -60v-144zM30 -163h453v90h-453v-90z" />
    <glyph glyph-name="grave" unicode="`" horiz-adv-x="223" 
d="M211 523h-86l-50 60l-60 160h136l50 -60zM96 609h36l-10 109h-68z" />
    <glyph glyph-name="a" unicode="a" horiz-adv-x="806" 
d="M133 700h490l50 -60v-139h-52l37 -190q9 1 28 1l50 -60l12 -72q-54 0 -54 -48q0 -29 7 -29q17 0 19 10l32 -19l50 -60q0 -48 -23.5 -71t-60 -23t-83.5 25q-37 -25 -72 -25q-55 0 -103.5 49t-65.5 105l24 19q8 -10 23 -10q33 0 33 39l-3 23q-19 10 -46.5 10t-52.5 -16
t-34 -46l24 -19l50 -60q-14 -47 -46.5 -70.5t-69 -23.5t-76.5 25q-45 -25 -83 -25q-52 0 -91.5 50t-39.5 104l31 19q2 -10 19.5 -10t34 24t20.5 53l-53 60l12 72q43 0 65 -6l40 204l-42 51v139zM504 278q9 7 20 25h26q16 -19 29 -25q4 7 16 17l-57 295h57v82h-434v-82h57
l-58 -295q12 -9 18 -17q12 7 28 25h26q8 -19 17 -25q38 38 128.5 38t126.5 -38zM582 61q44 -34 84.5 -34t53.5 52q-5 -4 -14 -4q-38 0 -64.5 37.5t-26.5 71.5q0 71 55 79l-4 24q-19 0 -28.5 -1.5t-22.5 -12t-22 -32.5q-23 4 -52 34q-7 -13 -16.5 -21.5t-21.5 -12.5
q-39 48 -126 48t-124 -48q-23 4 -39 34q-24 -26 -50 -34q-9 22 -22.5 32.5t-23.5 12t-28 1.5l-4 -24q28 -4 41.5 -23.5t13.5 -54.5t-26.5 -72.5t-63.5 -37.5l-14 4q13 -52 52.5 -52t84.5 34h6q34 -34 68 -34q45 0 78 52q-8 -4 -18 -4q-56 0 -56 58t38 91.5t88 33.5t88 -33.5
t38 -91.5t-56 -58l-19 4q32 -52 79 -52q35 0 68 34h6zM287 340l54 250h74l56 -250h-184zM410 485l-26 -119h53z" />
    <glyph glyph-name="b" unicode="b" horiz-adv-x="752" 
d="M752 179q-40 0 -51 -16t-11 -55q0 -168 -270 -168q-73 0 -107 9t-63 30q-37 -39 -82 -39q-59 0 -103.5 50t-52.5 105l27 18q6 -8 22 -8t26 12.5t12 26t2 35.5h-12l-50 60v73q44 0 62 -3v190h-11l-50 60v141h362q116 0 185.5 -61.5t69.5 -180.5q0 -67 -37 -118
q12 -13 25 -30q16 2 57 2l50 -60v-73zM153 279q8 5 23 24h26q13 -18 23 -24q14 17 31 24v52h119q72 0 95 -48q27 -6 45 -28q10 8 23 24h27q11 -18 23 -24q7 10 19 18q-21 52 -84 91q56 51 56 129q0 155 -187 155h-324v-85h63v-289q10 -5 22 -19zM486 205q0 -103 -116.5 -103
t-116.5 103q0 18 14.5 37.5t47.5 19.5v24q-18 0 -28 -1.5t-25 -12t-28 -31.5q-24 5 -45 34q-20 -26 -44 -34q-13 21 -28 31.5t-25 12t-28 1.5v-24q64 0 64 -83q0 -32 -3.5 -51t-19 -35t-45.5 -16l-17 2q24 -52 73 -52q23 0 40.5 11t39.5 35h8q27 -24 60.5 -34t105.5 -10
q242 0 242 140q0 93 64 93v24q-18 0 -27.5 -1.5t-24.5 -12t-28 -31.5q-23 5 -44 34q-20 -26 -47 -34q-13 21 -27.5 31.5t-24 12t-28.5 1.5v-24q33 0 47 -19t14 -38zM333 407h-77v180h77q67 0 90.5 -19t23.5 -69q0 -92 -114 -92zM399 268h-22l14 -16v-73q-59 -2 -59 -39v-5
q16 -4 38 -4q73 0 86 48h-7l-50 60v29zM334 500v-66q61 0 75 24q10 17 10 40q-1 2 -36 2h-49z" />
    <glyph glyph-name="c" unicode="c" horiz-adv-x="731" 
d="M484 278q11 7 24 25h26q13 -19 24 -25q18 23 41.5 28.5t72.5 5.5l50 -60v-72q-39 0 -50 -15t-11 -47v-10q0 -52 -24.5 -89t-66.5 -56q-77 -35 -179 -35q-125 0 -216 54q-47 27 -75.5 75t-28.5 111v12h-11l-50 60v72q43 0 61 -3v222q0 117 122 159q62 22 136 22t129 -13.5
t101.5 -41t73.5 -75.5t27 -111v-101h-194l-50 60v72l-1 16q-9 3 -26 3q-74 0 -74 -79v-134l47 -56v-72q-59 -2 -59 -40v-8q16 -5 38 -5q74 0 86 53h-7l-50 60v72q34 0 50 -1q39 -3 64 -33zM124 278q10 8 24 25h26q12 -19 24 -25q15 19 39 27v198q0 52 27 80t76 28t77 -27.5
t28 -80.5v-45h137v71q0 55 -37.5 91t-89.5 49.5t-107 13.5t-95.5 -8t-76 -25t-56.5 -48t-21 -73v-230q13 -7 25 -21zM582 169v9q0 85 65 85v24q-41 0 -61 -20q-10 -10 -20 -26q-21 4 -44 34q-18 -26 -45 -34q-13 21 -28.5 32t-25 12.5t-26.5 1.5v-24q31 0 45 -20t14 -38
q0 -106 -115 -106t-115 106q0 19 14 38.5t45 19.5v24q-18 0 -27.5 -1.5t-24.5 -12t-28 -32.5q-24 4 -45 34q-20 -26 -44 -34q-13 21 -28 32t-25 12.5t-28 1.5v-24q65 0 65 -85v-9q0 -55 38 -91t89.5 -49.5t113.5 -13.5t113.5 13.5t89.5 49.5t38 91z" />
    <glyph glyph-name="d" unicode="d" horiz-adv-x="763" 
d="M692 458v-146h13l50 -60v-73q-40 0 -51 -16t-11 -55q0 -168 -270 -168q-73 0 -107 9t-63 30q-37 -39 -82 -39q-59 0 -103.5 50t-52.5 105l27 18q6 -8 22 -8t26 12.5t12 26t2 35.5h-12l-50 60v73q44 0 62 -3v190h-8l-50 60v141h344q120 0 207 -54q44 -28 69.5 -76.5
t25.5 -111.5zM518 279q10 8 23 24h27q11 -18 23 -24q10 13 23 20v218q0 80 -64 117.5t-160 37.5h-316v-85h60v-289q10 -5 22 -19q8 5 23 24h26q13 -18 23 -24q15 18 34 25v283h110q50 0 80 -26t30 -75v-181q21 -8 36 -26zM489 205q0 -103 -116.5 -103t-116.5 103
q0 18 14.5 37.5t47.5 19.5v24q-18 0 -28 -1.5t-25 -12t-28 -31.5q-24 5 -45 34q-20 -26 -44 -34q-13 21 -28 31.5t-25 12t-28 1.5v-24q64 0 64 -83q0 -32 -3.5 -51t-19 -35t-45.5 -16l-17 2q24 -52 73 -52q23 0 40.5 11t39.5 35h8q27 -24 60.5 -34t105.5 -10q242 0 242 140
q0 93 64 93v24q-18 0 -27.5 -1.5t-24.5 -12t-28 -31.5q-23 5 -44 34q-20 -26 -47 -34q-13 21 -27.5 31.5t-24 12t-28.5 1.5v-24q33 0 47 -19t14 -38zM402 312q37 0 52 -2v172l-1 13q-12 4 -31 4h-82v-187h4l50 -60v-73q-59 -2 -59 -39v-5q16 -4 38 -4q73 0 86 48h-7l-50 60
v73z" />
    <glyph glyph-name="e" unicode="e" horiz-adv-x="656" 
d="M618 13q0 -35 18 -46l-18 -27q-26 0 -54.5 13t-44.5 28q-17 -15 -57.5 -28t-76.5 -13q-73 0 -119 39q-41 -39 -93.5 -39t-97 50.5t-51.5 104.5l28 18q5 -8 20 -8q40 0 40 74h-10l-50 60v73q42 0 59 -3v190h-28l-50 60v141h537l50 -60v-244h-116l-50 60v43h-107v-58h71
l50 -60v-116h-75l11 -13v-73q-16 -1 -26 -2.5t-21 -10.5t-11 -26v-4q14 -5 40 -5t49 16t23 45q0 5 -6 29v32h116l50 -60v-180zM166 279q10 6 24 24h27q13 -18 23 -24q11 14 27 22v52h123v60h-123v174h215v-103h60v188h-481v-85h80v-287q13 -7 25 -21zM485 188
q0 -40 -30.5 -63t-74.5 -23t-78.5 25.5t-34.5 77.5q0 18 14.5 37.5t46.5 19.5v24q-18 0 -27.5 -1.5t-24.5 -12t-27 -31.5q-24 5 -46 34q-18 -26 -45 -34q-13 21 -28 31.5t-24.5 12t-27.5 1.5v-24q34 0 49.5 -23.5t15.5 -65.5t-13.5 -69t-56.5 -27l-14 2q18 -51 63 -51t88 45
h9l4 -4q48 -40 116.5 -40t129.5 47q9 -9 37 -25.5t44 -19.5q-9 10 -9 52v140h-61q5 -17 5 -35z" />
    <glyph glyph-name="f" unicode="f" horiz-adv-x="636" 
d="M468 265h-74l11 -13v-73q-39 0 -50.5 -14t-11.5 -45v-15q7 0 12 8l28 -18l50 -60q-6 -47 -34 -71t-67.5 -24t-77.5 27q-38 -27 -78.5 -27t-92.5 48t-58 107l28 18q4 -9 19 -9q43 0 43 75h-12l-50 60v73q41 0 58 -3v190h-28l-50 60v141h537l50 -60v-244h-116l-50 60v43
h-107v-58h71l50 -60v-116zM167 279q10 6 24 24h26q13 -18 24 -24q10 14 26 22v52h123v60h-123v174h215v-103h60v188h-481v-85h80v-286q14 -7 26 -22zM207 61q36 -31 79.5 -31t63.5 50q-7 -4 -16 -4q-70 0 -70 103q0 84 66 84v25q-19 0 -29 -1.5t-25 -12.5t-27 -33
q-24 5 -45 35q-21 -27 -45 -35q-13 22 -28 33t-25 12.5t-28 1.5v-25q66 0 66 -84q0 -76 -32 -95q-15 -8 -38 -8l-16 4q20 -50 63.5 -50t79.5 31h6z" />
    <glyph glyph-name="g" unicode="g" horiz-adv-x="763" 
d="M481 279q10 8 23 24h26q12 -18 23 -24q18 22 41.5 27.5t72.5 5.5l50 -60v-73q-38 0 -50 -14t-12 -43v-16q7 1 12 7l27 -18l50 -60q-7 -47 -35 -71t-72 -24t-81 39q-24 -18 -37.5 -26t-48.5 -16.5t-102 -8.5t-136.5 22.5t-117.5 78.5t-48 139v11h-12l-50 60v73q44 0 62 -3
v222q0 117 122 159q62 22 136 22t129 -13.5t101.5 -41t73.5 -75.5t27 -111v-101h-194l-50 60v72l-1 16q-9 3 -26 3q-74 0 -74 -79v-134l47 -56v-73q-17 -1 -27.5 -2.5t-21.5 -10.5t-11 -26l1 -15q16 -6 44.5 -6t51 16t28.5 44h-7l-50 60v73q34 0 50 -1q44 -3 66 -32z
M118 279q12 7 23 24h27q13 -18 23 -24q18 21 41 27v197q0 52 27 80t76 28t77 -27.5t28 -80.5v-45h137v71q0 55 -37.5 91t-89.5 49.5t-107 13.5t-95.5 -8t-76 -25t-56.5 -48t-21 -73v-229q14 -8 24 -21zM336 90q-53 0 -84.5 30t-31.5 85q0 19 14 38t47 19v24
q-19 0 -28.5 -1.5t-24 -12t-27.5 -31.5q-25 5 -47 34q-18 -26 -44 -34q-13 21 -28 31.5t-24.5 12t-27.5 1.5v-24q64 0 64 -93q0 -54 38 -89q67 -63 204 -63q48 0 82.5 9.5t48 18.5t35.5 28h8q22 -24 39.5 -35t40.5 -11q49 0 73 52q-6 -2 -17 -2q-30 0 -45.5 16t-19 35
t-3.5 51q0 83 64 83v24q-18 0 -28 -1.5t-25 -12t-28 -31.5q-22 5 -44 34q-18 -26 -45 -34q-13 21 -28 31.5t-25 12t-28 1.5v-24q33 0 47.5 -19.5t14.5 -37.5q0 -55 -32 -85t-85 -30z" />
    <glyph glyph-name="h" unicode="h" horiz-adv-x="855" 
d="M54 312q41 0 58 -3v190h-8l-50 60v141h304l50 -60v-141h-60v-60h158v60h-8l-50 60v141h304l50 -60v-141h-60v-187h8l50 -60v-73q-39 0 -50.5 -14t-11.5 -45v-15q7 0 12 8l28 -18l50 -60q-6 -47 -34 -71t-67.5 -24t-77.5 27q-38 -27 -78.5 -27t-92.5 48t-58 107l28 18
q4 -9 19 -9q43 0 43 75h-12l-50 60v26h-53l11 -13v-73q-39 0 -50.5 -14t-11.5 -45v-15q7 0 12 8l28 -18l50 -60q-6 -47 -34 -71t-67.5 -24t-77.5 27q-38 -27 -78.5 -27t-92.5 48t-58 107l28 18q4 -9 19 -9q43 0 43 75h-12l-50 60v73zM168 279q10 6 24 24h26q13 -18 24 -24
q10 14 26 22v51h268v-51q14 -7 26 -22q10 6 24 24h26q13 -18 24 -24q10 14 26 22v286h62v85h-248v-85h60v-175h-268v175h62v85h-248v-85h60v-286q14 -7 26 -22zM602 61q36 -31 79.5 -31t63.5 50q-7 -4 -16 -4q-70 0 -70 103q0 84 66 84v25q-19 0 -29 -1.5t-25 -12.5t-27 -33
q-24 5 -45 35q-21 -27 -45 -35q-13 22 -28 33t-25 12.5t-28 1.5v-25q66 0 66 -84q0 -76 -32 -95q-15 -8 -38 -8l-16 4q20 -50 63.5 -50t79.5 31h6zM208 61q36 -31 79.5 -31t63.5 50q-7 -4 -16 -4q-70 0 -70 103q0 84 66 84v25q-19 0 -29 -1.5t-25 -12.5t-27 -33
q-24 5 -45 35q-21 -27 -45 -35q-13 22 -28 33t-25 12.5t-28 1.5v-25q66 0 66 -84q0 -76 -32 -95q-15 -8 -38 -8l-16 4q20 -50 63.5 -50t79.5 31h6z" />
    <glyph glyph-name="i" unicode="i" horiz-adv-x="463" 
d="M410 499h-60v-187h8l50 -60v-73q-39 0 -50.5 -14t-11.5 -45v-15q7 0 12 8l28 -18l50 -60q-6 -47 -34 -71t-67.5 -24t-77.5 27q-38 -27 -78.5 -27t-92.5 48t-58 107l28 18q4 -9 19 -9q43 0 43 75h-12l-50 60v73q41 0 58 -3v190h-8l-50 60v141h304l50 -60v-141zM170 279
q10 6 24 24h26q13 -18 24 -24q10 14 26 22v286h62v85h-248v-85h60v-286q14 -7 26 -22zM210 61q36 -31 79.5 -31t63.5 50q-7 -4 -16 -4q-70 0 -70 103q0 84 66 84v25q-19 0 -29 -1.5t-25 -12.5t-27 -33q-24 5 -45 35q-21 -27 -45 -35q-13 22 -28 33t-25 12.5t-28 1.5v-25
q66 0 66 -84q0 -76 -32 -95q-15 -8 -38 -8l-16 4q20 -50 63.5 -50t79.5 31h6z" />
    <glyph glyph-name="j" unicode="j" horiz-adv-x="655" 
d="M335 499h-8l-50 60v141h304l50 -60v-141h-60v-187h10l50 -60v-73q-38 0 -49.5 -14.5t-11.5 -43.5v-15q0 -51 -22.5 -88t-61.5 -56q-74 -34 -160.5 -34t-157 28.5t-119.5 84.5t-49 125v54h110q14 -27 24 -33q20 29 64 32q15 1 48 1l50 -60v-52q23 9 35 30l-32 39v69
q15 1 36 5v248zM490 181q0 81 66 81v24q-43 0 -63 -23q-8 -10 -15 -22q-24 6 -46 30q-11 -15 -40.5 -29.5t-61.5 -17.5v-21h36v-29q0 -50 -31.5 -75.5t-66.5 -25.5t-58.5 15.5t-23.5 46.5q0 16 10.5 25.5t24.5 9.5v24q-18 0 -28 -1.5t-25.5 -12t-27.5 -31.5q-26 7 -43 42
h-69v-24q0 -54 35.5 -89t85.5 -48t113 -13q97 0 162.5 35.5t65.5 114.5v14zM365 587v-326q38 15 63 42h17q14 -18 24 -24l9 10q6 5 13 10v288h62v85h-248v-85h60z" />
    <glyph glyph-name="k" unicode="k" horiz-adv-x="730" 
d="M411 179h-12q-39 0 -49.5 -14t-10.5 -45v-15q6 3 10 8l78 -78q-6 -47 -34 -71t-66 -24t-78 27q-40 -27 -78 -27q-54 0 -99 50.5t-52 104.5l28 18q5 -9 22 -9t26.5 13.5t11 26.5t1.5 35h-11l-50 60v73q41 0 58 -3v190h-8l-50 60v141h284l50 -60v-122l25 29l-16 12v141h260
l50 -60v-141h-52l-150 -175l23 -25q55 -13 85 -64.5t30 -115.5v-14q7 3 11 8l27 -18l50 -60q-5 -50 -37 -72.5t-100 -22.5t-122.5 58.5t-54.5 149.5v31zM162 279q10 6 24 24h26q13 -18 25 -24q22 29 63 32q15 1 49.5 1t50.5 -1q43 -3 65 -32q9 4 21 19l-78 81l177 208h38v85
h-205v-85h59l-178 -206h-37v206h42v85h-228v-85h60v-286q15 -8 26 -22zM324 288q-18 0 -27.5 -1.5t-24.5 -12.5t-27 -33q-25 5 -46 35q-21 -27 -46 -35q-12 22 -27 33t-24.5 12.5t-26.5 1.5v-25q64 0 64 -84q0 -31 -3.5 -50.5t-19.5 -36t-46 -16.5l-15 4q20 -50 63 -50
t78 31h6q35 -31 77.5 -31t64.5 50q-5 -4 -22 -4t-31.5 8.5t-20.5 24.5q-10 27 -10 70q0 84 64 84h52q65 0 65 -84v-26q0 -123 104 -123q53 0 74 18q20 16 23 32q-6 -4 -15 -4q-41 0 -54 28t-13 79q0 74 -59 93q-19 -27 -44 -35q-13 22 -28 33t-25 12.5t-28 1.5h-52z" />
    <glyph glyph-name="l" unicode="l" horiz-adv-x="634" 
d="M404 499h-60v-187h7l50 -60v-73q-16 -1 -26 -2.5t-21 -10.5t-11 -26v-4q14 -5 40 -5t49 16t23 45q0 5 -6 29v32h116l50 -60v-180q0 -35 18 -46l-18 -27q-26 0 -54.5 13t-44.5 28q-17 -15 -57.5 -28t-76.5 -13q-73 0 -119 39q-41 -39 -93.5 -39t-97 50.5t-51.5 104.5
l28 18q5 -8 20 -8q40 0 40 74h-10l-50 60v73q42 0 59 -3v190h-8l-50 60v141h304l50 -60v-141zM482 188q0 -40 -30.5 -63t-74.5 -23t-78.5 25.5t-34.5 77.5q0 18 14.5 37.5t46.5 19.5v24q-18 0 -27.5 -1.5t-24.5 -12t-27 -31.5q-24 5 -46 34q-18 -26 -45 -34q-13 21 -28 31.5
t-24.5 12t-27.5 1.5v-24q34 0 49.5 -23.5t15.5 -65.5t-13.5 -69t-56.5 -27l-14 2q18 -51 63 -51t88 45h9l4 -4q48 -40 116.5 -40t129.5 47q9 -9 37 -25.5t44 -19.5q-9 10 -9 52v140h-61q5 -17 5 -35zM163 279q10 6 24 24h27q13 -18 23 -24q11 14 27 22v286h62v85h-248v-85
h60v-287q13 -7 25 -21z" />
    <glyph glyph-name="m" unicode="m" horiz-adv-x="914" 
d="M337 312h8l50 -60v-73q-39 0 -50.5 -14t-11.5 -45v-15q7 0 12 8l28 -18l50 -60q-6 -47 -34 -71t-67.5 -24t-77.5 27q-38 -27 -78.5 -27t-92.5 48t-58 107l28 18q4 -9 19 -9q43 0 43 75h-12l-50 60v73q41 0 58 -3v190h-8l-50 60v141h239l161 -195l163 195h218l50 -60v-141
h-60v-187h8l50 -60v-73q-39 0 -50.5 -14t-11.5 -45v-15q7 0 12 8l28 -18l50 -60q-6 -47 -34 -71t-67.5 -24t-77.5 27q-38 -27 -78.5 -27t-92.5 48t-58 107l28 18q4 -9 19 -9q43 0 43 75h-12l-50 60v17l-26 -32h-23l-50 59l-84 106v-77zM634 279q10 6 24 24h26q13 -18 24 -24
q10 14 26 22v286h62v85h-176l-176 -207h-23l-175 207h-175v-85h60v-286q14 -7 26 -22q10 6 24 24h26q13 -18 24 -24q11 15 29 23v190h27l145 -181l146 181h27v-190q16 -7 29 -23zM197 61q36 -31 79.5 -31t63.5 50q-7 -4 -16 -4q-70 0 -70 103q0 84 66 84v25q-19 0 -29 -1.5
t-25 -12.5t-27 -33q-24 5 -45 35q-21 -27 -45 -35q-13 22 -28 33t-25 12.5t-28 1.5v-25q66 0 66 -84q0 -76 -32 -95q-15 -8 -38 -8l-16 4q20 -50 63.5 -50t79.5 31h6zM674 61q36 -31 79.5 -31t63.5 50q-7 -4 -16 -4q-70 0 -70 103q0 84 66 84v25q-19 0 -29 -1.5t-25 -12.5
t-27 -33q-24 5 -45 35q-21 -27 -45 -35q-27 46 -72 46h-9v-24q66 0 66 -84q0 -76 -32 -95q-15 -8 -38 -8l-16 4q20 -50 63.5 -50t79.5 31h6z" />
    <glyph glyph-name="n" unicode="n" horiz-adv-x="834" 
d="M624 -30q-13 -6 -17 -30q-46 0 -102 48q-27 23 -45.5 65.5t-18.5 94.5v31h-12l-34 41v-41q-39 0 -50.5 -14t-11.5 -45v-15q7 0 12 8l28 -18l50 -60q-6 -47 -34 -71t-67.5 -24t-77.5 27q-38 -27 -78.5 -27t-92.5 48t-58 107l28 18q4 -9 19 -9q43 0 43 75h-12l-50 60v73
q40 0 56 -2v189h-8l-50 60v141h234l224 -267v66h-11l-50 60v141h304l50 -60v-141h-60v-187h9l50 -60v-73q-39 0 -50 -14t-11 -45v-15q7 2 11 8l78 -78q-6 -47 -34.5 -71t-58.5 -24t-58 8.5t-44 21.5zM157 279q10 6 24 24h26q13 -18 24 -24q11 14 27 22v191h28l146 -182
q41 -5 62 -31q10 6 24 24h83q13 -18 25 -24q13 14 26 21v287h62v85h-248v-85h60v-210h-34l-248 295h-175v-85h60v-285q16 -8 28 -23zM667 30q49 0 68 50q-6 -4 -15 -4q-30 0 -46.5 16.5t-20 36t-3.5 50.5q0 84 65 84v25q-18 0 -27.5 -1.5t-25 -12.5t-28.5 -33q-24 5 -45 35
h-59q-21 -28 -45 -35q-13 22 -28 33t-24.5 12.5t-27.5 1.5v-25q64 0 64 -84v-26q0 -78 51 -111q10 -6 18 -8q8 28 33 28q17 -14 47 -23t49 -9zM197 61q36 -31 79.5 -31t63.5 50q-7 -4 -16 -4q-70 0 -70 103q0 84 66 84v25q-19 0 -29 -1.5t-25 -12.5t-27 -33q-24 5 -45 35
q-21 -27 -45 -35q-13 22 -28 33t-25 12.5t-28 1.5v-25q66 0 66 -84q0 -76 -32 -95q-15 -8 -38 -8l-16 4q20 -50 63.5 -50t79.5 31h6zM335 312h10l34 -41v41h14l-58 73v-73z" />
    <glyph glyph-name="o" unicode="o" horiz-adv-x="745" 
d="M399 -72q-144 0 -236 68.5t-92 171.5v11h-10l-50 60v73q44 0 61 -3v222q0 52 25.5 89.5t68.5 56.5q79 35 183 35q146 0 236.5 -66.5t90.5 -174.5v-159h11l50 -60v-73q-38 0 -49 -14t-11 -44v-13q0 -52 -25.5 -89t-69.5 -56q-80 -35 -183 -35zM124 279q12 7 25 24h25
q13 -18 24 -24q18 21 41 27v197q0 51 31 79.5t80 28.5t79 -28t30 -80v-197q23 -6 41 -27q10 6 24 24h25q13 -18 25 -24q10 13 23 20v230q0 42 -22 73t-59 48t-79 25t-88 8t-87.5 -8t-79 -25t-59.5 -48t-22 -73v-230q14 -9 23 -20zM349 18q63 0 116 13t92.5 48.5t39.5 89.5
v10q0 83 65 83v24q-18 0 -27.5 -1.5t-25 -12t-28.5 -31.5q-22 5 -44 34q-18 -26 -46 -34q-12 21 -27 31.5t-25 12t-28 1.5v-24q33 0 47 -19t14 -38q0 -54 -35 -84.5t-88 -30.5t-88 30.5t-35 84.5q0 19 14 38t47 19v24q-18 0 -28 -1.5t-25 -12t-27 -31.5q-26 5 -46 34
q-20 -26 -44 -34q-13 21 -28.5 31.5t-25 12t-27.5 1.5v-24q65 0 65 -83v-10q0 -54 39.5 -89.5t92.5 -48.5t116 -13zM318 442v-135l46 -55v-73q-17 -1 -27 -2.5t-21.5 -10.5t-11.5 -26q0 -21 40 -21t64.5 16.5t32.5 43.5h-7l-50 60v73q32 0 46 -1v191q0 8 -11 13.5t-20 5.5
q-37 0 -59 -20.5t-22 -58.5z" />
    <glyph glyph-name="p" unicode="p" horiz-adv-x="690" 
d="M690 425q0 -117 -61.5 -174.5t-168.5 -57.5h-50v-14q-39 0 -50.5 -14t-11.5 -45v-15q7 0 12 8l28 -18l50 -60q-6 -47 -34 -71t-67.5 -24t-77.5 27q-38 -27 -78.5 -27t-92.5 48t-58 107l28 18q4 -9 19 -9q43 0 43 75h-12l-50 60v73q41 0 58 -3v190h-28l-50 60v141h359
q137 0 215 -79t78 -196zM172 279q10 6 24 24h26q13 -18 24 -24q17 23 40.5 28t73.5 5l26 -31h15q209 0 209 204q0 62 -34 116q-21 32 -68.5 51.5t-117.5 19.5h-324v-85h80v-286q14 -7 26 -22zM274 587h63q143 0 143 -111q0 -59 -34.5 -97t-107.5 -38h-64v246zM212 61
q36 -31 79.5 -31t63.5 50q-7 -4 -16 -4q-70 0 -70 103q0 84 66 84v25q-19 0 -29 -1.5t-25 -12.5t-27 -33q-24 5 -45 35q-21 -27 -45 -35q-13 22 -28 33t-25 12.5t-28 1.5v-25q66 0 66 -84q0 -76 -32 -95q-15 -8 -38 -8l-16 4q20 -50 63.5 -50t79.5 31h6zM384 500h-32v-130
q100 8 100 106l-1 15q-19 9 -67 9z" />
    <glyph glyph-name="q" unicode="q" horiz-adv-x="774" 
d="M658 471v-159h11l50 -60v-73q-38 0 -50 -14t-12 -43v-16q7 1 12 7l27 -18l50 -60q-7 -47 -35 -71t-72 -24t-81 39q-24 -18 -37.5 -26t-48.5 -16.5t-102 -8.5t-136.5 22.5t-117.5 78.5t-48 139v11h-12l-50 60v73q45 0 63 -3v222q0 52 24.5 89t66.5 56q78 36 178 36
q119 0 212 -50q49 -27 78.5 -76t29.5 -115zM483 279q10 8 23 24h26q7 -13 23 -24q10 13 25 21v230q0 54 -38 90t-89.5 49t-114 13t-114 -13t-89.5 -49t-38 -90v-231q14 -9 23 -20q10 5 23 24h27q13 -18 23 -24q19 23 44 29v183q0 53 27 81t75 28t75.5 -27.5t27.5 -81.5v-185
q23 -6 41 -27zM393 286v-46q34 -3 48 -20.5t14 -34.5q0 -54 -30 -74.5t-85 -20.5t-86.5 30t-31.5 85q0 19 14 38t47 19v24q-19 0 -28.5 -1.5t-24 -12t-27.5 -31.5q-25 5 -47 34q-19 -26 -44 -34q-13 21 -28 31.5t-24.5 12t-27.5 1.5v-24q64 0 64 -93q0 -54 38 -89
q67 -63 204 -63q48 0 82.5 9.5t48 18.5t35.5 28h8q22 -24 39.5 -35t40.5 -11q49 0 73 52q-6 -2 -17 -2q-30 0 -45.5 16t-19 35t-3.5 51q0 83 64 83v24q-18 0 -28 -1.5t-25 -12t-28 -31.5l-42 31l-2 3q-18 -26 -45 -34q-13 21 -28 31.5t-25 12t-28 1.5zM315 429v-133l44 -44
v-73q-17 -1 -27.5 -2.5t-21.5 -10.5t-11 -26l2 -17q16 -6 37 -6q71 0 85 40h-6l-50 70v85q33 0 47 -1v178l-1 17q-7 3 -25 3q-73 0 -73 -80z" />
    <glyph glyph-name="r" unicode="r" horiz-adv-x="741" 
d="M421 179h-12q-39 0 -49.5 -14t-10.5 -45v-15q6 3 10 8l78 -78q-6 -47 -34 -71t-66 -24t-78 27q-40 -27 -78 -27q-54 0 -99 50.5t-52 104.5l28 18q5 -9 22 -9t26.5 13.5t11 26.5t1.5 35h-11l-50 60v73q41 0 58 -3v190h-28l-50 60v141h359q137 0 215 -79t78 -201t-76 -181
q33 -51 33 -120v-14q7 3 11 8l27 -18l50 -60q-5 -50 -37 -72.5t-100 -22.5t-122.5 58.5t-54.5 149.5v31zM475 279q12 7 25 24q10 0 14 -1q96 44 96 183q0 49 -16.5 84.5t-39 55t-65 33.5t-99.5 14h-324v-85h80v-286q15 -8 26 -22q10 6 24 24h26q13 -18 25 -24q22 29 63 32
q15 1 49.5 1t50.5 -1q43 -3 65 -32zM334 288q-18 0 -27.5 -1.5t-24.5 -12.5t-27 -33q-25 5 -46 35q-21 -27 -46 -35q-12 22 -27 33t-24.5 12.5t-26.5 1.5v-25q64 0 64 -84q0 -31 -3.5 -50.5t-19.5 -36t-46 -16.5l-15 4q20 -50 63 -50t78 31h6q35 -31 77.5 -31t64.5 50
q-5 -4 -22 -4t-31.5 8.5t-20.5 24.5q-10 27 -10 70q0 84 64 84h52q65 0 65 -84v-26q0 -123 104 -123q53 0 74 18q20 16 23 32q-6 -4 -15 -4q-41 0 -54 28t-13 79q0 74 -59 93q-19 -27 -44 -35q-13 22 -28 33t-25 12.5t-28 1.5h-52zM274 587h63q143 0 143 -111
q0 -59 -34.5 -97t-107.5 -38h-64v246zM384 500h-32v-130q100 8 100 106l-1 15q-19 9 -67 9z" />
    <glyph glyph-name="s" unicode="s" horiz-adv-x="656" 
d="M602 161l2 -42q0 -94 -64.5 -142.5t-152.5 -48.5q-27 0 -54 7t-41 14.5t-33.5 19t-21.5 12.5l-24 14q-21 -21 -55.5 -38t-61.5 -17l-50 60l-18 28q18 10 18 44v180h116l50 -60v-31l4 -29q21 -13 65.5 -13t54.5 42q-16 -9 -22 -15l-97 116l18 15q-44 27 -69.5 45.5
t-60.5 51.5q-70 68 -70 156.5t67.5 135t156.5 46.5q48 0 86 -14.5t52 -29.5l14 -14v46h124l50 -60v-224h-117l-50 60l-14 46q-17 9 -40 9t-38.5 -16t-15.5 -44l1 -9q3 -3 55.5 -27.5t100.5 -58t60 -66.5q15 2 54 2l50 -60v-73q-29 0 -29 -18zM65 538q0 -49 25.5 -87.5
t55.5 -58t77 -45.5t66 -40q18 5 36 5q39 0 75 -30l18 20h25q13 -17 23 -23q12 15 30 23q-21 37 -68 67.5t-89.5 47.5t-76 46.5t-33.5 67.5q0 25 11 46q23 42 76 42q88 0 125 -115h71v168h-76v-70h-6q-65 81 -170 81q-79 0 -137 -39.5t-58 -105.5zM525 177l-2 44q0 42 33 42
v25q-19 0 -28.5 -1.5t-24.5 -12.5t-28 -33q-24 4 -44 34q-19 -23 -40 -29q-28 42 -76 42q-31 0 -61 -28l15 -19q19 15 39 15t35.5 -12t19 -28t3.5 -35.5t-5.5 -37.5t-26.5 -35.5t-55 -17.5q-57 0 -98 34t-47 99h-59v-141q0 -41 -10 -50q19 3 51.5 23t40.5 35q14 -9 40 -25
q79 -49 138 -49q80 0 135 41.5t55 119.5z" />
    <glyph glyph-name="t" unicode="t" horiz-adv-x="646" 
d="M441 499v-187h8l50 -60v-73q-39 0 -50.5 -14t-11.5 -45v-15q7 0 12 8l28 -18l50 -60q-6 -47 -34 -71t-67.5 -24t-77.5 27q-38 -27 -78.5 -27t-92.5 48t-58 107l28 18q4 -9 19 -9q43 0 43 75h-12l-50 60v73q41 0 58 -3v190h-29v-103h-116l-50 60v244h576l50 -60v-244h-110
l-50 60v43h-35zM261 279q10 6 24 24h26q13 -18 24 -24q10 14 26 22v286h140v-103h57v188h-520v-188h60v103h137v-286q14 -7 26 -22zM301 61q36 -31 79.5 -31t63.5 50q-7 -4 -16 -4q-70 0 -70 103q0 84 66 84v25q-19 0 -29 -1.5t-25 -12.5t-27 -33q-24 5 -45 35
q-21 -27 -45 -35q-13 22 -28 33t-25 12.5t-28 1.5v-25q66 0 66 -84q0 -76 -32 -95q-15 -8 -38 -8l-16 4q20 -50 63.5 -50t79.5 31h6z" />
    <glyph glyph-name="u" unicode="u" horiz-adv-x="774" 
d="M751 499h-60v-187h7l50 -60v-73q-38 0 -49 -14t-11 -44v-13q0 -52 -25.5 -89t-68.5 -56q-81 -35 -184 -35q-144 0 -236 68.5t-92 171.5v11h-10l-50 60v73q41 0 58 -3v190h-8l-50 60v141h304l50 -60v-141h-60v-187h9l50 -60v-73q-17 -1 -27 -2.5t-21.5 -10.5t-11.5 -26
q0 -21 40 -21t64.5 16.5t32.5 43.5h-7l-50 60v73q43 0 60 -3v190h-8l-50 60v141h304l50 -60v-141zM360 18q63 0 116 13t92.5 48.5t39.5 89.5v10q0 83 65 83v24q-18 0 -27.5 -1.5t-25 -12t-28.5 -31.5q-22 5 -44 34q-18 -26 -46 -34q-12 21 -27 31.5t-25 12t-28 1.5v-24
q33 0 47 -19t14 -38q0 -54 -35 -84.5t-88 -30.5t-88 30.5t-35 84.5q0 19 14 38t47 19v24q-18 0 -28 -1.5t-25 -12t-27 -31.5q-26 5 -46 34q-20 -26 -44 -34q-13 21 -28.5 31.5t-25 12t-27.5 1.5v-24q65 0 65 -83v-10q0 -54 39.5 -89.5t92.5 -48.5t116 -13zM511 279
q10 6 24 24h25q13 -18 25 -24q11 13 26 21v287h62v85h-248v-85h60v-287q14 -8 26 -21zM135 279q12 7 25 24h25q13 -18 24 -24q11 14 27 22v286h62v85h-248v-85h60v-287q13 -7 25 -21z" />
    <glyph glyph-name="v" unicode="v" horiz-adv-x="706" 
d="M528 70q0 -53 38 -59v-71q-51 0 -73 5t-38 25q-8 -5 -25 -33l-6 -9h-95q-20 35 -31 42q-15 -20 -36 -25t-74 -5l-50 70v61q38 6 38 59q0 22 -7 45q-11 5 -25 5l-50 60v72h26l-42 187h-28l-50 60v141h278l50 -60v-141h-51l42 -200l25 -30v43h30l41 198l-41 49v141h278
l50 -60v-141h-65l-49 -220l23 -27v-72q-39 -1 -61 -35t-22 -75zM535 289q-52 0 -79 -47q-25 18 -46 44h-40v-20q20 -12 20 -41t-25 -67.5t-39 -46.5q-13 8 -38 46.5t-25 67t20 41.5v20h-40q-15 -22 -43 -44q-27 44 -80 47v-25q38 -5 62 -47.5t24 -85.5q0 -68 -41 -76v-30
q47 0 68 19q11 9 20 25q24 -27 45 -56h56l46 56q20 -32 46 -39q22 -5 44 -5v30q-40 8 -40 76q0 43 24 85.5t61 47.5v25zM624 587v85h-222v-85h56l-56 -275h21q19 -26 30 -32q18 23 48 29l63 278h60zM202 280q10 8 29 32h18l-55 275h56v85h-222v-85h60l62 -278q31 -4 52 -29z
" />
    <glyph glyph-name="w" unicode="w" horiz-adv-x="984" 
d="M333 499h-51l40 -195l31 -38v46h29l49 224h70l50 -60l43 -188l18 -22v46h34l41 198l-41 49v141h278l50 -60v-141h-65l-50 -225l19 -22v-72q-38 -1 -60 -35t-22 -75q0 -53 39 -59v-71q-54 0 -75.5 5t-37.5 25q-10 -6 -24 -33l-4 -9h-116l-50 60l-20 37l-54 -97h-117
q-20 35 -31 42q-17 -21 -37.5 -25.5t-70.5 -4.5l-50 60v71q37 7 37 59q0 24 -7 45l-26 5l-50 60v72h23l-42 187h-28l-50 60v141h278l50 -60v-141zM514 286q-19 -25 -47 -44q-27 18 -48 44h-39v-20q7 -5 13.5 -18.5t6.5 -32t-25.5 -58t-39.5 -47.5q-13 9 -38 48t-25 67t20 41
v20h-40q-17 -22 -45 -44q-27 47 -79 47v-25q37 -5 61 -47.5t24 -85.5q0 -68 -40 -76v-30q47 0 68 19q11 9 21 25q24 -27 45 -56h80l67 115h28l61 -115h81l42 56q20 -32 46 -39q22 -5 46 -5v30q-41 8 -41 76q0 43 24.5 85.5t62.5 47.5v25q-52 0 -82 -47q-24 18 -46 44h-38
v-20q21 -14 21 -42t-25 -67t-39 -47q-13 8 -38 47.5t-25 68.5t19 40v20h-37zM210 280q10 8 29 32h15l-55 275h56v85h-222v-85h60l62 -277q35 -5 55 -30zM896 587v85h-222v-85h56l-56 -275h14q20 -26 32 -32q20 26 53 30l63 277h60zM467 276q10 6 36 36h22l-45 197h-28
l-43 -197h24q24 -30 34 -36z" />
    <glyph glyph-name="x" unicode="x" horiz-adv-x="828" 
d="M54 700h306l48 -58v58h305l50 -60v-141h-68l-115 -210l6 -10q22 33 106 33l50 -60l12 -72q-54 0 -54 -48q0 -29 7 -29q17 0 19 10l32 -19l50 -60q0 -48 -23.5 -71t-60 -23t-83.5 25q-37 -25 -72 -25q-55 0 -103.5 49t-65.5 105l24 19q8 -10 23 -10q33 0 33 39l-3 23
q-19 10 -46.5 10t-52.5 -16t-34 -46l24 -19l50 -60q-14 -47 -46.5 -70.5t-69 -23.5t-76.5 25q-45 -25 -83 -25q-52 0 -91.5 50t-39.5 104l31 19q2 -10 19.5 -10t34 24t20.5 53l-53 60l12 72q85 0 108 -34q13 6 26 23l28 49l-83 149h-51l-50 60v141zM685 587v85h-250v-85h64
l-102 -186h-25l-104 186h64v85h-250v-85h59l131 -238l-30 -54q7 -14 13 -17q38 38 128.5 38t126.5 -38q6 4 15 17l-29 54l129 238h60zM588 61q44 -34 84.5 -34t53.5 52q-5 -4 -14 -4q-38 0 -64.5 37.5t-26.5 71.5q0 71 55 79l-4 24q-19 0 -28.5 -1.5t-22.5 -12t-22 -32.5
q-23 4 -52 34q-7 -13 -16.5 -21.5t-21.5 -12.5q-39 48 -126 48t-124 -48q-23 4 -39 34q-24 -26 -50 -34q-9 22 -22.5 32.5t-23.5 12t-28 1.5l-4 -24q28 -4 41.5 -23.5t13.5 -54.5t-26.5 -72.5t-63.5 -37.5l-14 4q13 -52 52.5 -52t84.5 34h6q34 -34 68 -34q45 0 78 52
q-8 -4 -18 -4q-56 0 -56 58t38 91.5t88 33.5t88 -33.5t38 -91.5t-56 -58l-19 4q32 -52 79 -52q35 0 68 34h6zM410 499h-44l28 -56l42 83l-26 30v-57z" />
    <glyph glyph-name="y" unicode="y" horiz-adv-x="689" 
d="M169 312h29l-99 187h-49l-50 60v141h296l48 -58v58h295l50 -60v-141h-68l-119 -224l19 -23v-73q-39 0 -50.5 -14t-11.5 -45v-15q7 0 12 8l28 -18l50 -60q-6 -47 -34 -71t-67.5 -24t-77.5 27q-38 -27 -78.5 -27t-92.5 48t-58 107l28 18q4 -9 19 -9q43 0 43 75h-12l-50 60
v73zM283 279q10 6 24 24h26q13 -18 24 -24q17 24 50 30l144 278h60v85h-239v-85h61l-95 -206h-36l-96 206h62v85h-240v-85h60l143 -278q34 -6 52 -30zM323 61q36 -31 79.5 -31t63.5 50q-7 -4 -16 -4q-70 0 -70 103q0 84 66 84v25q-19 0 -29 -1.5t-25 -12.5t-27 -33
q-24 5 -45 35q-21 -27 -45 -35q-13 22 -28 33t-25 12.5t-28 1.5v-25q66 0 66 -84q0 -76 -32 -95q-15 -8 -38 -8l-16 4q20 -50 63.5 -50t79.5 31h6zM346 499h-43l29 -68l40 94l-26 31v-57z" />
    <glyph glyph-name="z" unicode="z" horiz-adv-x="707" 
d="M212 499v-103h-116l-50 60v244h540l50 -60v-141h-67l-133 -233l12 -14v-72q-17 -1 -27 -2.5t-20.5 -11t-10.5 -26.5v-6q13 -5 39.5 -5t49.5 16.5t23 46.5q0 14 -4 29v31h115l50 -60v-181q0 -33 18 -45l-18 -26q-27 0 -54.5 12.5t-42.5 27.5q-55 -40 -128.5 -40t-123.5 36
q-44 -36 -108.5 -36t-118.5 48.5t-54 105.5l32 19q2 -10 21 -10t35.5 24t17.5 53l-50 60l11 72q61 0 82 -10l105 197h-75zM208 278q14 7 30 25h25q11 -20 24 -25q23 30 60 33l153 276h57v85h-483v-188h60v103h233l-162 -304zM526 224l5 -37q0 -40 -31 -63t-76 -23t-77.5 25
t-32.5 79q0 28 17.5 43t39.5 15v24q-17 0 -26 -1.5t-23.5 -12.5t-25.5 -32q-34 8 -50 34q-24 -26 -53 -34q-8 21 -21 32t-22.5 12.5t-27.5 1.5l-5 -24q56 -9 56 -71q0 -43 -27 -80t-66 -37l-15 4q4 -21 32.5 -36.5t57.5 -15.5q59 0 107 48l8 -7q47 -41 115 -41t131 48
q8 -9 34.5 -25.5t42.5 -18.5q-8 8 -8 51v142h-59z" />
    <glyph glyph-name="braceleft" unicode="{" horiz-adv-x="342" 
d="M67 184l6 58q0 72 -54 100v20q54 28 54 100l-6 62q0 60 47.5 103.5t123.5 81.5l84 -99q-4 -4 -22.5 -21.5t-23.5 -23t-17.5 -20.5t-16.5 -25q-14 -30 -14 -56l8 -82q0 -59 -32 -90q32 -31 32 -90l-8 -82q0 -44 30 -81q19 -22 39.5 -41.5t24.5 -23.5l-34 -39
q-86 41 -153.5 111t-67.5 138zM95 520l5 -53q0 -39 -13.5 -71.5t-37.5 -43.5q24 -11 37.5 -43.5t13.5 -71.5l-5 -53q0 -31 15.5 -59t39.5 -47q42 -34 81 -50l5 6q-86 68 -86 146q0 17 4.5 43.5t4.5 38.5q0 53 -33 90q33 37 33 90l-9 82q0 78 86 146l-5 6q-39 -16 -72 -43
q-64 -51 -64 -113z" />
    <glyph glyph-name="bar" unicode="|" horiz-adv-x="425" 
d="M326 -60h-160l-50 60v728h160l50 -60v-728zM146 27h100v674h-100v-674z" />
    <glyph glyph-name="braceright" unicode="}" horiz-adv-x="378" 
d="M224 184l-5 53q0 39 13.5 71.5t37.5 43.5q-24 11 -37.5 43.5t-13.5 71.5l5 53q0 31 -15.5 59t-40.5 47q-41 34 -80 50l-5 -6q86 -68 86 -146q0 -17 -4.5 -43.5t-4.5 -38.5q0 -53 33 -90q-33 -37 -33 -90l9 -82q0 -78 -86 -146l5 -6q39 16 72 43q64 51 64 113zM302 467
l-6 -56q0 -35 13 -58l41 -41v-20q-54 -28 -54 -100l6 -62q0 -60 -47.5 -103.5t-123.5 -81.5l-50 50l-34 39q4 4 22.5 21.5t23.5 23t17.5 20.5t17.5 25q13 30 13 56l-8 82q0 59 32 90q-32 31 -32 90l8 82q0 44 -31 81q-18 22 -38.5 41.5t-24.5 23.5l34 39q77 -39 149 -107.5
t72 -134.5z" />
    <glyph glyph-name="asciitilde" unicode="~" horiz-adv-x="468" 
d="M55 269q43 28 67 28t63 -22t74.5 -22t86.5 29v89q-51 -30 -85 -30t-71 22t-67.5 22t-67.5 -28v-88zM421 209q-63 -44 -105 -44t-81 22t-57 22t-42.5 -11t-39.5 -22l-16 -11l-50 70v134q53 44 99 44q24 0 61 -22t62 -22q43 0 100 33l19 11l50 -60v-144z" />
    <glyph glyph-name="exclamdown" unicode="&#xa1;" horiz-adv-x="403" 
d="M41 104q30 0 40 62t23 311h61q-31 17 -53.5 48.5t-22.5 56.5v72q0 29 26 43.5t57 14.5q48 0 85.5 -35.5t37.5 -82.5v-72q0 -38 -47 -53l44 -52q12 -240 23 -291l4 -19q3 2 5 6l28 -8l50 -70q-6 -47 -34 -71t-67.5 -24t-77.5 27q-38 -27 -82.5 -27t-90 41.5t-56.5 113.5
l28 18q4 -9 19 -9zM27 80q20 -50 63.5 -50t79.5 31h6q36 -31 79.5 -31t63.5 50q-7 -4 -23 -4t-29 13.5t-23.5 59t-16 110.5t-13.5 191h-83l-2 -34q-13 -225 -26 -282.5t-60 -57.5zM172 551q56 0 56 45v44q0 45 -56 45t-56 -45v-44q0 -45 56 -45z" />
    <glyph glyph-name="cent" unicode="&#xa2;" horiz-adv-x="737" 
d="M484 278q11 7 24 25h26q13 -19 24 -25q17 22 41 28t73 6l50 -60v-72q-34 0 -47.5 -13t-13.5 -49q0 -87 -55.5 -130.5t-153.5 -56.5v-91h-130l-50 60v42q-90 22 -145.5 78t-55.5 148v12h-11l-50 60v72q43 0 61 -3v222q0 82 56.5 124.5t144.5 52.5v92h130l50 -60v-40
q94 -21 151 -78t57 -151v-101h-194l-50 60v72l-1 16q-9 3 -26 3q-74 0 -74 -79v-134l47 -56v-72q-59 -2 -59 -40v-8q16 -5 38 -5q74 0 86 53h-7l-50 60v72q34 0 50 -1q39 -3 64 -33zM381 681l-9 1v91h-70v-92q-88 -7 -145.5 -43.5t-57.5 -108.5v-230q13 -7 25 -21
q10 8 24 25h26q12 -19 24 -25q15 19 39 27v198q0 52 27 80t76 28t77 -27.5t28 -80.5v-45h137v71q0 72 -57 108.5t-144 43.5zM302 -73h70v89q89 5 149.5 42t60.5 111v9q0 85 65 85v24q-41 0 -61 -20q-10 -10 -20 -26q-21 4 -44 34q-18 -26 -45 -34q-13 21 -28.5 32t-25 12.5
t-26.5 1.5v-24q31 0 45 -20t14 -38q0 -106 -115 -106t-115 106q0 19 14 38.5t45 19.5v24q-18 0 -27.5 -1.5t-24.5 -12t-28 -32.5q-24 4 -45 34q-20 -26 -44 -34q-13 21 -28 32t-25 12.5t-28 1.5v-24q65 0 65 -85v-9q0 -49 30 -83q55 -60 172 -69v-90z" />
    <glyph glyph-name="sterling" unicode="&#xa3;" horiz-adv-x="663" 
d="M8 440h82q-15 57 -15 92q0 84 64 132t151 48q48 0 86.5 -15t53.5 -29l14 -15v47h124l50 -60v-224h-118l-50 60l-13 44q-16 9 -40 9t-40.5 -16t-17.5 -43l1 -30h61l50 -60v-114h-34l12 -14v-72q-17 -1 -27 -2.5t-20.5 -11t-10.5 -26.5v-6q16 -5 41 -5t48 16.5t23 46.5
q0 14 -4 29v31h115l50 -60v-181q0 -33 18 -45l-18 -26q-27 0 -54.5 12.5t-42.5 27.5q-55 -40 -128.5 -40t-123.5 36q-44 -36 -107.5 -36t-118.5 51.5t-55 102.5l32 19q2 -10 21 -10t35.5 24t17.5 53l-50 60l4 26h-16l-50 60v114zM189 278q14 7 30 25h25q11 -20 24 -25
q10 13 21 20l-7 55h89v60h-99q-12 69 -12 106.5t20 67t69 29.5q95 0 122 -112h74v168h-76v-71h-4q-71 83 -174 83q-76 0 -131.5 -41t-55.5 -108q0 -30 24 -122h-90v-60h105l7 -46q24 -6 39 -29zM507 224l5 -37q0 -40 -31 -63t-76 -23t-77.5 25t-32.5 79q0 28 17.5 43
t39.5 15v24q-17 0 -26 -1.5t-23.5 -12.5t-25.5 -32l-12 4q-30 15 -38 30q-24 -26 -53 -34q-8 21 -21 32t-22.5 12.5t-27.5 1.5l-5 -24q56 -9 56 -71q0 -43 -27 -80t-66 -37l-15 4q4 -21 32.5 -36.5t57.5 -15.5q59 0 107 48l8 -7q47 -41 115 -41t131 48q8 -9 34.5 -25.5
t42.5 -18.5q-8 8 -8 51v142h-59z" />
    <glyph glyph-name="currency" unicode="&#xa4;" horiz-adv-x="645" 
d="M371 251.5q-31 -28.5 -80 -28.5t-79 28t-30 80v38q0 51 31 79.5t80 28.5t79 -28t30 -80v-38q0 -51 -31 -79.5zM261 308v-36l1 -15q11 -4 39 -4t50 20.5t22 58.5v36q0 12 -1 15q-11 4 -39 4t-50 -20.5t-22 -58.5zM619 337v-94q0 -90 -75 -135l62 -168h-153l-50 60l-23 63
q-13 -1 -41.5 -1t-62.5 3l-45 -125h-153l-50 60l56 155q-69 69 -69 145v97q0 90 75 135l-62 168h153l50 -60l23 -63q10 1 40 1t64 -3l45 125h153l50 -60l-55 -151q68 -65 68 -152zM540 395q0 80 -79 120l58 158h-99l-47 -130q-41 6 -85.5 6t-76.5 -6l-47 130h-99l58 -158
q-79 -41 -79 -120v-90q0 -80 79 -120l-58 -158h99l47 130q41 -6 85.5 -6t76.5 6l47 -130h99l-58 158q79 41 79 120v90z" />
    <glyph glyph-name="yen" unicode="&#xa5;" horiz-adv-x="720" 
d="M613 149h-76q-38 0 -50 -12t-12 -32q7 0 12 8l28 -18l50 -60q-6 -47 -34 -71t-67.5 -24t-77.5 27q-38 -27 -78.5 -27t-92.5 48t-58 107l28 18q4 -9 19.5 -9t25.5 11q17 17 17 34h-88l-50 60v182h63l-57 108h-49l-50 60v141h296l48 -58v58h295l50 -60v-141h-68l-64 -120
l40 -48v-182zM627 587v85h-239v-85h61l-95 -206h-36l-96 206h62v85h-240v-85h60l113 -220h-80v-55h398v55h-81l113 220h60zM137 233h73q66 0 66 -84q0 -34 -19 -53.5t-51 -19.5l-16 4q20 -50 63.5 -50t79.5 31h6q36 -31 79.5 -31t63.5 50q-7 -4 -16 -4q-28 0 -49 20t-21 55
t15.5 58.5t49.5 23.5h74v55h-73q-19 0 -29 -1.5t-25 -12.5t-27 -33q-24 5 -45 35q-21 -27 -45 -35q-27 47 -69 47h-85v-55zM362 499h-43l29 -68l40 94l-26 31v-57z" />
    <glyph glyph-name="brokenbar" unicode="&#xa6;" horiz-adv-x="414" 
d="M318 -60h-160l-50 60v308h160l50 -60v-308zM138 27h100v254h-100v-254zM318 360h-160l-50 60v308h160l50 -60v-308zM138 447h100v254h-100v-254z" />
    <glyph glyph-name="section" unicode="&#xa7;" horiz-adv-x="628" 
d="M595 179q-35 0 -44 -10q36 -36 36 -86q0 -80 -65.5 -117.5t-158.5 -37.5q-48 0 -86 14.5t-52 29.5l-14 14v-46h-124l-50 60v224h99q-93 53 -93 142q0 57 42 82q-30 21 -45 45.5t-15 63.5q0 80 65.5 117.5t158.5 37.5q48 0 86 -14.5t52 -29.5l14 -14v46h124l50 -60v-224
h-102q88 -55 95 -132l27 -32v-73zM395.5 346q9.5 -9 9.5 -19.5t-6 -22.5q8 -9 34 -25l9 10q18 16 47 21q1 5 1 16q0 38 -28 62.5t-68 35.5l-80 22q-95 27 -95 85q0 25 11 46q23 42 76 42q88 0 125 -115h71v168h-76v-70h-6q-65 81 -170 81q-83 0 -139 -30.5t-56 -94.5
q0 -41 18.5 -62.5t60.5 -43.5q-1 -1 -9 -5.5t-13.5 -8t-13.5 -10.5t-13 -14q-13 -20 -13 -47.5t24 -50.5t52.5 -32.5t73 -22t66.5 -22.5v16q48 4 65 26q-28 11 -61.5 21.5t-53.5 17t-38 14.5q-36 15 -36 39q0 23 13.5 33.5t29.5 13.5q41 -16 90 -32t69 -24.5t29.5 -17.5z
M520 286q-31 0 -48 -9.5t-31 -34.5q-42 26 -57 40q-4 -15 -23.5 -30t-45.5 -19v-30h25q2 -16 2 -23q0 -40 -21.5 -69.5t-64.5 -29.5q-88 0 -125 115h-71v-168h76v70h6q65 -81 170 -81q83 0 139 30.5t56 91.5t-44 86q15 37 57 37v24zM356 531q-23 0 -38 -14t-17 -36
q30 -11 66 -20t78 -30l-37 45q0 10 -14 46q-15 9 -38 9zM256 109q43 0 53 42l-10 12q-80 21 -131 44l36 -43q0 -14 14 -46q17 -9 38 -9z" />
    <glyph glyph-name="dieresis" unicode="&#xa8;" horiz-adv-x="455" 
d="M216 625v-42q0 -29 -26 -43.5t-57 -14.5q-45 0 -84 41.5t-39 76.5v42q0 29 26 43.5t57 14.5q48 0 85.5 -35.5t37.5 -82.5zM93 612q56 0 56 45v14q0 45 -56 45t-56 -45v-14q0 -45 56 -45zM442 625v-42q0 -29 -26 -43.5t-57 -14.5q-45 0 -84 41.5t-39 76.5v42q0 29 26 43.5
t57 14.5q48 0 85.5 -35.5t37.5 -82.5zM319 612q56 0 56 45v14q0 45 -56 45t-56 -45v-14q0 -45 56 -45z" />
    <glyph glyph-name="copyright" unicode="&#xa9;" horiz-adv-x="365" 
d="M78.5 427.5q-60.5 66.5 -60.5 133t42 109t108.5 42.5t128.5 -64t62 -142q0 -61 -42.5 -103t-110 -42t-128 66.5zM94.5 633.5q28.5 27.5 68 27.5t67 -27.5t27.5 -67t-27.5 -66.5t-67 -27t-68 27t-28.5 66.5t28.5 67zM78.5 650.5q-34.5 -35.5 -34.5 -84.5t34.5 -84t84 -35
t85 35t35.5 84t-35.5 84.5t-85 35.5t-84 -35.5zM209 536q0 11 10 11v12q-15 0 -20 -6q-1 1 -4 5h-4l-4 -5q-5 6 -20 6v-12q10 0 10 -8q0 -11 -15 -11t-15 11q0 8 10 8v12h-8v33q0 13 13 13t13 -13v-12h34v17q0 31 -47 31t-47 -31v-39q-3 1 -10 1v-12q10 0 10 -11
q0 -33 47 -33t47 33z" />
    <glyph glyph-name="ordfeminine" unicode="&#xaa;" horiz-adv-x="446" 
d="M98 692h245l25 -30v-70h-26l19 -94h14l25 -30l6 -36q-27 0 -27 -24q0 -15 3 -15q8 0 10 5l16 -9l25 -30q0 -24 -12 -35.5t-30 -11.5t-42 12q-19 -12 -41 -12t-46.5 24.5t-32.5 52.5l12 9q5 -5 11 -5q17 0 17 20l-2 11q-9 5 -21 5q-36 0 -45 -31l12 -9l25 -30
q-14 -47 -60 -47q-15 0 -36 12q-24 -12 -46 -12t-41.5 25t-19.5 52l15 9q2 -5 10.5 -5t16.5 12t10 27l-26 30l6 36q19 0 32 -3l20 102l-21 25v70zM329 637v41h-217v-41h29l-29 -148q2 -1 9 -8l14 12h13q4 -9 8 -12q19 19 64.5 19t63.5 -19l10 12h13q8 -9 14 -12q3 5 8 8
l-28 148h28zM320 372q25 -17 45 -17t27 26q-3 -2 -7 -2q-19 0 -32.5 18.5t-13.5 45t28 30.5l-2 12q-27 0 -37 -23q-11 2 -26 17q-5 -12 -19 -17q-19 24 -62.5 24t-62.5 -24q-11 2 -19 17q-11 -13 -25 -17q-10 23 -37 23l-2 -12q27 -4 27 -35q0 -21 -13 -40t-32 -19l-7 2
q7 -26 28 -26q17 0 44 17q17 -17 36.5 -17t36.5 26q-4 -2 -9 -2q-28 0 -28 29t19 46t44 17t44 -17t19 -46t-28 -29l-10 2q17 -26 37 -26t37 17zM175 512l27 125h37l28 -125h-92zM237 584l-13 -59h26z" />
    <glyph glyph-name="guillemotleft" unicode="&#xab;" horiz-adv-x="655" 
d="M320 225l-39 47q-10 -10 -19 -16q2 -2 22.5 -26.5t31.5 -39.5q33 -45 63 -123l-97 -51l-50 60q-60 127 -127 149l-50 60v54q42 17 84 65q65 75 93 144l97 -51l50 -60l-2 -5q49 63 70 116l97 -51l50 -60q-12 -37 -45 -95.5t-72 -85.5q2 -2 22.5 -26.5t31.5 -39.5
q33 -45 63 -123l-97 -51l-50 60q-60 127 -127 149zM382 312q86 65 127 172l-49 26q-9 -34 -57 -95.5t-103 -92.5v-20q55 -31 103 -92.5t57 -95.5l49 26q-41 107 -127 172zM167 312q86 65 127 172l-49 26q-9 -34 -57 -95.5t-103 -92.5v-20q55 -31 103 -92.5t57 -95.5l49 26
q-41 107 -127 172z" />
    <glyph glyph-name="logicalnot" unicode="&#xac;" horiz-adv-x="566" 
d="M27 444h463l50 -60v-278h-140l-50 60v74h-273l-50 60v144zM57 327h323v-134h80v224h-403v-90z" />
    <glyph glyph-name="registered" unicode="&#xae;" horiz-adv-x="366" 
d="M70.5 427.5q-60.5 66.5 -60.5 133t42 109t108.5 42.5t128.5 -64t62 -142q0 -61 -42.5 -103t-110 -42t-128 66.5zM86.5 633.5q28.5 27.5 68 27.5t67 -27.5t27.5 -67t-27.5 -66.5t-67 -27t-68 27t-28.5 66.5t28.5 67zM70.5 650.5q-34.5 -35.5 -34.5 -84.5t34.5 -84t84 -35
t85 35t35.5 84t-35.5 84.5t-85 35.5t-84 -35.5zM168 538v-5q0 -26 21 -26t24 17l-5 3q0 -1 -3 -1q-7 0 -7 12.5t-7 18.5q14 10 14 33q0 37 -41 37h-61v-24h13v-43q-3 1 -10 1v-13q10 0 10 -11t-5 -11t-5 1l-5 -3q3 -17 18 -17q5 0 12 5q8 -5 15 -5q14 0 16 17l-4 3
q-1 -1 -4 -1q-7 0 -7 11t10.5 11t10.5 -10zM153 603q21 0 21 -14q0 -19 -21 -19h-5v33h5z" />
    <glyph glyph-name="macron" unicode="&#xaf;" horiz-adv-x="487" 
d="M440 540h-363l-50 60v143h363l50 -60v-143zM57 627h303v89h-303v-89z" />
    <glyph glyph-name="degree" unicode="&#xb0;" horiz-adv-x="379" 
d="M82.5 427.5q-60.5 66.5 -60.5 133t42 109t108.5 42.5t128.5 -64t62 -142q0 -61 -42.5 -103t-110 -42t-128 66.5zM102 566q0 27 19.5 46t47 19t46 -18.5t18.5 -46t-18.5 -46t-46 -18.5t-47 18.5t-19.5 45.5zM82.5 650.5q-34.5 -35.5 -34.5 -84.5t34.5 -84t84 -35t85 35
t35.5 84t-35.5 84.5t-85 35.5t-84 -35.5zM195.5 539q11.5 11 11.5 31q-16 -2 -30 -13.5t-21 -26.5q8 -2 18 -2t21.5 11z" />
    <glyph glyph-name="plusminus" unicode="&#xb1;" horiz-adv-x="594" 
d="M512 43h-363l-50 60v144h136l-27 33v50h-59l-50 60v144h109v109h144l50 -60v-49h60l50 -60v-144h-110v-83h60l50 -60v-144zM129 417h106v-107h90v107h107v90h-107v106h-90v-106h-106v-90zM129 130h303v90h-303v-90z" />
    <glyph glyph-name="twosuperior" unicode="&#xb2;" horiz-adv-x="687" 
d="M610 472q0 -36 -22.5 -70t-79.5 -89.5t-70 -70.5v-62q-17 -1 -27 -2.5t-20.5 -11t-10.5 -26.5v-6q16 -5 41 -5t48 16.5t23 46.5q0 14 -4 29v31h115l50 -60v-181q0 -33 18 -45l-18 -26q-27 0 -54.5 12.5t-42.5 27.5q-55 -40 -128.5 -40t-123.5 36q-44 -36 -107.5 -36
t-118.5 51.5t-55 102.5l32 19q2 -10 21 -10t35.5 24t17.5 53l-50 60l11 72q53 0 72 -6q24 31 74 75.5t80 79.5t30 67q-4 1 -10 1q-38 0 -63 -28.5t-31 -56.5l-7 -28h-118l-50 60v224h124l22 -27q53 39 125 39t132 -28.5t100 -84.5t40 -127zM198 278q14 7 30 25h25
q11 -20 24 -25q25 32 81 34q19 21 71.5 69.5t77 82.5t24.5 71q0 67 -55.5 108t-131.5 41q-103 0 -174 -83h-4v71h-76v-168h74q27 112 122 112q49 0 69 -29.5t20 -59.5t-21 -62t-48 -56q-88 -78 -119 -117zM516 224l5 -37q0 -40 -31 -63t-76 -23t-77.5 25t-32.5 79
q0 28 17.5 43t39.5 15v24q-16 0 -26 -2t-24 -12.5t-25 -31.5q-41 17 -50 34q-24 -26 -53 -34q-8 21 -21 32t-22.5 12.5t-27.5 1.5l-5 -24q56 -9 56 -71q0 -43 -27 -80t-66 -37l-15 4q4 -21 32.5 -36.5t57.5 -15.5q59 0 107 48l8 -7q47 -41 115 -41t131 48q8 -9 34.5 -25.5
t42.5 -18.5q-8 8 -8 51v142h-59z" />
    <glyph glyph-name="threesuperior" unicode="&#xb3;" horiz-adv-x="673" 
d="M587 472q0 -57 -58 -105q27 -24 50 -56q12 1 42 1l50 -60v-73q-38 0 -49.5 -14.5t-11.5 -43.5v-10q-2 -61 -40 -104q-68 -79 -195 -79q-99 0 -170 66q-21 -21 -55 -37.5t-62 -16.5l-50 60l-17 26q17 11 17 45v182h116l50 -60v-31l3 -28q20 -10 55 -10q69 0 79 55h-9
l-50 60v49h-24l-50 60v68h-111l-50 60v224h124l24 -28q59 40 137 40q100 0 177.5 -67t77.5 -173zM395 279q10 6 24 24h16l16 -18l17 18h17q14 -18 24 -24l9 10q6 5 13 10q-7 37 -41.5 66t-77.5 34v15q38 18 67 50.5t29 70.5q0 68 -50.5 108.5t-125.5 40.5q-115 0 -181 -83
h-5v71h-76v-168h72q31 112 120 112q50 0 72.5 -30t22.5 -60.5t-13.5 -53t-33.5 -33.5q-38 -20 -75 -20v-45h4q99 0 127 -73q19 -9 29 -22zM307 286v-24q33 0 48.5 -21.5t15.5 -42.5v-7q0 -38 -28 -67t-82.5 -29t-92 32t-42.5 98h-59v-143q0 -44 -10 -51q18 2 50.5 22.5
t43.5 35.5q50 -41 85.5 -58t88.5 -17q82 0 142.5 38.5t63.5 113.5v13q0 83 65 83v24q-43 0 -63 -23q-8 -10 -15 -22q-24 6 -46 30l-21 -21l-20 21q-20 -22 -45 -30q-12 18 -17 23q-20 22 -62 22zM312 529q-66 0 -92 -87q109 6 109 84z" />
    <glyph glyph-name="acute" unicode="&#xb4;" horiz-adv-x="256" 
d="M186 523h-118l-55 60l65 160h118l50 -60zM54 608h61l45 110h-62z" />
    <glyph glyph-name="paragraph" unicode="&#xb6;" horiz-adv-x="817" 
d="M714 499v-187h19l50 -50v-73q-39 0 -50.5 -14t-11.5 -45l1 -25q10 4 11 8l28 -18l50 -50q-6 -47 -34 -71t-67.5 -24t-77.5 27q-15 -11 -24 -15q-21 -12 -80 -12l-50 60v173q-16 -3 -19.5 -13t-3.5 -36v-184q-59 0 -81 12q-8 4 -23 15q-38 -27 -83 -27t-92 47t-54 98
l28 18q4 -9 19 -9q43 0 43 76v9h-12l-40 39q-149 67 -149 257q0 97 56.5 156t176.5 59h480l50 -60v-141h-60zM264 279q11 6 24 33h87v275h133v-275h87q13 -27 24 -33l15 17v291h62v85h-445q-57 0 -98.5 -14.5t-62.5 -33.5t-32 -48q-17 -40 -17 -81t3.5 -65.5t13.5 -53.5
q23 -60 92 -82v18q35 0 50 -1q42 -3 64 -32zM585 61q36 -31 79.5 -31t63.5 50q-7 -4 -16 -4q-70 0 -70 103q0 84 66 84v25q-19 0 -29 -1.5t-25 -12.5t-27 -33q-24 14 -45 44h-102v-32q23 -11 26 -41q1 -12 1 -40v-142q36 0 72 31h6zM376 30v142q0 28 1 40q3 30 26 41v32
h-102q-17 -25 -45 -44q-12 22 -27 33t-25 12.5t-29 1.5v-25q66 0 66 -84q0 -103 -70 -103l-16 4q20 -50 63.5 -50t79.5 31h6q36 -31 72 -31zM478 499h-23v-187h23v187z" />
    <glyph glyph-name="periodcentered" unicode="&#xb7;" horiz-adv-x="297" 
d="M254 296v-72q0 -29 -26 -43.5t-57 -14.5q-45 0 -84 41.5t-39 76.5v72q0 29 26 43.5t57 14.5q48 0 85.5 -35.5t37.5 -82.5zM131 253q56 0 56 45v44q0 45 -56 45t-56 -45v-44q0 -45 56 -45z" />
    <glyph glyph-name="cedilla" unicode="&#xb8;" horiz-adv-x="254" 
d="M206 -67q33 -33 33 -70v-19q0 -143 -123 -143h-48l-50 60v73h10q18 0 30 6l-35 41v44q0 50 33 93l25 -2q-32 -29 -32 -91v-19h60v-25q0 -28 -17 -49.5t-49 -21.5v-25h13q77 0 96 53q10 25 10 65v6q0 25 -9 31t-35 6h-29q5 71 66 71l54 8l21 -19v-73h-24z" />
    <glyph glyph-name="onesuperior" unicode="&#xb9;" horiz-adv-x="442" 
d="M351 312h8l50 -60v-73q-39 0 -50.5 -14t-11.5 -45v-15q7 0 12 8l28 -18l50 -60q-6 -47 -34 -71t-67.5 -24t-77.5 27q-38 -27 -78.5 -27t-92.5 48t-58 107l28 18q4 -9 19 -9q43 0 43 75h-12l-50 60v73q41 0 58 -3v154h-39l-50 60v84q34 0 73 33t43 60h159l50 -60v-328z
M171 279q10 6 24 24h26q13 -18 24 -24q10 14 26 22v371h-109q-6 -29 -45.5 -57.5t-62.5 -28.5v-33h91v-252q14 -7 26 -22zM211 61q36 -31 79.5 -31t63.5 50q-7 -4 -16 -4q-70 0 -70 103q0 84 66 84v25q-19 0 -29 -1.5t-25 -12.5t-27 -33q-24 5 -45 35q-21 -27 -45 -35
q-13 22 -28 33t-25 12.5t-28 1.5v-25q66 0 66 -84q0 -76 -32 -95q-15 -8 -38 -8l-16 4q20 -50 63.5 -50t79.5 31h6z" />
    <glyph glyph-name="ordmasculine" unicode="&#xba;" horiz-adv-x="395" 
d="M348 402q0 -90 -146 -90q-65 0 -111 34t-46 86v5h-5l-25 30v37q22 0 31 -2v111q0 49 41 70t105.5 21t110 -33.5t45.5 -87.5v-79h5l25 -30v-37q-19 0 -24.5 -7t-5.5 -22v-6zM129 599q0 26 15.5 40t40 14t39.5 -14t15 -40v-98q9 -2 21 -14l12 12h12q7 -9 13 -12q5 7 11 10
v115q0 40 -36.5 58.5t-87 18.5t-87.5 -18.5t-37 -58.5v-114q8 -6 12 -11l12 12h13q6 -9 12 -12q6 9 20 14v98zM97 375q37 -18 87.5 -18t87 18t36.5 57v5q0 42 33 42v12q-27 0 -41 -23q-11 3 -22 17q-9 -13 -23 -17q-13 23 -40 23v-12q16 0 23.5 -10t7.5 -19q0 -27 -17.5 -42
t-44 -15t-44 15t-17.5 42q0 14 9.5 21.5t20.5 7.5v12q-27 0 -40 -23q-13 3 -23 17q-11 -13 -22 -17q-14 23 -40 23v-12q32 0 32 -42v-5q0 -39 37 -57zM169 569v-68l23 -27v-37q-30 0 -30 -19q0 -11 20 -11q41 0 45 30l-25 30v37q16 0 23 -1v96q0 9 -16 9q-40 0 -40 -39z" />
    <glyph glyph-name="guillemotright" unicode="&#xbb;" horiz-adv-x="729" 
d="M369 339l39 -47q8 9 19 16q-31 23 -70.5 90.5t-46.5 98.5l97 51l50 -60q8 -21 20.5 -45t42.5 -57t64 -47l50 -60v-54q-42 -17 -84 -65q-65 -75 -93 -144l-97 51l-50 60q0 1 2 5q-55 -71 -70 -116l-97 51l-50 60q12 37 45.5 96t71.5 85q-31 23 -70.5 90.5t-46.5 98.5
l97 51l50 -60q8 -21 20.5 -45t42.5 -57t64 -47zM257 312q-86 -65 -127 -172l49 -26q9 34 57 95.5t103 92.5v20q-55 31 -103 92.5t-57 95.5l-49 -26q41 -107 127 -172zM472 312q-86 -65 -127 -172l49 -26q9 34 57 95.5t103 92.5v20q-55 31 -103 92.5t-57 95.5l-49 -26
q41 -107 127 -172z" />
    <glyph glyph-name="onequarter" unicode="&#xbc;" horiz-adv-x="1464" 
d="M351 312h8l50 -60v-73q-39 0 -50.5 -14t-11.5 -45v-15q7 0 12 8l28 -18l50 -60q-6 -47 -34 -71t-67.5 -24t-77.5 27q-38 -27 -78.5 -27t-92.5 48t-58 107l28 18q4 -9 19 -9q43 0 43 75h-12l-50 60v73q41 0 58 -3v154h-39l-50 60v84q34 0 73 33t43 60h159l50 -60v-328z
M171 279q10 6 24 24h26q13 -18 24 -24q10 14 26 22v371h-109q-6 -29 -45.5 -57.5t-62.5 -28.5v-33h91v-252q14 -7 26 -22zM211 61q36 -31 79.5 -31t63.5 50q-7 -4 -16 -4q-70 0 -70 103q0 84 66 84v25q-19 0 -29 -1.5t-25 -12.5t-27 -33q-24 5 -45 35q-21 -27 -45 -35
q-13 22 -28 33t-25 12.5t-28 1.5v-25q66 0 66 -84q0 -76 -32 -95q-15 -8 -38 -8l-16 4q20 -50 63.5 -50t79.5 31h6zM685 -60h-163l-50 60l105 699h163l50 -60zM510 27h96l97 645h-97zM1381 499h-56v-187l50 -60v-72q-38 0 -49.5 -14.5t-11.5 -46.5v-15q6 2 11 9l76 -79
q-6 -47 -33 -70.5t-65 -23.5t-81 25q-40 -25 -83 -25t-90.5 51t-53.5 103l26 19q6 -10 25 -10t31 20h-220l-50 60v114l174 403h340l60 -60v-141zM1245 588h58v84h-306l-162 -375v-86h254v41q54 11 67 51h29q14 -19 25 -25q14 18 35 26v284zM1120 602v-305h-184v40l117 265
h67zM1176 61q37 -34 80 -34t63 52q-5 -4 -16 -4q-30 0 -46 16.5t-19.5 36t-3.5 50.5q0 85 65 85v24q-41 0 -61 -20q-9 -10 -19 -26q-25 4 -47 34q-9 -20 -19 -28t-33 -17v-52q0 -103 -77 -103l-15 4q20 -52 67 -52q37 0 74 34h7zM1092 325v128l-56 -128h56z" />
    <glyph glyph-name="onehalf" unicode="&#xbd;" horiz-adv-x="1516" 
d="M351 312h8l50 -60v-73q-39 0 -50.5 -14t-11.5 -45v-15q7 0 12 8l28 -18l50 -60q-6 -47 -34 -71t-67.5 -24t-77.5 27q-38 -27 -78.5 -27t-92.5 48t-58 107l28 18q4 -9 19 -9q43 0 43 75h-12l-50 60v73q41 0 58 -3v154h-39l-50 60v84q34 0 73 33t43 60h159l50 -60v-328z
M171 279q10 6 24 24h26q13 -18 24 -24q10 14 26 22v371h-109q-6 -29 -45.5 -57.5t-62.5 -28.5v-33h91v-252q14 -7 26 -22zM211 61q36 -31 79.5 -31t63.5 50q-7 -4 -16 -4q-70 0 -70 103q0 84 66 84v25q-19 0 -29 -1.5t-25 -12.5t-27 -33q-24 5 -45 35q-21 -27 -45 -35
q-13 22 -28 33t-25 12.5t-28 1.5v-25q66 0 66 -84q0 -76 -32 -95q-15 -8 -38 -8l-16 4q20 -50 63.5 -50t79.5 31h6zM685 -60h-163l-50 60l105 699h163l50 -60zM510 27h96l97 645h-97zM1399 472q0 -36 -22.5 -70t-79.5 -89.5t-70 -70.5v-62q-17 -1 -27 -2.5t-20.5 -11
t-10.5 -26.5v-6q16 -5 41 -5t48 16.5t23 46.5q0 14 -4 29v31h115l50 -60v-181q0 -33 18 -45l-18 -26q-27 0 -54.5 12.5t-42.5 27.5q-55 -40 -128.5 -40t-123.5 36q-44 -36 -107.5 -36t-118.5 51.5t-55 102.5l32 19q2 -10 21 -10t35.5 24t17.5 53l-50 60l11 72q53 0 72 -6
q24 31 74 75.5t80 79.5t30 67q-4 1 -10 1q-38 0 -63 -28.5t-32 -56.5l-6 -28h-118l-50 60v224h124l22 -27q53 39 125 39t132 -28.5t100 -84.5t40 -127zM987 278q14 7 30 25h25q11 -20 24 -25q25 32 81 34q19 21 71.5 69.5t77 82.5t24.5 71q0 67 -55.5 108t-131.5 41
q-103 0 -174 -83h-4v71h-76v-168h74q27 112 122 112q49 0 69 -29.5t20 -59.5t-21 -62t-48 -56q-88 -78 -119 -117zM1305 224l5 -37q0 -40 -31 -63t-76 -23t-77.5 25t-32.5 79q0 28 17.5 43t39.5 15v24q-16 0 -26 -2t-24 -12.5t-25 -31.5q-41 17 -50 34q-24 -26 -53 -34
q-8 21 -21 32t-22.5 12.5t-27.5 1.5l-5 -24q56 -9 56 -71q0 -43 -27 -80t-66 -37l-15 4q4 -21 32.5 -36.5t57.5 -15.5q59 0 107 48l8 -7q47 -41 115 -41t131 48q8 -9 34.5 -25.5t42.5 -18.5q-8 8 -8 51v142h-59z" />
    <glyph glyph-name="threequarters" unicode="&#xbe;" horiz-adv-x="1695" 
d="M587 472q0 -57 -58 -105q27 -24 50 -56q12 1 42 1l50 -60v-73q-38 0 -49.5 -14.5t-11.5 -43.5v-10q-2 -61 -40 -104q-68 -79 -195 -79q-99 0 -170 66q-21 -21 -55 -37.5t-62 -16.5l-50 60l-17 26q17 11 17 45v182h116l50 -60v-31l3 -28q20 -10 55 -10q69 0 79 55h-9
l-50 60v49h-24l-50 60v68h-111l-50 60v224h124l24 -28q59 40 137 40q100 0 177.5 -67t77.5 -173zM395 279q10 6 24 24h16l16 -18l17 18h17q14 -18 24 -24l9 10q6 5 13 10q-7 37 -41.5 66t-77.5 34v15q38 18 67 50.5t29 70.5q0 68 -50.5 108.5t-125.5 40.5q-115 0 -181 -83
h-5v71h-76v-168h72q31 112 120 112q50 0 72.5 -30t22.5 -60.5t-13.5 -53t-33.5 -33.5q-38 -20 -75 -20v-45h4q99 0 127 -73q19 -9 29 -22zM307 286v-24q33 0 48.5 -21.5t15.5 -42.5v-7q0 -38 -28 -67t-82.5 -29t-92 32t-42.5 98h-59v-143q0 -44 -10 -51q18 2 50.5 22.5
t43.5 35.5q50 -41 85.5 -58t88.5 -17q82 0 142.5 38.5t63.5 113.5v13q0 83 65 83v24q-43 0 -63 -23q-8 -10 -15 -22q-24 6 -46 30l-21 -21l-20 21q-20 -22 -45 -30q-12 18 -17 23q-20 22 -62 22zM312 529q-66 0 -92 -87q109 6 109 84zM896 -60h-163l-50 60l105 699h163
l50 -60zM721 27h96l97 645h-97zM1602 499h-56v-187l50 -60v-72q-38 0 -49.5 -14.5t-11.5 -46.5v-15q6 2 11 9l76 -79q-6 -47 -33 -70.5t-65 -23.5t-81 25q-40 -25 -83 -25t-90.5 51t-53.5 103l26 19q6 -10 25 -10t31 20h-220l-50 60v114l174 403h340l60 -60v-141zM1466 588
h58v84h-306l-162 -375v-86h254v41q54 11 67 51h29q14 -19 25 -25q14 18 35 26v284zM1341 602v-305h-184v40l117 265h67zM1397 61q37 -34 80 -34t63 52q-5 -4 -16 -4q-30 0 -46 16.5t-19.5 36t-3.5 50.5q0 85 65 85v24q-42 0 -60 -20q-10 -10 -20 -26q-25 4 -47 34
q-9 -20 -19 -28t-33 -17v-52q0 -103 -77 -103l-15 4q20 -52 67 -52q37 0 74 34h7zM1313 325v128l-56 -128h56z" />
    <glyph glyph-name="questiondown" unicode="&#xbf;" horiz-adv-x="573" 
d="M434 -1q-59 -59 -148.5 -59t-180 77.5t-90.5 162.5q0 50 23 89.5t55.5 63.5t65.5 43t56 37t23 37v25h80q-33 16 -56 48.5t-23 58.5v72q0 29 26 43.5t57 14.5q48 0 85.5 -35.5t37.5 -82.5v-72q0 -35 -39 -50l48 -57v-25q0 -73 -62 -130q-26 -24 -52 -46q-61 -51 -61 -90
q3 -1 10 -1q38 0 63 28.5t32 56.5l6 28h118l50 -60v-224h-124v47zM220 125.5q-20 29.5 -20 57.5t18.5 53.5t44.5 48.5t52 47q63 60 63 118h-113q0 -47 -79 -90q-32 -17 -64 -37.5t-55 -57.5t-23 -88q0 -67 55.5 -108t131.5 -41q103 0 174 83h4v-71h76v168h-74
q-27 -112 -122 -112q-49 0 -69 29.5zM322 551q56 0 56 45v44q0 45 -56 45t-56 -45v-44q0 -45 56 -45z" />
    <glyph glyph-name="Agrave" unicode="&#xc0;" horiz-adv-x="806" 
d="M133 700h490l50 -60v-139h-52l37 -190q9 1 28 1l50 -60l12 -72q-54 0 -54 -48q0 -29 7 -29q17 0 19 10l32 -19l50 -60q0 -48 -23.5 -71t-60 -23t-83.5 25q-37 -25 -72 -25q-55 0 -103.5 49t-65.5 105l24 19q8 -10 23 -10q33 0 33 39l-3 23q-19 10 -46.5 10t-52.5 -16
t-34 -46l24 -19l50 -60q-14 -47 -46.5 -70.5t-69 -23.5t-76.5 25q-45 -25 -83 -25q-52 0 -91.5 50t-39.5 104l31 19q2 -10 19.5 -10t34 24t20.5 53l-53 60l12 72q43 0 65 -6l40 204l-42 51v139zM504 278q9 7 20 25h26q16 -19 29 -25q4 7 16 17l-57 295h57v82h-434v-82h57
l-58 -295q12 -9 18 -17q12 7 28 25h26q8 -19 17 -25q38 38 128.5 38t126.5 -38zM582 61q44 -34 84.5 -34t53.5 52q-5 -4 -14 -4q-38 0 -64.5 37.5t-26.5 71.5q0 71 55 79l-4 24q-19 0 -28.5 -1.5t-22.5 -12t-22 -32.5q-23 4 -52 34q-7 -13 -16.5 -21.5t-21.5 -12.5
q-39 48 -126 48t-124 -48q-23 4 -39 34q-24 -26 -50 -34q-9 22 -22.5 32.5t-23.5 12t-28 1.5l-4 -24q28 -4 41.5 -23.5t13.5 -54.5t-26.5 -72.5t-63.5 -37.5l-14 4q13 -52 52.5 -52t84.5 34h6q34 -34 68 -34q45 0 78 52q-8 -4 -18 -4q-56 0 -56 58t38 91.5t88 33.5t88 -33.5
t38 -91.5t-56 -58l-19 4q32 -52 79 -52q35 0 68 34h6zM287 340l54 250h74l56 -250h-184zM410 485l-26 -119h53zM501 723h-86l-50 60l-60 160h136l50 -60zM386 809h36l-10 109h-68z" />
    <glyph glyph-name="Aacute" unicode="&#xc1;" horiz-adv-x="806" 
d="M133 700h490l50 -60v-139h-52l37 -190q9 1 28 1l50 -60l12 -72q-54 0 -54 -48q0 -29 7 -29q17 0 19 10l32 -19l50 -60q0 -48 -23.5 -71t-60 -23t-83.5 25q-37 -25 -72 -25q-55 0 -103.5 49t-65.5 105l24 19q8 -10 23 -10q33 0 33 39l-3 23q-19 10 -46.5 10t-52.5 -16
t-34 -46l24 -19l50 -60q-14 -47 -46.5 -70.5t-69 -23.5t-76.5 25q-45 -25 -83 -25q-52 0 -91.5 50t-39.5 104l31 19q2 -10 19.5 -10t34 24t20.5 53l-53 60l12 72q43 0 65 -6l40 204l-42 51v139zM504 278q9 7 20 25h26q16 -19 29 -25q4 7 16 17l-57 295h57v82h-434v-82h57
l-58 -295q12 -9 18 -17q12 7 28 25h26q8 -19 17 -25q38 38 128.5 38t126.5 -38zM582 61q44 -34 84.5 -34t53.5 52q-5 -4 -14 -4q-38 0 -64.5 37.5t-26.5 71.5q0 71 55 79l-4 24q-19 0 -28.5 -1.5t-22.5 -12t-22 -32.5q-23 4 -52 34q-7 -13 -16.5 -21.5t-21.5 -12.5
q-39 48 -126 48t-124 -48q-23 4 -39 34q-24 -26 -50 -34q-9 22 -22.5 32.5t-23.5 12t-28 1.5l-4 -24q28 -4 41.5 -23.5t13.5 -54.5t-26.5 -72.5t-63.5 -37.5l-14 4q13 -52 52.5 -52t84.5 34h6q34 -34 68 -34q45 0 78 52q-8 -4 -18 -4q-56 0 -56 58t38 91.5t88 33.5t88 -33.5
t38 -91.5t-56 -58l-19 4q32 -52 79 -52q35 0 68 34h6zM287 340l54 250h74l56 -250h-184zM410 485l-26 -119h53zM459 723h-118l-55 60l65 160h118l50 -60zM327 808h61l45 110h-62z" />
    <glyph glyph-name="Acircumflex" unicode="&#xc2;" horiz-adv-x="806" 
d="M673 501h-52l37 -190q9 1 28 1l50 -60l12 -72q-54 0 -54 -48q0 -29 7 -29q17 0 19 10l32 -19l50 -60q0 -48 -23.5 -71t-60 -23t-83.5 25q-37 -25 -72 -25q-55 0 -103.5 49t-65.5 105l24 19q8 -10 23 -10q33 0 33 39l-3 23q-19 10 -46.5 10t-52.5 -16t-34 -46l24 -19
l50 -60q-14 -47 -46.5 -70.5t-69 -23.5t-76.5 25q-45 -25 -83 -25q-52 0 -91.5 50t-39.5 104l31 19q2 -10 19.5 -10t34 24t20.5 53l-53 60l12 72q43 0 65 -6l40 204l-42 51v139h110l-47 57l120 186h124l50 -60l118 -183h15l50 -60v-139zM504 278q9 7 20 25h26q16 -19 29 -25
q4 7 16 17l-57 295h57v82h-434v-82h57l-58 -295q12 -9 18 -17q12 7 28 25h26q8 -19 17 -25q38 38 128.5 38t126.5 -38zM582 61q44 -34 84.5 -34t53.5 52q-5 -4 -14 -4q-38 0 -64.5 37.5t-26.5 71.5q0 71 55 79l-4 24q-19 0 -28.5 -1.5t-22.5 -12t-22 -32.5q-23 4 -52 34
q-7 -13 -16.5 -21.5t-21.5 -12.5q-39 48 -126 48t-124 -48q-23 4 -39 34q-24 -26 -50 -34q-9 22 -22.5 32.5t-23.5 12t-28 1.5l-4 -24q28 -4 41.5 -23.5t13.5 -54.5t-26.5 -72.5t-63.5 -37.5l-14 4q13 -52 52.5 -52t84.5 34h6q34 -34 68 -34q45 0 78 52q-8 -4 -18 -4
q-56 0 -56 58t38 91.5t88 33.5t88 -33.5t38 -91.5t-56 -58l-19 4q32 -52 79 -52q35 0 68 34h6zM287 340l54 250h74l56 -250h-184zM337 916l-91 -132h42l81 70h18l81 -70h42l-91 132h-82zM428 767l-75 -67h149zM410 485l-26 -119h53z" />
    <glyph glyph-name="Atilde" unicode="&#xc3;" horiz-adv-x="806" 
d="M133 700h121l-47 66v134q53 44 99 44q24 0 61 -22t63 -22q42 0 99 33l19 11l50 -60v-144q-42 -29 -83 -40h108l50 -60v-139h-52l37 -190q9 1 28 1l50 -60l12 -72q-54 0 -54 -48q0 -29 7 -29q17 0 19 10l32 -19l50 -60q0 -48 -23.5 -71t-60 -23t-83.5 25q-37 -25 -72 -25
q-55 0 -103.5 49t-65.5 105l24 19q8 -10 23 -10q33 0 33 39l-3 23q-19 10 -46.5 10t-52.5 -16t-34 -46l24 -19l50 -60q-14 -47 -46.5 -70.5t-69 -23.5t-76.5 25q-45 -25 -83 -25q-52 0 -91.5 50t-39.5 104l31 19q2 -10 19.5 -10t34 24t20.5 53l-53 60l12 72q43 0 65 -6
l40 204l-42 51v139zM504 278q9 7 20 25h26q16 -19 29 -25q4 7 16 17l-57 295h57v82h-434v-82h57l-58 -295q12 -9 18 -17q12 7 28 25h26q8 -19 17 -25q38 38 128.5 38t126.5 -38zM582 61q44 -34 84.5 -34t53.5 52q-5 -4 -14 -4q-38 0 -64.5 37.5t-26.5 71.5q0 71 55 79l-4 24
q-19 0 -28.5 -1.5t-22.5 -12t-22 -32.5q-23 4 -52 34q-7 -13 -16.5 -21.5t-21.5 -12.5q-39 48 -126 48t-124 -48q-23 4 -39 34q-24 -26 -50 -34q-9 22 -22.5 32.5t-23.5 12t-28 1.5l-4 -24q28 -4 41.5 -23.5t13.5 -54.5t-26.5 -72.5t-63.5 -37.5l-14 4q13 -52 52.5 -52
t84.5 34h6q34 -34 68 -34q45 0 78 52q-8 -4 -18 -4q-56 0 -56 58t38 91.5t88 33.5t88 -33.5t38 -91.5t-56 -58l-19 4q32 -52 79 -52q35 0 68 34h6zM287 340l54 250h74l56 -250h-184zM232 800q43 28 67 28t63 -22t74.5 -22t86.5 29v89q-51 -30 -85 -30t-71 22t-67.5 22
t-67.5 -28v-88zM356 740q-34 0 -94 -40h192q-20 5 -50.5 22.5t-47.5 17.5zM410 485l-26 -119h53z" />
    <glyph glyph-name="Adieresis" unicode="&#xc4;" horiz-adv-x="806" 
d="M133 700h490l50 -60v-139h-52l37 -190q9 1 28 1l50 -60l12 -72q-54 0 -54 -48q0 -29 7 -29q17 0 19 10l32 -19l50 -60q0 -48 -23.5 -71t-60 -23t-83.5 25q-37 -25 -72 -25q-55 0 -103.5 49t-65.5 105l24 19q8 -10 23 -10q33 0 33 39l-3 23q-19 10 -46.5 10t-52.5 -16
t-34 -46l24 -19l50 -60q-14 -47 -46.5 -70.5t-69 -23.5t-76.5 25q-45 -25 -83 -25q-52 0 -91.5 50t-39.5 104l31 19q2 -10 19.5 -10t34 24t20.5 53l-53 60l12 72q43 0 65 -6l40 204l-42 51v139zM504 278q9 7 20 25h26q16 -19 29 -25q4 7 16 17l-57 295h57v82h-434v-82h57
l-58 -295q12 -9 18 -17q12 7 28 25h26q8 -19 17 -25q38 38 128.5 38t126.5 -38zM582 61q44 -34 84.5 -34t53.5 52q-5 -4 -14 -4q-38 0 -64.5 37.5t-26.5 71.5q0 71 55 79l-4 24q-19 0 -28.5 -1.5t-22.5 -12t-22 -32.5q-23 4 -52 34q-7 -13 -16.5 -21.5t-21.5 -12.5
q-39 48 -126 48t-124 -48q-23 4 -39 34q-24 -26 -50 -34q-9 22 -22.5 32.5t-23.5 12t-28 1.5l-4 -24q28 -4 41.5 -23.5t13.5 -54.5t-26.5 -72.5t-63.5 -37.5l-14 4q13 -52 52.5 -52t84.5 34h6q34 -34 68 -34q45 0 78 52q-8 -4 -18 -4q-56 0 -56 58t38 91.5t88 33.5t88 -33.5
t38 -91.5t-56 -58l-19 4q32 -52 79 -52q35 0 68 34h6zM287 340l54 250h74l56 -250h-184zM410 485l-26 -119h53zM393 825v-42q0 -29 -26 -43.5t-57 -14.5q-45 0 -84 41.5t-39 76.5v42q0 29 26 43.5t57 14.5q48 0 85.5 -35.5t37.5 -82.5zM270 812q56 0 56 45v14q0 45 -56 45
t-56 -45v-14q0 -45 56 -45zM619 825v-42q0 -29 -26 -43.5t-57 -14.5q-45 0 -84 41.5t-39 76.5v42q0 29 26 43.5t57 14.5q48 0 85.5 -35.5t37.5 -82.5zM496 812q56 0 56 45v14q0 45 -56 45t-56 -45v-14q0 -45 56 -45z" />
    <glyph glyph-name="Aring" unicode="&#xc5;" horiz-adv-x="806" 
d="M325.5 756.5q-44.5 52.5 -44.5 93.5t26 67t68 26t88.5 -52t46.5 -93.5t-26 -67.5t-64 -26q-50 0 -94.5 52.5zM336 853q0 14 10 24t24 10t24 -10t10 -24t-10 -24t-24 -10t-24 10t-10 24zM325.5 899q-18.5 -19 -18.5 -45t18.5 -45t45 -19t45.5 18.5t19 45t-19 45.5
t-45.5 19t-45 -19zM133 700h490l50 -60v-139h-52l37 -190q9 1 28 1l50 -60l12 -72q-54 0 -54 -48q0 -29 7 -29q17 0 19 10l32 -19l50 -60q0 -48 -23.5 -71t-60 -23t-83.5 25q-37 -25 -72 -25q-55 0 -103.5 49t-65.5 105l24 19q8 -10 23 -10q33 0 33 39l-3 23
q-19 10 -46.5 10t-52.5 -16t-34 -46l24 -19l50 -60q-14 -47 -46.5 -70.5t-69 -23.5t-76.5 25q-45 -25 -83 -25q-52 0 -91.5 50t-39.5 104l31 19q2 -10 19.5 -10t34 24t20.5 53l-53 60l12 72q43 0 65 -6l40 204l-42 51v139zM504 278q9 7 20 25h26q16 -19 29 -25q4 7 16 17
l-57 295h57v82h-434v-82h57l-58 -295q12 -9 18 -17q12 7 28 25h26q8 -19 17 -25q38 38 128.5 38t126.5 -38zM582 61q44 -34 84.5 -34t53.5 52q-5 -4 -14 -4q-38 0 -64.5 37.5t-26.5 71.5q0 71 55 79l-4 24q-19 0 -28.5 -1.5t-22.5 -12t-22 -32.5q-23 4 -52 34
q-7 -13 -16.5 -21.5t-21.5 -12.5q-39 48 -126 48t-124 -48q-23 4 -39 34q-24 -26 -50 -34q-9 22 -22.5 32.5t-23.5 12t-28 1.5l-4 -24q28 -4 41.5 -23.5t13.5 -54.5t-26.5 -72.5t-63.5 -37.5l-14 4q13 -52 52.5 -52t84.5 34h6q34 -34 68 -34q45 0 78 52q-8 -4 -18 -4
q-56 0 -56 58t38 91.5t88 33.5t88 -33.5t38 -91.5t-56 -58l-19 4q32 -52 79 -52q35 0 68 34h6zM287 340l54 250h74l56 -250h-184zM410 485l-26 -119h53z" />
    <glyph glyph-name="AE" unicode="&#xc6;" horiz-adv-x="994" 
d="M717.5 -60q-36.5 0 -83.5 25q-37 -25 -72 -25q-55 0 -103.5 49t-65.5 105l24 19q8 -10 23 -10q33 0 33 39l-3 23q-18 10 -45.5 10t-53 -17t-34.5 -45l24 -19l50 -60q-14 -47 -46.5 -70.5t-69 -23.5t-76.5 25q-45 -25 -83 -25q-52 0 -91.5 50t-39.5 104l31 19
q2 -10 19.5 -10t33.5 24t18 53l-50 60l12 72q43 0 65 -6l40 204l-42 51v139h763l50 -60v-244h-116l-50 60v43h-107v-58h71l50 -60v-116h-75l11 -13v-73q-16 -1 -26 -2.5t-21 -10.5t-11 -26v-4q15 -5 40.5 -5t48.5 16t23 45q0 5 -6 29v32h116l50 -60v-180q0 -35 18 -46
l-18 -27q-26 0 -54.5 13t-44.5 28q-15 -15 -52.5 -28t-74 -13zM503 278q9 7 18 25h24q10 -18 20 -24q11 14 27 22v52h123v60h-123v174h215v-103h60v188h-707v-82h57l-58 -295q12 -9 18 -17q12 7 28 25h26q8 -19 17 -25q38 38 128.5 38t126.5 -38zM664 27q68 0 126 46l4 3
q9 -9 37 -25.5t44 -19.5q-9 10 -9 52v140h-61q5 -17 5 -35q0 -40 -30.5 -63t-74.5 -23t-78.5 25.5t-34.5 77.5q0 18 14.5 37.5t46.5 19.5v24q-18 0 -27.5 -1.5t-24.5 -12t-27 -31.5q-19 4 -39 28q-14 -22 -33 -28q-39 48 -126 48t-124 -48q-23 4 -39 34q-24 -26 -50 -34
q-9 22 -22.5 32.5t-23.5 12t-28 1.5l-4 -24q28 -4 41.5 -23.5t13.5 -54.5t-26.5 -72.5t-63.5 -37.5l-14 4q13 -52 52.5 -52t84.5 34h6q34 -34 68 -34q45 0 78 52q-8 -4 -18 -4q-56 0 -56 58t38 91.5t88 33.5t88 -33.5t38 -91.5t-56 -58l-19 4q32 -52 79 -52q35 0 68 34h6
q44 -34 83 -34zM466 340h-180l54 247h126v-247zM436 366v133h-24l-29 -133h53z" />
    <glyph glyph-name="Ccedilla" unicode="&#xc7;" horiz-adv-x="731" 
d="M439 -70q30 -30 30 -67v-19q0 -143 -123 -143h-48l-50 60v73h10q18 0 30 6l-35 41v44q0 15 1 22q-82 24 -132.5 79t-50.5 142v12h-11l-50 60v72q43 0 61 -3v222q0 117 122 159q62 22 136 22t129 -13.5t101.5 -41t73.5 -75.5t27 -111v-101h-194l-50 60v72l-1 16
q-9 3 -26 3q-74 0 -74 -79v-134l47 -56v-72q-59 -2 -59 -40v-8q16 -5 38 -5q74 0 86 53h-7l-50 60v72q34 0 50 -1q39 -3 64 -33q11 7 24 25h26q13 -19 24 -25q18 23 41.5 28.5t72.5 5.5l50 -60v-72q-39 0 -50 -15t-11 -47v-10q0 -92 -71 -134q-62 -36 -151 -44zM279 -75v-19
h60v-25q0 -28 -17 -49.5t-49 -21.5v-25h8q23 0 37 2.5t34 12.5q40 20 40 103v6q0 25 -9 31t-35 6h-29q5 71 66 71q90 10 143.5 47t53.5 105v9q0 85 65 85v24q-41 0 -61 -20q-10 -10 -20 -26q-21 4 -44 34q-18 -26 -45 -34q-13 21 -28.5 32t-25 12.5t-26.5 1.5v-24
q31 0 45 -20t14 -38q0 -106 -115 -106t-115 106q0 19 14 38.5t45 19.5v24q-18 0 -27.5 -1.5t-24.5 -12t-28 -32.5q-24 4 -45 34q-20 -26 -44 -34q-13 21 -28 32t-25 12.5t-28 1.5v-24q65 0 65 -85v-9q0 -69 54 -106t137 -45l20 -2q-32 -29 -32 -91zM124 278q10 8 24 25h26
q12 -19 24 -25q15 19 39 27v198q0 52 27 80t76 28t77 -27.5t28 -80.5v-45h137v71q0 55 -37.5 91t-89.5 49.5t-107 13.5t-95.5 -8t-76 -25t-56.5 -48t-21 -73v-230q13 -7 25 -21z" />
    <glyph glyph-name="Egrave" unicode="&#xc8;" horiz-adv-x="656" 
d="M617 13q0 -35 18 -46l-18 -27q-26 0 -54.5 13t-44.5 28q-17 -15 -57.5 -28t-76.5 -13q-73 0 -119 39q-41 -39 -93.5 -39t-97 50.5t-51.5 104.5l28 18q5 -8 20 -8q40 0 40 74h-10l-50 60v73q42 0 59 -3v190h-28l-50 60v141h537l50 -60v-244h-116l-50 60v43h-107v-58h71
l50 -60v-116h-75l11 -13v-73q-16 -1 -26 -2.5t-21 -10.5t-11 -26v-4q14 -5 40 -5t49 16t23 45q0 5 -6 29v32h116l50 -60v-180zM165 279q10 6 24 24h27q13 -18 23 -24q11 14 27 22v52h123v60h-123v174h215v-103h60v188h-481v-85h80v-287q13 -7 25 -21zM484 188
q0 -40 -30.5 -63t-74.5 -23t-78.5 25.5t-34.5 77.5q0 18 14.5 37.5t46.5 19.5v24q-18 0 -27.5 -1.5t-24.5 -12t-27 -31.5q-24 5 -46 34q-18 -26 -45 -34q-13 21 -28 31.5t-24.5 12t-27.5 1.5v-24q34 0 49.5 -23.5t15.5 -65.5t-13.5 -69t-56.5 -27l-14 2q18 -51 63 -51t88 45
h9l4 -4q48 -40 116.5 -40t129.5 47q9 -9 37 -25.5t44 -19.5q-9 10 -9 52v140h-61q5 -17 5 -35zM426 723h-86l-50 60l-60 160h136l50 -60zM311 809h36l-10 109h-68z" />
    <glyph glyph-name="Eacute" unicode="&#xc9;" horiz-adv-x="656" 
d="M617 13q0 -35 18 -46l-18 -27q-26 0 -54.5 13t-44.5 28q-17 -15 -57.5 -28t-76.5 -13q-73 0 -119 39q-41 -39 -93.5 -39t-97 50.5t-51.5 104.5l28 18q5 -8 20 -8q40 0 40 74h-10l-50 60v73q42 0 59 -3v190h-28l-50 60v141h537l50 -60v-244h-116l-50 60v43h-107v-58h71
l50 -60v-116h-75l11 -13v-73q-16 -1 -26 -2.5t-21 -10.5t-11 -26v-4q14 -5 40 -5t49 16t23 45q0 5 -6 29v32h116l50 -60v-180zM165 279q10 6 24 24h27q13 -18 23 -24q11 14 27 22v52h123v60h-123v174h215v-103h60v188h-481v-85h80v-287q13 -7 25 -21zM484 188
q0 -40 -30.5 -63t-74.5 -23t-78.5 25.5t-34.5 77.5q0 18 14.5 37.5t46.5 19.5v24q-18 0 -27.5 -1.5t-24.5 -12t-27 -31.5q-24 5 -46 34q-18 -26 -45 -34q-13 21 -28 31.5t-24.5 12t-27.5 1.5v-24q34 0 49.5 -23.5t15.5 -65.5t-13.5 -69t-56.5 -27l-14 2q18 -51 63 -51t88 45
h9l4 -4q48 -40 116.5 -40t129.5 47q9 -9 37 -25.5t44 -19.5q-9 10 -9 52v140h-61q5 -17 5 -35zM394 723h-118l-55 60l65 160h118l50 -60zM262 808h61l45 110h-62z" />
    <glyph glyph-name="Ecircumflex" unicode="&#xca;" horiz-adv-x="656" 
d="M619 396h-116l-50 60v43h-107v-58h71l50 -60v-116h-75l11 -13v-73q-16 -1 -26 -2.5t-21 -10.5t-11 -26v-4q14 -5 40 -5t49 16t23 45q0 5 -6 29v32h116l50 -60v-180q0 -35 18 -46l-18 -27q-26 0 -54.5 13t-44.5 28q-17 -15 -57.5 -28t-76.5 -13q-73 0 -119 39
q-41 -39 -93.5 -39t-97 50.5t-51.5 104.5l28 18q5 -8 20 -8q40 0 40 74h-10l-50 60v73q42 0 59 -3v190h-28l-50 60v141h136l-47 57l120 186h124l50 -60l118 -183h36l50 -60v-244zM165 279q10 6 24 24h27q13 -18 23 -24q11 14 27 22v52h123v60h-123v174h215v-103h60v188h-481
v-85h80v-287q13 -7 25 -21zM484 188q0 -40 -30.5 -63t-74.5 -23t-78.5 25.5t-34.5 77.5q0 18 14.5 37.5t46.5 19.5v24q-18 0 -27.5 -1.5t-24.5 -12t-27 -31.5q-24 5 -46 34q-18 -26 -45 -34q-13 21 -28 31.5t-24.5 12t-27.5 1.5v-24q34 0 49.5 -23.5t15.5 -65.5t-13.5 -69
t-56.5 -27l-14 2q18 -51 63 -51t88 45h9l4 -4q48 -40 116.5 -40t129.5 47q9 -9 37 -25.5t44 -19.5q-9 10 -9 52v140h-61q5 -17 5 -35zM262 916l-91 -132h42l81 70h18l81 -70h42l-91 132h-82zM353 767l-75 -67h149z" />
    <glyph glyph-name="Edieresis" unicode="&#xcb;" horiz-adv-x="656" 
d="M617 13q0 -35 18 -46l-18 -27q-26 0 -54.5 13t-44.5 28q-17 -15 -57.5 -28t-76.5 -13q-73 0 -119 39q-41 -39 -93.5 -39t-97 50.5t-51.5 104.5l28 18q5 -8 20 -8q40 0 40 74h-10l-50 60v73q42 0 59 -3v190h-28l-50 60v141h537l50 -60v-244h-116l-50 60v43h-107v-58h71
l50 -60v-116h-75l11 -13v-73q-16 -1 -26 -2.5t-21 -10.5t-11 -26v-4q14 -5 40 -5t49 16t23 45q0 5 -6 29v32h116l50 -60v-180zM165 279q10 6 24 24h27q13 -18 23 -24q11 14 27 22v52h123v60h-123v174h215v-103h60v188h-481v-85h80v-287q13 -7 25 -21zM484 188
q0 -40 -30.5 -63t-74.5 -23t-78.5 25.5t-34.5 77.5q0 18 14.5 37.5t46.5 19.5v24q-18 0 -27.5 -1.5t-24.5 -12t-27 -31.5q-24 5 -46 34q-18 -26 -45 -34q-13 21 -28 31.5t-24.5 12t-27.5 1.5v-24q34 0 49.5 -23.5t15.5 -65.5t-13.5 -69t-56.5 -27l-14 2q18 -51 63 -51t88 45
h9l4 -4q48 -40 116.5 -40t129.5 47q9 -9 37 -25.5t44 -19.5q-9 10 -9 52v140h-61q5 -17 5 -35zM318 825v-42q0 -29 -26 -43.5t-57 -14.5q-45 0 -84 41.5t-39 76.5v42q0 29 26 43.5t57 14.5q48 0 85.5 -35.5t37.5 -82.5zM195 812q56 0 56 45v14q0 45 -56 45t-56 -45v-14
q0 -45 56 -45zM544 825v-42q0 -29 -26 -43.5t-57 -14.5q-45 0 -84 41.5t-39 76.5v42q0 29 26 43.5t57 14.5q48 0 85.5 -35.5t37.5 -82.5zM421 812q56 0 56 45v14q0 45 -56 45t-56 -45v-14q0 -45 56 -45z" />
    <glyph glyph-name="Igrave" unicode="&#xcc;" horiz-adv-x="463" 
d="M410 499h-60v-187h8l50 -60v-73q-39 0 -50.5 -14t-11.5 -45v-15q7 0 12 8l28 -18l50 -60q-6 -47 -34 -71t-67.5 -24t-77.5 27q-38 -27 -78.5 -27t-92.5 48t-58 107l28 18q4 -9 19 -9q43 0 43 75h-12l-50 60v73q41 0 58 -3v190h-8l-50 60v141h304l50 -60v-141zM170 279
q10 6 24 24h26q13 -18 24 -24q10 14 26 22v286h62v85h-248v-85h60v-286q14 -7 26 -22zM210 61q36 -31 79.5 -31t63.5 50q-7 -4 -16 -4q-70 0 -70 103q0 84 66 84v25q-19 0 -29 -1.5t-25 -12.5t-27 -33q-24 5 -45 35q-21 -27 -45 -35q-13 22 -28 33t-25 12.5t-28 1.5v-25
q66 0 66 -84q0 -76 -32 -95q-15 -8 -38 -8l-16 4q20 -50 63.5 -50t79.5 31h6zM329 723h-86l-50 60l-60 160h136l50 -60zM214 809h36l-10 109h-68z" />
    <glyph glyph-name="Iacute" unicode="&#xcd;" horiz-adv-x="463" 
d="M410 499h-60v-187h8l50 -60v-73q-39 0 -50.5 -14t-11.5 -45v-15q7 0 12 8l28 -18l50 -60q-6 -47 -34 -71t-67.5 -24t-77.5 27q-38 -27 -78.5 -27t-92.5 48t-58 107l28 18q4 -9 19 -9q43 0 43 75h-12l-50 60v73q41 0 58 -3v190h-8l-50 60v141h304l50 -60v-141zM170 279
q10 6 24 24h26q13 -18 24 -24q10 14 26 22v286h62v85h-248v-85h60v-286q14 -7 26 -22zM210 61q36 -31 79.5 -31t63.5 50q-7 -4 -16 -4q-70 0 -70 103q0 84 66 84v25q-19 0 -29 -1.5t-25 -12.5t-27 -33q-24 5 -45 35q-21 -27 -45 -35q-13 22 -28 33t-25 12.5t-28 1.5v-25
q66 0 66 -84q0 -76 -32 -95q-15 -8 -38 -8l-16 4q20 -50 63.5 -50t79.5 31h6zM289 723h-118l-55 60l65 160h118l50 -60zM157 808h61l45 110h-62z" />
    <glyph glyph-name="Icircumflex" unicode="&#xce;" horiz-adv-x="463" 
d="M410 499h-60v-187h8l50 -60v-73q-39 0 -50.5 -14t-11.5 -45v-15q7 0 12 8l28 -18l50 -60q-6 -47 -34 -71t-67.5 -24t-77.5 27q-38 -27 -78.5 -27t-92.5 48t-58 107l28 18q4 -9 19 -9q43 0 43 75h-12l-50 60v73q41 0 58 -3v190h-8l-50 60v141h17l-47 57l120 186h124
l50 -60l120 -186h-78l48 -57v-141zM170 279q10 6 24 24h26q13 -18 24 -24q10 14 26 22v286h62v85h-248v-85h60v-286q14 -7 26 -22zM210 61q36 -31 79.5 -31t63.5 50q-7 -4 -16 -4q-70 0 -70 103q0 84 66 84v25q-19 0 -29 -1.5t-25 -12.5t-27 -33q-24 5 -45 35
q-21 -27 -45 -35q-13 22 -28 33t-25 12.5t-28 1.5v-25q66 0 66 -84q0 -76 -32 -95q-15 -8 -38 -8l-16 4q20 -50 63.5 -50t79.5 31h6zM167 916l-91 -132h42l81 70h18l81 -70h42l-91 132h-82zM258 767l-75 -67h149z" />
    <glyph glyph-name="Idieresis" unicode="&#xcf;" horiz-adv-x="463" 
d="M410 499h-60v-187h8l50 -60v-73q-39 0 -50.5 -14t-11.5 -45v-15q7 0 12 8l28 -18l50 -60q-6 -47 -34 -71t-67.5 -24t-77.5 27q-38 -27 -78.5 -27t-92.5 48t-58 107l28 18q4 -9 19 -9q43 0 43 75h-12l-50 60v73q41 0 58 -3v190h-8l-50 60v141h304l50 -60v-141zM170 279
q10 6 24 24h26q13 -18 24 -24q10 14 26 22v286h62v85h-248v-85h60v-286q14 -7 26 -22zM210 61q36 -31 79.5 -31t63.5 50q-7 -4 -16 -4q-70 0 -70 103q0 84 66 84v25q-19 0 -29 -1.5t-25 -12.5t-27 -33q-24 5 -45 35q-21 -27 -45 -35q-13 22 -28 33t-25 12.5t-28 1.5v-25
q66 0 66 -84q0 -76 -32 -95q-15 -8 -38 -8l-16 4q20 -50 63.5 -50t79.5 31h6zM221 825v-42q0 -29 -26 -43.5t-57 -14.5q-45 0 -84 41.5t-39 76.5v42q0 29 26 43.5t57 14.5q48 0 85.5 -35.5t37.5 -82.5zM98 812q56 0 56 45v14q0 45 -56 45t-56 -45v-14q0 -45 56 -45zM447 825
v-42q0 -29 -26 -43.5t-57 -14.5q-45 0 -84 41.5t-39 76.5v42q0 29 26 43.5t57 14.5q48 0 85.5 -35.5t37.5 -82.5zM324 812q56 0 56 45v14q0 45 -56 45t-56 -45v-14q0 -45 56 -45z" />
    <glyph glyph-name="Eth" unicode="&#xd0;" horiz-adv-x="763" 
d="M13 413h93v86h-8l-50 60v141h344q120 0 207 -54q44 -28 69.5 -76.5t25.5 -111.5v-146h13l50 -60v-73q-40 0 -51 -16t-11 -55q0 -168 -270 -168q-73 0 -107 9t-63 30q-37 -39 -82 -39q-59 0 -103.5 50t-52.5 105l27 18q6 -8 22 -8t26 12.5t12 26t2 35.5h-12l-50 60v23
l-31 37v114zM158 279q8 5 23 24h26q13 -18 23 -24q15 18 34 25v22h112v60h-112v201h110q50 0 80 -26t30 -75v-181q21 -8 36 -26q10 8 23 24h27q11 -18 23 -24q10 13 23 20v218q0 80 -64 117.5t-160 37.5h-316v-85h60v-201h-93v-60h93v-28q10 -5 22 -19zM491 205
q0 -103 -116.5 -103t-116.5 103q0 18 14.5 37.5t47.5 19.5v24q-18 0 -28 -1.5t-25 -12t-28 -31.5q-24 5 -45 34q-20 -26 -44 -34q-13 21 -28 31.5t-25 12t-28 1.5v-24q64 0 64 -83q0 -32 -3.5 -51t-19 -35t-45.5 -16l-17 2q24 -52 73 -52q23 0 40.5 11t39.5 35h8
q27 -24 60.5 -34t105.5 -10q242 0 242 140q0 93 64 93v24q-18 0 -27.5 -1.5t-24.5 -12t-28 -31.5q-23 5 -44 34q-20 -26 -47 -34q-13 21 -27.5 31.5t-24 12t-28.5 1.5v-24q33 0 47 -19t14 -38zM342 499v-86h64l50 -60v129l-1 13q-12 4 -31 4h-82zM396 239v-60
q-59 -2 -59 -39v-5q16 -4 38 -4q73 0 86 48h-7l-50 60h-8z" />
    <glyph glyph-name="Ntilde" unicode="&#xd1;" horiz-adv-x="834" 
d="M624 -30q-13 -6 -17 -30q-46 0 -102 48q-27 23 -45.5 65.5t-18.5 94.5v31h-12l-34 41v-41q-39 0 -50.5 -14t-11.5 -45v-15q7 0 12 8l28 -18l50 -60q-6 -47 -34 -71t-67.5 -24t-77.5 27q-38 -27 -78.5 -27t-92.5 48t-58 107l28 18q4 -9 19 -9q43 0 43 75h-12l-50 60v73
q40 0 56 -2v189h-8l-50 60v141h227l-47 66v134q53 44 99 44q24 0 61 -22t63 -22q42 0 99 33l19 11l50 -60v-144q-42 -29 -83 -40h213l50 -60v-141h-60v-187h9l50 -60v-73q-39 0 -50 -14t-11 -45v-15q7 2 11 8l78 -78q-6 -47 -34.5 -71t-58.5 -24t-58 8.5t-44 21.5zM157 279
q10 6 24 24h26q13 -18 24 -24q11 14 27 22v191h28l146 -182q41 -5 62 -31q10 6 24 24h83q13 -18 25 -24q13 14 26 21v287h62v85h-248v-85h60v-210h-34l-248 295h-175v-85h60v-285q16 -8 28 -23zM667 30q49 0 68 50q-6 -4 -15 -4q-30 0 -46.5 16.5t-20 36t-3.5 50.5
q0 84 65 84v25q-18 0 -27.5 -1.5t-25 -12.5t-28.5 -33q-24 5 -45 35h-59q-21 -28 -45 -35q-13 22 -28 33t-24.5 12.5t-27.5 1.5v-25q64 0 64 -84v-26q0 -78 51 -111q10 -6 18 -8q8 28 33 28q17 -14 47 -23t49 -9zM197 61q36 -31 79.5 -31t63.5 50q-7 -4 -16 -4
q-70 0 -70 103q0 84 66 84v25q-19 0 -29 -1.5t-25 -12.5t-27 -33q-24 5 -45 35q-21 -27 -45 -35q-13 22 -28 33t-25 12.5t-28 1.5v-25q66 0 66 -84q0 -76 -32 -95q-15 -8 -38 -8l-16 4q20 -50 63.5 -50t79.5 31h6zM246 800q43 28 67 28t63 -22t74.5 -22t86.5 29v89
q-51 -30 -85 -30t-71 22t-67.5 22t-67.5 -28v-88zM438 700h30q-20 5 -50.5 22.5t-47.5 17.5q-38 0 -95 -41l224 -266v66h-11l-50 60v141zM335 312h10l34 -41v41h14l-58 73v-73z" />
    <glyph glyph-name="Ograve" unicode="&#xd2;" 
d="M399 -72q-144 0 -236 68.5t-92 171.5v11h-10l-50 60v73q44 0 61 -3v222q0 52 25.5 89.5t68.5 56.5q79 35 183 35q146 0 236.5 -66.5t90.5 -174.5v-159h11l50 -60v-73q-38 0 -49 -14t-11 -44v-13q0 -52 -25.5 -89t-69.5 -56q-80 -35 -183 -35zM124 279q12 7 25 24h25
q13 -18 24 -24q18 21 41 27v197q0 51 31 79.5t80 28.5t79 -28t30 -80v-197q23 -6 41 -27q10 6 24 24h25q13 -18 25 -24q10 13 23 20v230q0 42 -22 73t-59 48t-79 25t-88 8t-87.5 -8t-79 -25t-59.5 -48t-22 -73v-230q14 -9 23 -20zM349 18q63 0 116 13t92.5 48.5t39.5 89.5
v10q0 83 65 83v24q-18 0 -27.5 -1.5t-25 -12t-28.5 -31.5q-22 5 -44 34q-18 -26 -46 -34q-12 21 -27 31.5t-25 12t-28 1.5v-24q33 0 47 -19t14 -38q0 -54 -35 -84.5t-88 -30.5t-88 30.5t-35 84.5q0 19 14 38t47 19v24q-18 0 -28 -1.5t-25 -12t-27 -31.5q-26 5 -46 34
q-20 -26 -44 -34q-13 21 -28.5 31.5t-25 12t-27.5 1.5v-24q65 0 65 -83v-10q0 -54 39.5 -89.5t92.5 -48.5t116 -13zM318 442v-135l46 -55v-73q-17 -1 -27 -2.5t-21.5 -10.5t-11.5 -26q0 -21 40 -21t64.5 16.5t32.5 43.5h-7l-50 60v73q32 0 46 -1v191q0 8 -11 13.5t-20 5.5
q-37 0 -59 -20.5t-22 -58.5zM474 723h-86l-50 60l-60 160h136l50 -60zM359 809h36l-10 109h-68z" />
    <glyph glyph-name="Oacute" unicode="&#xd3;" 
d="M399 -72q-144 0 -236 68.5t-92 171.5v11h-10l-50 60v73q44 0 61 -3v222q0 52 25.5 89.5t68.5 56.5q79 35 183 35q146 0 236.5 -66.5t90.5 -174.5v-159h11l50 -60v-73q-38 0 -49 -14t-11 -44v-13q0 -52 -25.5 -89t-69.5 -56q-80 -35 -183 -35zM124 279q12 7 25 24h25
q13 -18 24 -24q18 21 41 27v197q0 51 31 79.5t80 28.5t79 -28t30 -80v-197q23 -6 41 -27q10 6 24 24h25q13 -18 25 -24q10 13 23 20v230q0 42 -22 73t-59 48t-79 25t-88 8t-87.5 -8t-79 -25t-59.5 -48t-22 -73v-230q14 -9 23 -20zM349 18q63 0 116 13t92.5 48.5t39.5 89.5
v10q0 83 65 83v24q-18 0 -27.5 -1.5t-25 -12t-28.5 -31.5q-22 5 -44 34q-18 -26 -46 -34q-12 21 -27 31.5t-25 12t-28 1.5v-24q33 0 47 -19t14 -38q0 -54 -35 -84.5t-88 -30.5t-88 30.5t-35 84.5q0 19 14 38t47 19v24q-18 0 -28 -1.5t-25 -12t-27 -31.5q-26 5 -46 34
q-20 -26 -44 -34q-13 21 -28.5 31.5t-25 12t-27.5 1.5v-24q65 0 65 -83v-10q0 -54 39.5 -89.5t92.5 -48.5t116 -13zM318 442v-135l46 -55v-73q-17 -1 -27 -2.5t-21.5 -10.5t-11.5 -26q0 -21 40 -21t64.5 16.5t32.5 43.5h-7l-50 60v73q32 0 46 -1v191q0 8 -11 13.5t-20 5.5
q-37 0 -59 -20.5t-22 -58.5zM433 723h-118l-55 60l65 160h118l50 -60zM301 808h61l45 110h-62z" />
    <glyph glyph-name="Ocircumflex" unicode="&#xd4;" 
d="M349 712q146 0 236.5 -66.5t90.5 -174.5v-159h11l50 -60v-73q-38 0 -49 -14t-11 -44v-13q0 -52 -25.5 -89t-69.5 -56q-80 -35 -183 -35q-144 0 -236 68.5t-92 171.5v11h-10l-50 60v73q44 0 61 -3v222q0 125 146 166l-50 60l120 186h124l50 -60l120 -186h-104l-78 70
l-62 -55h11zM124 279q12 7 25 24h25q13 -18 24 -24q18 21 41 27v197q0 51 31 79.5t80 28.5t79 -28t30 -80v-197q23 -6 41 -27q10 6 24 24h25q13 -18 25 -24q10 13 23 20v230q0 42 -22 73t-59 48t-79 25t-88 8t-87.5 -8t-79 -25t-59.5 -48t-22 -73v-230q14 -9 23 -20zM349 18
q63 0 116 13t92.5 48.5t39.5 89.5v10q0 83 65 83v24q-18 0 -27.5 -1.5t-25 -12t-28.5 -31.5q-22 5 -44 34q-18 -26 -46 -34q-12 21 -27 31.5t-25 12t-28 1.5v-24q33 0 47 -19t14 -38q0 -54 -35 -84.5t-88 -30.5t-88 30.5t-35 84.5q0 19 14 38t47 19v24q-18 0 -28 -1.5
t-25 -12t-27 -31.5q-26 5 -46 34q-20 -26 -44 -34q-13 21 -28.5 31.5t-25 12t-27.5 1.5v-24q65 0 65 -83v-10q0 -54 39.5 -89.5t92.5 -48.5t116 -13zM318 442v-135l46 -55v-73q-17 -1 -27 -2.5t-21.5 -10.5t-11.5 -26q0 -21 40 -21t64.5 16.5t32.5 43.5h-7l-50 60v73
q32 0 46 -1v191q0 8 -11 13.5t-20 5.5q-37 0 -59 -20.5t-22 -58.5zM309 916l-91 -132h42l81 70h18l81 -70h42l-91 132h-82z" />
    <glyph glyph-name="Otilde" unicode="&#xd5;" 
d="M399 -72q-144 0 -236 68.5t-92 171.5v11h-10l-50 60v73q44 0 61 -3v222q0 129 157 168l-48 67v134q53 44 99 44q24 0 61 -22t63 -22q42 0 99 33l19 11l50 -60v-144q-53 -37 -98 -44q94 -24 148 -83.5t54 -141.5v-159h11l50 -60v-73q-38 0 -49 -14t-11 -44v-13
q0 -52 -25.5 -89t-69.5 -56q-80 -35 -183 -35zM124 279q12 7 25 24h25q13 -18 24 -24q18 21 41 27v197q0 51 31 79.5t80 28.5t79 -28t30 -80v-197q23 -6 41 -27q10 6 24 24h25q13 -18 25 -24q10 13 23 20v230q0 42 -22 73t-59 48t-79 25t-88 8t-87.5 -8t-79 -25t-59.5 -48
t-22 -73v-230q14 -9 23 -20zM349 18q63 0 116 13t92.5 48.5t39.5 89.5v10q0 83 65 83v24q-18 0 -27.5 -1.5t-25 -12t-28.5 -31.5q-22 5 -44 34q-18 -26 -46 -34q-12 21 -27 31.5t-25 12t-28 1.5v-24q33 0 47 -19t14 -38q0 -54 -35 -84.5t-88 -30.5t-88 30.5t-35 84.5
q0 19 14 38t47 19v24q-18 0 -28 -1.5t-25 -12t-27 -31.5q-26 5 -46 34q-20 -26 -44 -34q-13 21 -28.5 31.5t-25 12t-27.5 1.5v-24q65 0 65 -83v-10q0 -54 39.5 -89.5t92.5 -48.5t116 -13zM318 442v-135l46 -55v-73q-17 -1 -27 -2.5t-21.5 -10.5t-11.5 -26q0 -21 40 -21
t64.5 16.5t32.5 43.5h-7l-50 60v73q32 0 46 -1v191q0 8 -11 13.5t-20 5.5q-37 0 -59 -20.5t-22 -58.5zM206 800q43 28 67 28t63 -22t74.5 -22t86.5 29v89q-51 -30 -85 -30t-71 22t-67.5 22t-67.5 -28v-88zM237 701q51 11 95 11t71 -3q-9 4 -25 13q-31 18 -48 18
q-36 0 -93 -39z" />
    <glyph glyph-name="Odieresis" unicode="&#xd6;" 
d="M399 -72q-144 0 -236 68.5t-92 171.5v11h-10l-50 60v73q44 0 61 -3v222q0 52 25.5 89.5t68.5 56.5q79 35 183 35q146 0 236.5 -66.5t90.5 -174.5v-159h11l50 -60v-73q-38 0 -49 -14t-11 -44v-13q0 -52 -25.5 -89t-69.5 -56q-80 -35 -183 -35zM124 279q12 7 25 24h25
q13 -18 24 -24q18 21 41 27v197q0 51 31 79.5t80 28.5t79 -28t30 -80v-197q23 -6 41 -27q10 6 24 24h25q13 -18 25 -24q10 13 23 20v230q0 42 -22 73t-59 48t-79 25t-88 8t-87.5 -8t-79 -25t-59.5 -48t-22 -73v-230q14 -9 23 -20zM349 18q63 0 116 13t92.5 48.5t39.5 89.5
v10q0 83 65 83v24q-18 0 -27.5 -1.5t-25 -12t-28.5 -31.5q-22 5 -44 34q-18 -26 -46 -34q-12 21 -27 31.5t-25 12t-28 1.5v-24q33 0 47 -19t14 -38q0 -54 -35 -84.5t-88 -30.5t-88 30.5t-35 84.5q0 19 14 38t47 19v24q-18 0 -28 -1.5t-25 -12t-27 -31.5q-26 5 -46 34
q-20 -26 -44 -34q-13 21 -28.5 31.5t-25 12t-27.5 1.5v-24q65 0 65 -83v-10q0 -54 39.5 -89.5t92.5 -48.5t116 -13zM318 442v-135l46 -55v-73q-17 -1 -27 -2.5t-21.5 -10.5t-11.5 -26q0 -21 40 -21t64.5 16.5t32.5 43.5h-7l-50 60v73q32 0 46 -1v191q0 8 -11 13.5t-20 5.5
q-37 0 -59 -20.5t-22 -58.5zM366 825v-42q0 -29 -26 -43.5t-57 -14.5q-45 0 -84 41.5t-39 76.5v42q0 29 26 43.5t57 14.5q48 0 85.5 -35.5t37.5 -82.5zM243 812q56 0 56 45v14q0 45 -56 45t-56 -45v-14q0 -45 56 -45zM592 825v-42q0 -29 -26 -43.5t-57 -14.5q-45 0 -84 41.5
t-39 76.5v42q0 29 26 43.5t57 14.5q48 0 85.5 -35.5t37.5 -82.5zM469 812q56 0 56 45v14q0 45 -56 45t-56 -45v-14q0 -45 56 -45z" />
    <glyph glyph-name="multiply" unicode="&#xd7;" horiz-adv-x="435" 
d="M85 366l-20 20l-50 60l101 102l75 -75l75 75l102 -102l50 -60l-70 -70l21 -20l50 -60l-102 -102l-76 76l-77 -78l-102 102l-50 60zM53 446l75 -75l-76 -75l64 -64l75 76l76 -76l64 64l-76 75l75 75l-64 64l-75 -75l-75 75z" />
    <glyph glyph-name="Oslash" unicode="&#xd8;" 
d="M444 200q0 4 -2 12l-48 -84q50 21 50 72zM500 279q10 6 24 24h25q13 -18 25 -24q10 13 23 20v230q0 58 -43 96l46 87h-51l-33 -62q-66 33 -167 33q-94 0 -167 -33q-37 -17 -59 -48t-22 -73v-230q14 -9 23 -20q12 7 25 24h25q13 -18 24 -24q18 21 41 27v197q0 51 31 79.5
t79 28.5q85 0 107 -76l-210 -397q-20 20 -20 67q0 19 14 38t47 19v24q-18 0 -28 -1.5t-25 -12t-27 -31.5q-26 5 -46 34q-20 -26 -44 -34q-13 21 -28.5 31.5t-25 12t-27.5 1.5v-24q65 0 65 -83v-10q0 -81 94 -125l-39 -74h52l32 60q51 -12 111.5 -12t113.5 13t92.5 48.5
t39.5 89.5v10q0 83 65 83v24q-18 0 -27.5 -1.5t-25 -12t-28.5 -31.5q-22 5 -44 34q-18 -26 -46 -34q-12 21 -27 31.5t-25 12t-28 1.5v-24q33 0 47 -19t14 -38q0 -54 -35 -84.5t-80 -30.5t-76 17l178 338v-139q23 -6 41 -27zM494 -64q-45 -8 -96.5 -8t-101.5 11l-26 -49h-98
l-50 60l30 55q-81 67 -81 163v11h-10l-50 60v73q44 0 61 -3v222q0 52 25.5 89.5t68.5 56.5q79 35 175.5 35t169.5 -27l24 47h99l50 -60l-43 -83q35 -52 35 -118v-159h11l50 -60v-73q-38 0 -49 -14t-11 -44v-13q0 -52 -25.5 -89t-69 -56t-88.5 -27zM399 521q-37 0 -59 -20.5
t-22 -58.5v-122l103 195q-11 6 -22 6z" />
    <glyph glyph-name="Ugrave" unicode="&#xd9;" horiz-adv-x="774" 
d="M751 499h-60v-187h7l50 -60v-73q-38 0 -49 -14t-11 -44v-13q0 -52 -25.5 -89t-68.5 -56q-81 -35 -184 -35q-144 0 -236 68.5t-92 171.5v11h-10l-50 60v73q41 0 58 -3v190h-8l-50 60v141h304l50 -60v-141h-60v-187h9l50 -60v-73q-17 -1 -27 -2.5t-21.5 -10.5t-11.5 -26
q0 -21 40 -21t64.5 16.5t32.5 43.5h-7l-50 60v73q43 0 60 -3v190h-8l-50 60v141h304l50 -60v-141zM360 18q63 0 116 13t92.5 48.5t39.5 89.5v10q0 83 65 83v24q-18 0 -27.5 -1.5t-25 -12t-28.5 -31.5q-22 5 -44 34q-18 -26 -46 -34q-12 21 -27 31.5t-25 12t-28 1.5v-24
q33 0 47 -19t14 -38q0 -54 -35 -84.5t-88 -30.5t-88 30.5t-35 84.5q0 19 14 38t47 19v24q-18 0 -28 -1.5t-25 -12t-27 -31.5q-26 5 -46 34q-20 -26 -44 -34q-13 21 -28.5 31.5t-25 12t-27.5 1.5v-24q65 0 65 -83v-10q0 -54 39.5 -89.5t92.5 -48.5t116 -13zM511 279
q10 6 24 24h25q13 -18 25 -24q11 13 26 21v287h62v85h-248v-85h60v-287q14 -8 26 -21zM135 279q12 7 25 24h25q13 -18 24 -24q11 14 27 22v286h62v85h-248v-85h60v-287q13 -7 25 -21zM452 723h-86l-50 60l-60 160h136l50 -60zM337 809h36l-10 109h-68z" />
    <glyph glyph-name="Uacute" unicode="&#xda;" horiz-adv-x="774" 
d="M751 499h-60v-187h7l50 -60v-73q-38 0 -49 -14t-11 -44v-13q0 -52 -25.5 -89t-68.5 -56q-81 -35 -184 -35q-144 0 -236 68.5t-92 171.5v11h-10l-50 60v73q41 0 58 -3v190h-8l-50 60v141h304l50 -60v-141h-60v-187h9l50 -60v-73q-17 -1 -27 -2.5t-21.5 -10.5t-11.5 -26
q0 -21 40 -21t64.5 16.5t32.5 43.5h-7l-50 60v73q43 0 60 -3v190h-8l-50 60v141h304l50 -60v-141zM360 18q63 0 116 13t92.5 48.5t39.5 89.5v10q0 83 65 83v24q-18 0 -27.5 -1.5t-25 -12t-28.5 -31.5q-22 5 -44 34q-18 -26 -46 -34q-12 21 -27 31.5t-25 12t-28 1.5v-24
q33 0 47 -19t14 -38q0 -54 -35 -84.5t-88 -30.5t-88 30.5t-35 84.5q0 19 14 38t47 19v24q-18 0 -28 -1.5t-25 -12t-27 -31.5q-26 5 -46 34q-20 -26 -44 -34q-13 21 -28.5 31.5t-25 12t-27.5 1.5v-24q65 0 65 -83v-10q0 -54 39.5 -89.5t92.5 -48.5t116 -13zM511 279
q10 6 24 24h25q13 -18 25 -24q11 13 26 21v287h62v85h-248v-85h60v-287q14 -8 26 -21zM135 279q12 7 25 24h25q13 -18 24 -24q11 14 27 22v286h62v85h-248v-85h60v-287q13 -7 25 -21zM444 723h-118l-55 60l65 160h118l50 -60zM312 808h61l45 110h-62z" />
    <glyph glyph-name="Ucircumflex" unicode="&#xdb;" horiz-adv-x="774" 
d="M751 499h-60v-187h7l50 -60v-73q-38 0 -49 -14t-11 -44v-13q0 -52 -25.5 -89t-68.5 -56q-81 -35 -184 -35q-144 0 -236 68.5t-92 171.5v11h-10l-50 60v73q41 0 58 -3v190h-8l-50 60v141h206l-47 57l120 186h124l50 -60l118 -183h108l50 -60v-141zM360 18q63 0 116 13
t92.5 48.5t39.5 89.5v10q0 83 65 83v24q-18 0 -27.5 -1.5t-25 -12t-28.5 -31.5q-22 5 -44 34q-18 -26 -46 -34q-12 21 -27 31.5t-25 12t-28 1.5v-24q33 0 47 -19t14 -38q0 -54 -35 -84.5t-88 -30.5t-88 30.5t-35 84.5q0 19 14 38t47 19v24q-18 0 -28 -1.5t-25 -12t-27 -31.5
q-26 5 -46 34q-20 -26 -44 -34q-13 21 -28.5 31.5t-25 12t-27.5 1.5v-24q65 0 65 -83v-10q0 -54 39.5 -89.5t92.5 -48.5t116 -13zM511 279q10 6 24 24h25q13 -18 25 -24q11 13 26 21v287h62v85h-248v-85h60v-287q14 -8 26 -21zM135 279q12 7 25 24h25q13 -18 24 -24
q11 14 27 22v286h62v85h-248v-85h60v-287q13 -7 25 -21zM397 700h90l-74 67l-78 -70h-7l48 -57v-141h-60v-187h9l50 -60v-73q-17 -1 -27 -2.5t-21.5 -10.5t-11.5 -26q0 -21 40 -21t64.5 16.5t32.5 43.5h-7l-50 60v73q43 0 60 -3v190h-8l-50 60v141zM322 916l-91 -132h42
l81 70h18l81 -70h42l-91 132h-82z" />
    <glyph glyph-name="Udieresis" unicode="&#xdc;" horiz-adv-x="774" 
d="M751 499h-60v-187h7l50 -60v-73q-38 0 -49 -14t-11 -44v-13q0 -52 -25.5 -89t-68.5 -56q-81 -35 -184 -35q-144 0 -236 68.5t-92 171.5v11h-10l-50 60v73q41 0 58 -3v190h-8l-50 60v141h304l50 -60v-141h-60v-187h9l50 -60v-73q-17 -1 -27 -2.5t-21.5 -10.5t-11.5 -26
q0 -21 40 -21t64.5 16.5t32.5 43.5h-7l-50 60v73q43 0 60 -3v190h-8l-50 60v141h304l50 -60v-141zM360 18q63 0 116 13t92.5 48.5t39.5 89.5v10q0 83 65 83v24q-18 0 -27.5 -1.5t-25 -12t-28.5 -31.5q-22 5 -44 34q-18 -26 -46 -34q-12 21 -27 31.5t-25 12t-28 1.5v-24
q33 0 47 -19t14 -38q0 -54 -35 -84.5t-88 -30.5t-88 30.5t-35 84.5q0 19 14 38t47 19v24q-18 0 -28 -1.5t-25 -12t-27 -31.5q-26 5 -46 34q-20 -26 -44 -34q-13 21 -28.5 31.5t-25 12t-27.5 1.5v-24q65 0 65 -83v-10q0 -54 39.5 -89.5t92.5 -48.5t116 -13zM511 279
q10 6 24 24h25q13 -18 25 -24q11 13 26 21v287h62v85h-248v-85h60v-287q14 -8 26 -21zM135 279q12 7 25 24h25q13 -18 24 -24q11 14 27 22v286h62v85h-248v-85h60v-287q13 -7 25 -21zM377 825v-42q0 -29 -26 -43.5t-57 -14.5q-45 0 -84 41.5t-39 76.5v42q0 29 26 43.5
t57 14.5q48 0 85.5 -35.5t37.5 -82.5zM254 812q56 0 56 45v14q0 45 -56 45t-56 -45v-14q0 -45 56 -45zM603 825v-42q0 -29 -26 -43.5t-57 -14.5q-45 0 -84 41.5t-39 76.5v42q0 29 26 43.5t57 14.5q48 0 85.5 -35.5t37.5 -82.5zM480 812q56 0 56 45v14q0 45 -56 45t-56 -45
v-14q0 -45 56 -45z" />
    <glyph glyph-name="Yacute" unicode="&#xdd;" horiz-adv-x="720" 
d="M169 312h29l-99 187h-49l-50 60v141h296l48 -58v58h295l50 -60v-141h-68l-119 -224l19 -23v-73q-39 0 -50.5 -14t-11.5 -45v-15q7 0 12 8l28 -18l50 -60q-6 -47 -34 -71t-67.5 -24t-77.5 27q-38 -27 -78.5 -27t-92.5 48t-58 107l28 18q4 -9 19 -9q43 0 43 75h-12l-50 60
v73zM283 279q10 6 24 24h26q13 -18 24 -24q17 24 50 30l144 278h60v85h-239v-85h61l-95 -206h-36l-96 206h62v85h-240v-85h60l143 -278q34 -6 52 -30zM323 61q36 -31 79.5 -31t63.5 50q-7 -4 -16 -4q-70 0 -70 103q0 84 66 84v25q-19 0 -29 -1.5t-25 -12.5t-27 -33
q-24 5 -45 35q-21 -27 -45 -35q-13 22 -28 33t-25 12.5t-28 1.5v-25q66 0 66 -84q0 -76 -32 -95q-15 -8 -38 -8l-16 4q20 -50 63.5 -50t79.5 31h6zM346 499h-43l29 -68l40 94l-26 31v-57zM416 723h-118l-55 60l65 160h118l50 -60zM284 808h61l45 110h-62z" />
    <glyph glyph-name="Thorn" unicode="&#xde;" horiz-adv-x="682" 
d="M443 133h-116l1 -30q10 1 17 10l26 -19l50 -60q-6 -47 -34 -70.5t-65.5 -23.5t-77.5 25q-43 -25 -86 -25t-90 51t-53 103l26 19q4 -10 19.5 -10t24 6.5t11.5 19.5q6 20 6 51h-11l-50 60v72q41 0 58 -3v262h-8l-50 60v141h246l50 -60v-92h43q139 0 216 -70t77 -186
t-61.5 -173.5t-168.5 -57.5zM156 278q10 6 25 25h29q13 -40 67 -51v-31h107q209 0 209 204q0 166 -220 166h-116v153h-188v-85h60v-359q16 -8 27 -22zM257 527h63q143 0 143 -111q0 -59 -34.5 -97t-107.5 -38h-64v246zM271 27q47 0 67 52q-5 -4 -15 -4q-77 0 -77 103v52
q-23 9 -33 17t-19 28q-20 -26 -47 -34q-21 33 -41 40q-17 6 -39 6v-24q65 0 65 -85q0 -31 -3.5 -50.5t-19.5 -36t-46 -16.5l-16 4q20 -52 63 -52t80 34h7q37 -34 74 -34zM367 440h-30v-130q98 8 98 106l-1 15q-19 9 -67 9z" />
    <glyph glyph-name="germandbls" unicode="&#xdf;" horiz-adv-x="742" 
d="M47 312q41 0 58 -3v190h-8l-50 60v141h246l22 -27q5 4 14 10.5t42.5 17.5t72.5 11q93 0 164 -67t71 -173q0 -58 -43 -100q10 -5 27.5 -22t28.5 -32q31 -42 31 -94v-49q0 -92 -50 -156t-159 -64h-67l-50 60v97h16q72 0 72 137v30q-29 9 -79 9h-26l-37 44v-20h6l50 -60v-73
q-39 0 -50.5 -14t-11.5 -45q0 -106 12 -107l28 -18l38 -46q8 -18 8 -29q0 -32 -30.5 -56t-68.5 -24t-76 27q-38 -27 -78.5 -27t-92.5 48t-58 107l28 18q4 -9 21.5 -9t29 26.5t11.5 69.5v79h-12l-50 60v73zM161 279q10 6 24 24h26q13 -18 24 -24q13 17 33 25v175
q0 64 30 100.5t86 36.5q35 0 55.5 -18t25 -35.5t4.5 -36.5q0 -58 -36.5 -82.5t-75.5 -24.5v-45h4q152 0 152 -102v-19q0 -168 -89 -168v-43h42q82 0 130.5 50t48.5 141v39q0 76 -63 106q-29 13 -68 21v15q35 17 60.5 49.5t25.5 71.5q0 70 -41.5 109.5t-114.5 39.5
q-105 0 -171 -83h-5v71h-193v-85h60v-286q14 -7 26 -22zM201 -39q36 -31 79.5 -31t63.5 50q-7 -4 -20 -4t-25.5 5.5t-20 17.5t-12 23.5t-6.5 31.5q-2 35 -2 69v56q0 84 66 84v25q-19 0 -29 -1.5t-25 -12.5t-27 -33q-24 5 -45 35q-21 -27 -45 -35q-13 22 -28 33t-25 12.5
t-28 1.5v-25q66 0 66 -84v-78q0 -35 -4 -59.5t-20.5 -45t-45.5 -20.5l-16 4q20 -50 63.5 -50t79.5 31h6zM434 529q-74 0 -88 -87q95 5 95 87h-7z" />
    <glyph glyph-name="agrave" unicode="&#xe0;" horiz-adv-x="826" 
d="M133 700h490l50 -60v-139h-52l37 -190q9 1 28 1l50 -60l12 -72q-54 0 -54 -48q0 -29 7 -29q17 0 19 10l32 -19l50 -60q0 -48 -23.5 -71t-60 -23t-83.5 25q-37 -25 -72 -25q-55 0 -103.5 49t-65.5 105l24 19q8 -10 23 -10q33 0 33 39l-3 23q-19 10 -46.5 10t-52.5 -16
t-34 -46l24 -19l50 -60q-14 -47 -46.5 -70.5t-69 -23.5t-76.5 25q-45 -25 -83 -25q-52 0 -91.5 50t-39.5 104l31 19q2 -10 19.5 -10t34 24t20.5 53l-53 60l12 72q43 0 65 -6l40 204l-42 51v139zM504 278q9 7 20 25h26q16 -19 29 -25q4 7 16 17l-57 295h57v82h-434v-82h57
l-58 -295q12 -9 18 -17q12 7 28 25h26q8 -19 17 -25q38 38 128.5 38t126.5 -38zM582 61q44 -34 84.5 -34t53.5 52q-5 -4 -14 -4q-38 0 -64.5 37.5t-26.5 71.5q0 71 55 79l-4 24q-19 0 -28.5 -1.5t-22.5 -12t-22 -32.5q-23 4 -52 34q-7 -13 -16.5 -21.5t-21.5 -12.5
q-39 48 -126 48t-124 -48q-23 4 -39 34q-24 -26 -50 -34q-9 22 -22.5 32.5t-23.5 12t-28 1.5l-4 -24q28 -4 41.5 -23.5t13.5 -54.5t-26.5 -72.5t-63.5 -37.5l-14 4q13 -52 52.5 -52t84.5 34h6q34 -34 68 -34q45 0 78 52q-8 -4 -18 -4q-56 0 -56 58t38 91.5t88 33.5t88 -33.5
t38 -91.5t-56 -58l-19 4q32 -52 79 -52q35 0 68 34h6zM287 340l54 250h74l56 -250h-184zM410 485l-26 -119h53zM501 723h-86l-50 60l-60 160h136l50 -60zM386 809h36l-10 109h-68z" />
    <glyph glyph-name="aacute" unicode="&#xe1;" horiz-adv-x="823" 
d="M133 700h490l50 -60v-139h-52l37 -190q9 1 28 1l50 -60l12 -72q-54 0 -54 -48q0 -29 7 -29q17 0 19 10l32 -19l50 -60q0 -48 -23.5 -71t-60 -23t-83.5 25q-37 -25 -72 -25q-55 0 -103.5 49t-65.5 105l24 19q8 -10 23 -10q33 0 33 39l-3 23q-19 10 -46.5 10t-52.5 -16
t-34 -46l24 -19l50 -60q-14 -47 -46.5 -70.5t-69 -23.5t-76.5 25q-45 -25 -83 -25q-52 0 -91.5 50t-39.5 104l31 19q2 -10 19.5 -10t34 24t20.5 53l-53 60l12 72q43 0 65 -6l40 204l-42 51v139zM504 278q9 7 20 25h26q16 -19 29 -25q4 7 16 17l-57 295h57v82h-434v-82h57
l-58 -295q12 -9 18 -17q12 7 28 25h26q8 -19 17 -25q38 38 128.5 38t126.5 -38zM582 61q44 -34 84.5 -34t53.5 52q-5 -4 -14 -4q-38 0 -64.5 37.5t-26.5 71.5q0 71 55 79l-4 24q-19 0 -28.5 -1.5t-22.5 -12t-22 -32.5q-23 4 -52 34q-7 -13 -16.5 -21.5t-21.5 -12.5
q-39 48 -126 48t-124 -48q-23 4 -39 34q-24 -26 -50 -34q-9 22 -22.5 32.5t-23.5 12t-28 1.5l-4 -24q28 -4 41.5 -23.5t13.5 -54.5t-26.5 -72.5t-63.5 -37.5l-14 4q13 -52 52.5 -52t84.5 34h6q34 -34 68 -34q45 0 78 52q-8 -4 -18 -4q-56 0 -56 58t38 91.5t88 33.5t88 -33.5
t38 -91.5t-56 -58l-19 4q32 -52 79 -52q35 0 68 34h6zM287 340l54 250h74l56 -250h-184zM410 485l-26 -119h53zM459 723h-118l-55 60l65 160h118l50 -60zM327 808h61l45 110h-62z" />
    <glyph glyph-name="acircumflex" unicode="&#xe2;" horiz-adv-x="818" 
d="M673 501h-52l37 -190q9 1 28 1l50 -60l12 -72q-54 0 -54 -48q0 -29 7 -29q17 0 19 10l32 -19l50 -60q0 -48 -23.5 -71t-60 -23t-83.5 25q-37 -25 -72 -25q-55 0 -103.5 49t-65.5 105l24 19q8 -10 23 -10q33 0 33 39l-3 23q-19 10 -46.5 10t-52.5 -16t-34 -46l24 -19
l50 -60q-14 -47 -46.5 -70.5t-69 -23.5t-76.5 25q-45 -25 -83 -25q-52 0 -91.5 50t-39.5 104l31 19q2 -10 19.5 -10t34 24t20.5 53l-53 60l12 72q43 0 65 -6l40 204l-42 51v139h110l-47 57l120 186h124l50 -60l118 -183h15l50 -60v-139zM504 278q9 7 20 25h26q16 -19 29 -25
q4 7 16 17l-57 295h57v82h-434v-82h57l-58 -295q12 -9 18 -17q12 7 28 25h26q8 -19 17 -25q38 38 128.5 38t126.5 -38zM582 61q44 -34 84.5 -34t53.5 52q-5 -4 -14 -4q-38 0 -64.5 37.5t-26.5 71.5q0 71 55 79l-4 24q-19 0 -28.5 -1.5t-22.5 -12t-22 -32.5q-23 4 -52 34
q-7 -13 -16.5 -21.5t-21.5 -12.5q-39 48 -126 48t-124 -48q-23 4 -39 34q-24 -26 -50 -34q-9 22 -22.5 32.5t-23.5 12t-28 1.5l-4 -24q28 -4 41.5 -23.5t13.5 -54.5t-26.5 -72.5t-63.5 -37.5l-14 4q13 -52 52.5 -52t84.5 34h6q34 -34 68 -34q45 0 78 52q-8 -4 -18 -4
q-56 0 -56 58t38 91.5t88 33.5t88 -33.5t38 -91.5t-56 -58l-19 4q32 -52 79 -52q35 0 68 34h6zM287 340l54 250h74l56 -250h-184zM337 916l-91 -132h42l81 70h18l81 -70h42l-91 132h-82zM428 767l-75 -67h149zM410 485l-26 -119h53z" />
    <glyph glyph-name="atilde" unicode="&#xe3;" horiz-adv-x="815" 
d="M133 700h121l-47 66v134q53 44 99 44q24 0 61 -22t63 -22q42 0 99 33l19 11l50 -60v-144q-42 -29 -83 -40h108l50 -60v-139h-52l37 -190q9 1 28 1l50 -60l12 -72q-54 0 -54 -48q0 -29 7 -29q17 0 19 10l32 -19l50 -60q0 -48 -23.5 -71t-60 -23t-83.5 25q-37 -25 -72 -25
q-55 0 -103.5 49t-65.5 105l24 19q8 -10 23 -10q33 0 33 39l-3 23q-19 10 -46.5 10t-52.5 -16t-34 -46l24 -19l50 -60q-14 -47 -46.5 -70.5t-69 -23.5t-76.5 25q-45 -25 -83 -25q-52 0 -91.5 50t-39.5 104l31 19q2 -10 19.5 -10t34 24t20.5 53l-53 60l12 72q43 0 65 -6
l40 204l-42 51v139zM504 278q9 7 20 25h26q16 -19 29 -25q4 7 16 17l-57 295h57v82h-434v-82h57l-58 -295q12 -9 18 -17q12 7 28 25h26q8 -19 17 -25q38 38 128.5 38t126.5 -38zM582 61q44 -34 84.5 -34t53.5 52q-5 -4 -14 -4q-38 0 -64.5 37.5t-26.5 71.5q0 71 55 79l-4 24
q-19 0 -28.5 -1.5t-22.5 -12t-22 -32.5q-23 4 -52 34q-7 -13 -16.5 -21.5t-21.5 -12.5q-39 48 -126 48t-124 -48q-23 4 -39 34q-24 -26 -50 -34q-9 22 -22.5 32.5t-23.5 12t-28 1.5l-4 -24q28 -4 41.5 -23.5t13.5 -54.5t-26.5 -72.5t-63.5 -37.5l-14 4q13 -52 52.5 -52
t84.5 34h6q34 -34 68 -34q45 0 78 52q-8 -4 -18 -4q-56 0 -56 58t38 91.5t88 33.5t88 -33.5t38 -91.5t-56 -58l-19 4q32 -52 79 -52q35 0 68 34h6zM287 340l54 250h74l56 -250h-184zM232 800q43 28 67 28t63 -22t74.5 -22t86.5 29v89q-51 -30 -85 -30t-71 22t-67.5 22
t-67.5 -28v-88zM356 740q-34 0 -94 -40h192q-20 5 -50.5 22.5t-47.5 17.5zM410 485l-26 -119h53z" />
    <glyph glyph-name="adieresis" unicode="&#xe4;" horiz-adv-x="812" 
d="M133 700h490l50 -60v-139h-52l37 -190q9 1 28 1l50 -60l12 -72q-54 0 -54 -48q0 -29 7 -29q17 0 19 10l32 -19l50 -60q0 -48 -23.5 -71t-60 -23t-83.5 25q-37 -25 -72 -25q-55 0 -103.5 49t-65.5 105l24 19q8 -10 23 -10q33 0 33 39l-3 23q-19 10 -46.5 10t-52.5 -16
t-34 -46l24 -19l50 -60q-14 -47 -46.5 -70.5t-69 -23.5t-76.5 25q-45 -25 -83 -25q-52 0 -91.5 50t-39.5 104l31 19q2 -10 19.5 -10t34 24t20.5 53l-53 60l12 72q43 0 65 -6l40 204l-42 51v139zM504 278q9 7 20 25h26q16 -19 29 -25q4 7 16 17l-57 295h57v82h-434v-82h57
l-58 -295q12 -9 18 -17q12 7 28 25h26q8 -19 17 -25q38 38 128.5 38t126.5 -38zM582 61q44 -34 84.5 -34t53.5 52q-5 -4 -14 -4q-38 0 -64.5 37.5t-26.5 71.5q0 71 55 79l-4 24q-19 0 -28.5 -1.5t-22.5 -12t-22 -32.5q-23 4 -52 34q-7 -13 -16.5 -21.5t-21.5 -12.5
q-39 48 -126 48t-124 -48q-23 4 -39 34q-24 -26 -50 -34q-9 22 -22.5 32.5t-23.5 12t-28 1.5l-4 -24q28 -4 41.5 -23.5t13.5 -54.5t-26.5 -72.5t-63.5 -37.5l-14 4q13 -52 52.5 -52t84.5 34h6q34 -34 68 -34q45 0 78 52q-8 -4 -18 -4q-56 0 -56 58t38 91.5t88 33.5t88 -33.5
t38 -91.5t-56 -58l-19 4q32 -52 79 -52q35 0 68 34h6zM287 340l54 250h74l56 -250h-184zM410 485l-26 -119h53zM393 825v-42q0 -29 -26 -43.5t-57 -14.5q-45 0 -84 41.5t-39 76.5v42q0 29 26 43.5t57 14.5q48 0 85.5 -35.5t37.5 -82.5zM270 812q56 0 56 45v14q0 45 -56 45
t-56 -45v-14q0 -45 56 -45zM619 825v-42q0 -29 -26 -43.5t-57 -14.5q-45 0 -84 41.5t-39 76.5v42q0 29 26 43.5t57 14.5q48 0 85.5 -35.5t37.5 -82.5zM496 812q56 0 56 45v14q0 45 -56 45t-56 -45v-14q0 -45 56 -45z" />
    <glyph glyph-name="aring" unicode="&#xe5;" horiz-adv-x="815" 
d="M133 700h490l50 -60v-139h-52l37 -190q9 1 28 1l50 -60l12 -72q-54 0 -54 -48q0 -29 7 -29q17 0 19 10l32 -19l50 -60q0 -48 -23.5 -71t-60 -23t-83.5 25q-37 -25 -72 -25q-55 0 -103.5 49t-65.5 105l24 19q8 -10 23 -10q33 0 33 39l-3 23q-19 10 -46.5 10t-52.5 -16
t-34 -46l24 -19l50 -60q-14 -47 -46.5 -70.5t-69 -23.5t-76.5 25q-45 -25 -83 -25q-52 0 -91.5 50t-39.5 104l31 19q2 -10 19.5 -10t34 24t20.5 53l-53 60l12 72q43 0 65 -6l40 204l-42 51v139zM504 278q9 7 20 25h26q16 -19 29 -25q4 7 16 17l-57 295h57v82h-434v-82h57
l-58 -295q12 -9 18 -17q12 7 28 25h26q8 -19 17 -25q38 38 128.5 38t126.5 -38zM582 61q44 -34 84.5 -34t53.5 52q-5 -4 -14 -4q-38 0 -64.5 37.5t-26.5 71.5q0 71 55 79l-4 24q-19 0 -28.5 -1.5t-22.5 -12t-22 -32.5q-23 4 -52 34q-7 -13 -16.5 -21.5t-21.5 -12.5
q-39 48 -126 48t-124 -48q-23 4 -39 34q-24 -26 -50 -34q-9 22 -22.5 32.5t-23.5 12t-28 1.5l-4 -24q28 -4 41.5 -23.5t13.5 -54.5t-26.5 -72.5t-63.5 -37.5l-14 4q13 -52 52.5 -52t84.5 34h6q34 -34 68 -34q45 0 78 52q-8 -4 -18 -4q-56 0 -56 58t38 91.5t88 33.5t88 -33.5
t38 -91.5t-56 -58l-19 4q32 -52 79 -52q35 0 68 34h6zM325.5 756.5q-44.5 52.5 -44.5 93.5t26 67t68 26t88.5 -52t46.5 -93.5t-26 -67.5t-64 -26q-50 0 -94.5 52.5zM287 340l54 250h74l56 -250h-184zM325.5 899q-18.5 -19 -18.5 -45t18.5 -45t45 -19t45.5 18.5t19 45
t-19 45.5t-45.5 19t-45 -19zM336 853q0 14 10 24t24 10t24 -10t10 -24t-10 -24t-24 -10t-24 10t-10 24zM410 485l-26 -119h53z" />
    <glyph glyph-name="ae" unicode="&#xe6;" horiz-adv-x="997" 
d="M717.5 -60q-36.5 0 -83.5 25q-37 -25 -72 -25q-55 0 -103.5 49t-65.5 105l24 19q8 -10 23 -10q33 0 33 39l-3 23q-18 10 -45.5 10t-53 -17t-34.5 -45l24 -19l50 -60q-14 -47 -46.5 -70.5t-69 -23.5t-76.5 25q-45 -25 -83 -25q-52 0 -91.5 50t-39.5 104l31 19
q2 -10 19.5 -10t33.5 24t18 53l-50 60l12 72q43 0 65 -6l40 204l-42 51v139h763l50 -60v-244h-116l-50 60v43h-107v-58h71l50 -60v-116h-75l11 -13v-73q-16 -1 -26 -2.5t-21 -10.5t-11 -26v-4q15 -5 40.5 -5t48.5 16t23 45q0 5 -6 29v32h116l50 -60v-180q0 -35 18 -46
l-18 -27q-26 0 -54.5 13t-44.5 28q-15 -15 -52.5 -28t-74 -13zM503 278q9 7 18 25h24q10 -18 20 -24q11 14 27 22v52h123v60h-123v174h215v-103h60v188h-707v-82h57l-58 -295q12 -9 18 -17q12 7 28 25h26q8 -19 17 -25q38 38 128.5 38t126.5 -38zM664 27q68 0 126 46l4 3
q9 -9 37 -25.5t44 -19.5q-9 10 -9 52v140h-61q5 -17 5 -35q0 -40 -30.5 -63t-74.5 -23t-78.5 25.5t-34.5 77.5q0 18 14.5 37.5t46.5 19.5v24q-18 0 -27.5 -1.5t-24.5 -12t-27 -31.5q-19 4 -39 28q-14 -22 -33 -28q-39 48 -126 48t-124 -48q-23 4 -39 34q-24 -26 -50 -34
q-9 22 -22.5 32.5t-23.5 12t-28 1.5l-4 -24q28 -4 41.5 -23.5t13.5 -54.5t-26.5 -72.5t-63.5 -37.5l-14 4q13 -52 52.5 -52t84.5 34h6q34 -34 68 -34q45 0 78 52q-8 -4 -18 -4q-56 0 -56 58t38 91.5t88 33.5t88 -33.5t38 -91.5t-56 -58l-19 4q32 -52 79 -52q35 0 68 34h6
q44 -34 83 -34zM466 340h-180l54 247h126v-247zM436 366v133h-24l-29 -133h53z" />
    <glyph glyph-name="ccedilla" unicode="&#xe7;" horiz-adv-x="737" 
d="M439 -70q30 -30 30 -67v-19q0 -143 -123 -143h-48l-50 60v73h10q18 0 30 6l-35 41v44q0 15 1 22q-82 24 -132.5 79t-50.5 142v12h-11l-50 60v72q43 0 61 -3v222q0 117 122 159q62 22 136 22t129 -13.5t101.5 -41t73.5 -75.5t27 -111v-101h-194l-50 60v72l-1 16
q-9 3 -26 3q-74 0 -74 -79v-134l47 -56v-72q-59 -2 -59 -40v-8q16 -5 38 -5q74 0 86 53h-7l-50 60v72q34 0 50 -1q39 -3 64 -33q11 7 24 25h26q13 -19 24 -25q18 23 41.5 28.5t72.5 5.5l50 -60v-72q-39 0 -50 -15t-11 -47v-10q0 -92 -71 -134q-62 -36 -151 -44zM279 -75v-19
h60v-25q0 -28 -17 -49.5t-49 -21.5v-25h8q23 0 37 2.5t34 12.5q40 20 40 103v6q0 25 -9 31t-35 6h-29q5 71 66 71q90 10 143.5 47t53.5 105v9q0 85 65 85v24q-41 0 -61 -20q-10 -10 -20 -26q-21 4 -44 34q-18 -26 -45 -34q-13 21 -28.5 32t-25 12.5t-26.5 1.5v-24
q31 0 45 -20t14 -38q0 -106 -115 -106t-115 106q0 19 14 38.5t45 19.5v24q-18 0 -27.5 -1.5t-24.5 -12t-28 -32.5q-24 4 -45 34q-20 -26 -44 -34q-13 21 -28 32t-25 12.5t-28 1.5v-24q65 0 65 -85v-9q0 -69 54 -106t137 -45l20 -2q-32 -29 -32 -91zM124 278q10 8 24 25h26
q12 -19 24 -25q15 19 39 27v198q0 52 27 80t76 28t77 -27.5t28 -80.5v-45h137v71q0 55 -37.5 91t-89.5 49.5t-107 13.5t-95.5 -8t-76 -25t-56.5 -48t-21 -73v-230q13 -7 25 -21z" />
    <glyph glyph-name="egrave" unicode="&#xe8;" horiz-adv-x="655" 
d="M617 13q0 -35 18 -46l-18 -27q-26 0 -54.5 13t-44.5 28q-17 -15 -57.5 -28t-76.5 -13q-73 0 -119 39q-41 -39 -93.5 -39t-97 50.5t-51.5 104.5l28 18q5 -8 20 -8q40 0 40 74h-10l-50 60v73q42 0 59 -3v190h-28l-50 60v141h537l50 -60v-244h-116l-50 60v43h-107v-58h71
l50 -60v-116h-75l11 -13v-73q-16 -1 -26 -2.5t-21 -10.5t-11 -26v-4q14 -5 40 -5t49 16t23 45q0 5 -6 29v32h116l50 -60v-180zM165 279q10 6 24 24h27q13 -18 23 -24q11 14 27 22v52h123v60h-123v174h215v-103h60v188h-481v-85h80v-287q13 -7 25 -21zM484 188
q0 -40 -30.5 -63t-74.5 -23t-78.5 25.5t-34.5 77.5q0 18 14.5 37.5t46.5 19.5v24q-18 0 -27.5 -1.5t-24.5 -12t-27 -31.5q-24 5 -46 34q-18 -26 -45 -34q-13 21 -28 31.5t-24.5 12t-27.5 1.5v-24q34 0 49.5 -23.5t15.5 -65.5t-13.5 -69t-56.5 -27l-14 2q18 -51 63 -51t88 45
h9l4 -4q48 -40 116.5 -40t129.5 47q9 -9 37 -25.5t44 -19.5q-9 10 -9 52v140h-61q5 -17 5 -35zM426 723h-86l-50 60l-60 160h136l50 -60zM311 809h36l-10 109h-68z" />
    <glyph glyph-name="eacute" unicode="&#xe9;" horiz-adv-x="647" 
d="M617 13q0 -35 18 -46l-18 -27q-26 0 -54.5 13t-44.5 28q-17 -15 -57.5 -28t-76.5 -13q-73 0 -119 39q-41 -39 -93.5 -39t-97 50.5t-51.5 104.5l28 18q5 -8 20 -8q40 0 40 74h-10l-50 60v73q42 0 59 -3v190h-28l-50 60v141h537l50 -60v-244h-116l-50 60v43h-107v-58h71
l50 -60v-116h-75l11 -13v-73q-16 -1 -26 -2.5t-21 -10.5t-11 -26v-4q14 -5 40 -5t49 16t23 45q0 5 -6 29v32h116l50 -60v-180zM165 279q10 6 24 24h27q13 -18 23 -24q11 14 27 22v52h123v60h-123v174h215v-103h60v188h-481v-85h80v-287q13 -7 25 -21zM484 188
q0 -40 -30.5 -63t-74.5 -23t-78.5 25.5t-34.5 77.5q0 18 14.5 37.5t46.5 19.5v24q-18 0 -27.5 -1.5t-24.5 -12t-27 -31.5q-24 5 -46 34q-18 -26 -45 -34q-13 21 -28 31.5t-24.5 12t-27.5 1.5v-24q34 0 49.5 -23.5t15.5 -65.5t-13.5 -69t-56.5 -27l-14 2q18 -51 63 -51t88 45
h9l4 -4q48 -40 116.5 -40t129.5 47q9 -9 37 -25.5t44 -19.5q-9 10 -9 52v140h-61q5 -17 5 -35zM394 723h-118l-55 60l65 160h118l50 -60zM262 808h61l45 110h-62z" />
    <glyph glyph-name="ecircumflex" unicode="&#xea;" horiz-adv-x="652" 
d="M619 396h-116l-50 60v43h-107v-58h71l50 -60v-116h-75l11 -13v-73q-16 -1 -26 -2.5t-21 -10.5t-11 -26v-4q14 -5 40 -5t49 16t23 45q0 5 -6 29v32h116l50 -60v-180q0 -35 18 -46l-18 -27q-26 0 -54.5 13t-44.5 28q-17 -15 -57.5 -28t-76.5 -13q-73 0 -119 39
q-41 -39 -93.5 -39t-97 50.5t-51.5 104.5l28 18q5 -8 20 -8q40 0 40 74h-10l-50 60v73q42 0 59 -3v190h-28l-50 60v141h136l-47 57l120 186h124l50 -60l118 -183h36l50 -60v-244zM165 279q10 6 24 24h27q13 -18 23 -24q11 14 27 22v52h123v60h-123v174h215v-103h60v188h-481
v-85h80v-287q13 -7 25 -21zM484 188q0 -40 -30.5 -63t-74.5 -23t-78.5 25.5t-34.5 77.5q0 18 14.5 37.5t46.5 19.5v24q-18 0 -27.5 -1.5t-24.5 -12t-27 -31.5q-24 5 -46 34q-18 -26 -45 -34q-13 21 -28 31.5t-24.5 12t-27.5 1.5v-24q34 0 49.5 -23.5t15.5 -65.5t-13.5 -69
t-56.5 -27l-14 2q18 -51 63 -51t88 45h9l4 -4q48 -40 116.5 -40t129.5 47q9 -9 37 -25.5t44 -19.5q-9 10 -9 52v140h-61q5 -17 5 -35zM262 916l-91 -132h42l81 70h18l81 -70h42l-91 132h-82zM353 767l-75 -67h149z" />
    <glyph glyph-name="edieresis" unicode="&#xeb;" horiz-adv-x="655" 
d="M617 13q0 -35 18 -46l-18 -27q-26 0 -54.5 13t-44.5 28q-17 -15 -57.5 -28t-76.5 -13q-73 0 -119 39q-41 -39 -93.5 -39t-97 50.5t-51.5 104.5l28 18q5 -8 20 -8q40 0 40 74h-10l-50 60v73q42 0 59 -3v190h-28l-50 60v141h537l50 -60v-244h-116l-50 60v43h-107v-58h71
l50 -60v-116h-75l11 -13v-73q-16 -1 -26 -2.5t-21 -10.5t-11 -26v-4q14 -5 40 -5t49 16t23 45q0 5 -6 29v32h116l50 -60v-180zM165 279q10 6 24 24h27q13 -18 23 -24q11 14 27 22v52h123v60h-123v174h215v-103h60v188h-481v-85h80v-287q13 -7 25 -21zM484 188
q0 -40 -30.5 -63t-74.5 -23t-78.5 25.5t-34.5 77.5q0 18 14.5 37.5t46.5 19.5v24q-18 0 -27.5 -1.5t-24.5 -12t-27 -31.5q-24 5 -46 34q-18 -26 -45 -34q-13 21 -28 31.5t-24.5 12t-27.5 1.5v-24q34 0 49.5 -23.5t15.5 -65.5t-13.5 -69t-56.5 -27l-14 2q18 -51 63 -51t88 45
h9l4 -4q48 -40 116.5 -40t129.5 47q9 -9 37 -25.5t44 -19.5q-9 10 -9 52v140h-61q5 -17 5 -35zM318 825v-42q0 -29 -26 -43.5t-57 -14.5q-45 0 -84 41.5t-39 76.5v42q0 29 26 43.5t57 14.5q48 0 85.5 -35.5t37.5 -82.5zM195 812q56 0 56 45v14q0 45 -56 45t-56 -45v-14
q0 -45 56 -45zM544 825v-42q0 -29 -26 -43.5t-57 -14.5q-45 0 -84 41.5t-39 76.5v42q0 29 26 43.5t57 14.5q48 0 85.5 -35.5t37.5 -82.5zM421 812q56 0 56 45v14q0 45 -56 45t-56 -45v-14q0 -45 56 -45z" />
    <glyph glyph-name="igrave" unicode="&#xec;" horiz-adv-x="450" 
d="M410 499h-60v-187h8l50 -60v-73q-39 0 -50.5 -14t-11.5 -45v-15q7 0 12 8l28 -18l50 -60q-6 -47 -34 -71t-67.5 -24t-77.5 27q-38 -27 -78.5 -27t-92.5 48t-58 107l28 18q4 -9 19 -9q43 0 43 75h-12l-50 60v73q41 0 58 -3v190h-8l-50 60v141h304l50 -60v-141zM170 279
q10 6 24 24h26q13 -18 24 -24q10 14 26 22v286h62v85h-248v-85h60v-286q14 -7 26 -22zM210 61q36 -31 79.5 -31t63.5 50q-7 -4 -16 -4q-70 0 -70 103q0 84 66 84v25q-19 0 -29 -1.5t-25 -12.5t-27 -33q-24 5 -45 35q-21 -27 -45 -35q-13 22 -28 33t-25 12.5t-28 1.5v-25
q66 0 66 -84q0 -76 -32 -95q-15 -8 -38 -8l-16 4q20 -50 63.5 -50t79.5 31h6zM329 723h-86l-50 60l-60 160h136l50 -60zM214 809h36l-10 109h-68z" />
    <glyph glyph-name="iacute" unicode="&#xed;" horiz-adv-x="450" 
d="M410 499h-60v-187h8l50 -60v-73q-39 0 -50.5 -14t-11.5 -45v-15q7 0 12 8l28 -18l50 -60q-6 -47 -34 -71t-67.5 -24t-77.5 27q-38 -27 -78.5 -27t-92.5 48t-58 107l28 18q4 -9 19 -9q43 0 43 75h-12l-50 60v73q41 0 58 -3v190h-8l-50 60v141h304l50 -60v-141zM170 279
q10 6 24 24h26q13 -18 24 -24q10 14 26 22v286h62v85h-248v-85h60v-286q14 -7 26 -22zM210 61q36 -31 79.5 -31t63.5 50q-7 -4 -16 -4q-70 0 -70 103q0 84 66 84v25q-19 0 -29 -1.5t-25 -12.5t-27 -33q-24 5 -45 35q-21 -27 -45 -35q-13 22 -28 33t-25 12.5t-28 1.5v-25
q66 0 66 -84q0 -76 -32 -95q-15 -8 -38 -8l-16 4q20 -50 63.5 -50t79.5 31h6zM289 723h-118l-55 60l65 160h118l50 -60zM157 808h61l45 110h-62z" />
    <glyph glyph-name="icircumflex" unicode="&#xee;" horiz-adv-x="450" 
d="M409 499h-60v-187h8l50 -60v-73q-39 0 -50.5 -14t-11.5 -45v-15q7 0 12 8l28 -18l50 -60q-6 -47 -34 -71t-67.5 -24t-77.5 27q-38 -27 -78.5 -27t-92.5 48t-58 107l28 18q4 -9 19 -9q43 0 43 75h-12l-50 60v73q41 0 58 -3v190h-8l-50 60v141h17l-47 57l120 186h124
l50 -60l120 -186h-78l48 -57v-141zM169 279q10 6 24 24h26q13 -18 24 -24q10 14 26 22v286h62v85h-248v-85h60v-286q14 -7 26 -22zM209 61q36 -31 79.5 -31t63.5 50q-7 -4 -16 -4q-70 0 -70 103q0 84 66 84v25q-19 0 -29 -1.5t-25 -12.5t-27 -33q-24 5 -45 35
q-21 -27 -45 -35q-13 22 -28 33t-25 12.5t-28 1.5v-25q66 0 66 -84q0 -76 -32 -95q-15 -8 -38 -8l-16 4q20 -50 63.5 -50t79.5 31h6zM166 916l-91 -132h42l81 70h18l81 -70h42l-91 132h-82zM257 767l-75 -67h149z" />
    <glyph glyph-name="idieresis" unicode="&#xef;" horiz-adv-x="450" 
d="M411 499h-60v-187h8l50 -60v-73q-39 0 -50.5 -14t-11.5 -45v-15q7 0 12 8l28 -18l50 -60q-6 -47 -34 -71t-67.5 -24t-77.5 27q-38 -27 -78.5 -27t-92.5 48t-58 107l28 18q4 -9 19 -9q43 0 43 75h-12l-50 60v73q41 0 58 -3v190h-8l-50 60v141h304l50 -60v-141zM171 279
q10 6 24 24h26q13 -18 24 -24q10 14 26 22v286h62v85h-248v-85h60v-286q14 -7 26 -22zM211 61q36 -31 79.5 -31t63.5 50q-7 -4 -16 -4q-70 0 -70 103q0 84 66 84v25q-19 0 -29 -1.5t-25 -12.5t-27 -33q-24 5 -45 35q-21 -27 -45 -35q-13 22 -28 33t-25 12.5t-28 1.5v-25
q66 0 66 -84q0 -76 -32 -95q-15 -8 -38 -8l-16 4q20 -50 63.5 -50t79.5 31h6zM222 825v-42q0 -29 -26 -43.5t-57 -14.5q-45 0 -84 41.5t-39 76.5v42q0 29 26 43.5t57 14.5q48 0 85.5 -35.5t37.5 -82.5zM99 812q56 0 56 45v14q0 45 -56 45t-56 -45v-14q0 -45 56 -45zM448 825
v-42q0 -29 -26 -43.5t-57 -14.5q-45 0 -84 41.5t-39 76.5v42q0 29 26 43.5t57 14.5q48 0 85.5 -35.5t37.5 -82.5zM325 812q56 0 56 45v14q0 45 -56 45t-56 -45v-14q0 -45 56 -45z" />
    <glyph glyph-name="eth" unicode="&#xf0;" horiz-adv-x="767" 
d="M13 413h93v86h-8l-50 60v141h344q120 0 207 -54q44 -28 69.5 -76.5t25.5 -111.5v-146h13l50 -60v-73q-40 0 -51 -16t-11 -55q0 -168 -270 -168q-73 0 -107 9t-63 30q-37 -39 -82 -39q-59 0 -103.5 50t-52.5 105l27 18q6 -8 22 -8t26 12.5t12 26t2 35.5h-12l-50 60v23
l-31 37v114zM158 279q8 5 23 24h26q13 -18 23 -24q15 18 34 25v22h112v60h-112v201h110q50 0 80 -26t30 -75v-181q21 -8 36 -26q10 8 23 24h27q11 -18 23 -24q10 13 23 20v218q0 80 -64 117.5t-160 37.5h-316v-85h60v-201h-93v-60h93v-28q10 -5 22 -19zM491 205
q0 -103 -116.5 -103t-116.5 103q0 18 14.5 37.5t47.5 19.5v24q-18 0 -28 -1.5t-25 -12t-28 -31.5q-24 5 -45 34q-20 -26 -44 -34q-13 21 -28 31.5t-25 12t-28 1.5v-24q64 0 64 -83q0 -32 -3.5 -51t-19 -35t-45.5 -16l-17 2q24 -52 73 -52q23 0 40.5 11t39.5 35h8
q27 -24 60.5 -34t105.5 -10q242 0 242 140q0 93 64 93v24q-18 0 -27.5 -1.5t-24.5 -12t-28 -31.5q-23 5 -44 34q-20 -26 -47 -34q-13 21 -27.5 31.5t-24 12t-28.5 1.5v-24q33 0 47 -19t14 -38zM342 499v-86h64l50 -60v129l-1 13q-12 4 -31 4h-82zM396 239v-60
q-59 -2 -59 -39v-5q16 -4 38 -4q73 0 86 48h-7l-50 60h-8z" />
    <glyph glyph-name="ntilde" unicode="&#xf1;" horiz-adv-x="833" 
d="M624 -30q-13 -6 -17 -30q-46 0 -102 48q-27 23 -45.5 65.5t-18.5 94.5v31h-12l-34 41v-41q-39 0 -50.5 -14t-11.5 -45v-15q7 0 12 8l28 -18l50 -60q-6 -47 -34 -71t-67.5 -24t-77.5 27q-38 -27 -78.5 -27t-92.5 48t-58 107l28 18q4 -9 19 -9q43 0 43 75h-12l-50 60v73
q40 0 56 -2v189h-8l-50 60v141h227l-47 66v134q53 44 99 44q24 0 61 -22t63 -22q42 0 99 33l19 11l50 -60v-144q-42 -29 -83 -40h213l50 -60v-141h-60v-187h9l50 -60v-73q-39 0 -50 -14t-11 -45v-15q7 2 11 8l78 -78q-6 -47 -34.5 -71t-58.5 -24t-58 8.5t-44 21.5zM157 279
q10 6 24 24h26q13 -18 24 -24q11 14 27 22v191h28l146 -182q41 -5 62 -31q10 6 24 24h83q13 -18 25 -24q13 14 26 21v287h62v85h-248v-85h60v-210h-34l-248 295h-175v-85h60v-285q16 -8 28 -23zM667 30q49 0 68 50q-6 -4 -15 -4q-30 0 -46.5 16.5t-20 36t-3.5 50.5
q0 84 65 84v25q-18 0 -27.5 -1.5t-25 -12.5t-28.5 -33q-24 5 -45 35h-59q-21 -28 -45 -35q-13 22 -28 33t-24.5 12.5t-27.5 1.5v-25q64 0 64 -84v-26q0 -78 51 -111q10 -6 18 -8q8 28 33 28q17 -14 47 -23t49 -9zM197 61q36 -31 79.5 -31t63.5 50q-7 -4 -16 -4
q-70 0 -70 103q0 84 66 84v25q-19 0 -29 -1.5t-25 -12.5t-27 -33q-24 5 -45 35q-21 -27 -45 -35q-13 22 -28 33t-25 12.5t-28 1.5v-25q66 0 66 -84q0 -76 -32 -95q-15 -8 -38 -8l-16 4q20 -50 63.5 -50t79.5 31h6zM246 800q43 28 67 28t63 -22t74.5 -22t86.5 29v89
q-51 -30 -85 -30t-71 22t-67.5 22t-67.5 -28v-88zM438 700h30q-20 5 -50.5 22.5t-47.5 17.5q-38 0 -95 -41l224 -266v66h-11l-50 60v141zM335 312h10l34 -41v41h14l-58 73v-73z" />
    <glyph glyph-name="ograve" unicode="&#xf2;" horiz-adv-x="756" 
d="M399 -72q-144 0 -236 68.5t-92 171.5v11h-10l-50 60v73q44 0 61 -3v222q0 52 25.5 89.5t68.5 56.5q79 35 183 35q146 0 236.5 -66.5t90.5 -174.5v-159h11l50 -60v-73q-38 0 -49 -14t-11 -44v-13q0 -52 -25.5 -89t-69.5 -56q-80 -35 -183 -35zM124 279q12 7 25 24h25
q13 -18 24 -24q18 21 41 27v197q0 51 31 79.5t80 28.5t79 -28t30 -80v-197q23 -6 41 -27q10 6 24 24h25q13 -18 25 -24q10 13 23 20v230q0 42 -22 73t-59 48t-79 25t-88 8t-87.5 -8t-79 -25t-59.5 -48t-22 -73v-230q14 -9 23 -20zM349 18q63 0 116 13t92.5 48.5t39.5 89.5
v10q0 83 65 83v24q-18 0 -27.5 -1.5t-25 -12t-28.5 -31.5q-22 5 -44 34q-18 -26 -46 -34q-12 21 -27 31.5t-25 12t-28 1.5v-24q33 0 47 -19t14 -38q0 -54 -35 -84.5t-88 -30.5t-88 30.5t-35 84.5q0 19 14 38t47 19v24q-18 0 -28 -1.5t-25 -12t-27 -31.5q-26 5 -46 34
q-20 -26 -44 -34q-13 21 -28.5 31.5t-25 12t-27.5 1.5v-24q65 0 65 -83v-10q0 -54 39.5 -89.5t92.5 -48.5t116 -13zM318 442v-135l46 -55v-73q-17 -1 -27 -2.5t-21.5 -10.5t-11.5 -26q0 -21 40 -21t64.5 16.5t32.5 43.5h-7l-50 60v73q32 0 46 -1v191q0 8 -11 13.5t-20 5.5
q-37 0 -59 -20.5t-22 -58.5zM474 723h-86l-50 60l-60 160h136l50 -60zM359 809h36l-10 109h-68z" />
    <glyph glyph-name="oacute" unicode="&#xf3;" horiz-adv-x="761" 
d="M399 -72q-144 0 -236 68.5t-92 171.5v11h-10l-50 60v73q44 0 61 -3v222q0 52 25.5 89.5t68.5 56.5q79 35 183 35q146 0 236.5 -66.5t90.5 -174.5v-159h11l50 -60v-73q-38 0 -49 -14t-11 -44v-13q0 -52 -25.5 -89t-69.5 -56q-80 -35 -183 -35zM124 279q12 7 25 24h25
q13 -18 24 -24q18 21 41 27v197q0 51 31 79.5t80 28.5t79 -28t30 -80v-197q23 -6 41 -27q10 6 24 24h25q13 -18 25 -24q10 13 23 20v230q0 42 -22 73t-59 48t-79 25t-88 8t-87.5 -8t-79 -25t-59.5 -48t-22 -73v-230q14 -9 23 -20zM349 18q63 0 116 13t92.5 48.5t39.5 89.5
v10q0 83 65 83v24q-18 0 -27.5 -1.5t-25 -12t-28.5 -31.5q-22 5 -44 34q-18 -26 -46 -34q-12 21 -27 31.5t-25 12t-28 1.5v-24q33 0 47 -19t14 -38q0 -54 -35 -84.5t-88 -30.5t-88 30.5t-35 84.5q0 19 14 38t47 19v24q-18 0 -28 -1.5t-25 -12t-27 -31.5q-26 5 -46 34
q-20 -26 -44 -34q-13 21 -28.5 31.5t-25 12t-27.5 1.5v-24q65 0 65 -83v-10q0 -54 39.5 -89.5t92.5 -48.5t116 -13zM318 442v-135l46 -55v-73q-17 -1 -27 -2.5t-21.5 -10.5t-11.5 -26q0 -21 40 -21t64.5 16.5t32.5 43.5h-7l-50 60v73q32 0 46 -1v191q0 8 -11 13.5t-20 5.5
q-37 0 -59 -20.5t-22 -58.5zM433 723h-118l-55 60l65 160h118l50 -60zM301 808h61l45 110h-62z" />
    <glyph glyph-name="ocircumflex" unicode="&#xf4;" 
d="M349 712q146 0 236.5 -66.5t90.5 -174.5v-159h11l50 -60v-73q-38 0 -49 -14t-11 -44v-13q0 -52 -25.5 -89t-69.5 -56q-80 -35 -183 -35q-144 0 -236 68.5t-92 171.5v11h-10l-50 60v73q44 0 61 -3v222q0 125 146 166l-50 60l120 186h124l50 -60l120 -186h-104l-78 70
l-62 -55h11zM124 279q12 7 25 24h25q13 -18 24 -24q18 21 41 27v197q0 51 31 79.5t80 28.5t79 -28t30 -80v-197q23 -6 41 -27q10 6 24 24h25q13 -18 25 -24q10 13 23 20v230q0 42 -22 73t-59 48t-79 25t-88 8t-87.5 -8t-79 -25t-59.5 -48t-22 -73v-230q14 -9 23 -20zM349 18
q63 0 116 13t92.5 48.5t39.5 89.5v10q0 83 65 83v24q-18 0 -27.5 -1.5t-25 -12t-28.5 -31.5q-22 5 -44 34q-18 -26 -46 -34q-12 21 -27 31.5t-25 12t-28 1.5v-24q33 0 47 -19t14 -38q0 -54 -35 -84.5t-88 -30.5t-88 30.5t-35 84.5q0 19 14 38t47 19v24q-18 0 -28 -1.5
t-25 -12t-27 -31.5q-26 5 -46 34q-20 -26 -44 -34q-13 21 -28.5 31.5t-25 12t-27.5 1.5v-24q65 0 65 -83v-10q0 -54 39.5 -89.5t92.5 -48.5t116 -13zM318 442v-135l46 -55v-73q-17 -1 -27 -2.5t-21.5 -10.5t-11.5 -26q0 -21 40 -21t64.5 16.5t32.5 43.5h-7l-50 60v73
q32 0 46 -1v191q0 8 -11 13.5t-20 5.5q-37 0 -59 -20.5t-22 -58.5zM309 916l-91 -132h42l81 70h18l81 -70h42l-91 132h-82z" />
    <glyph glyph-name="otilde" unicode="&#xf5;" 
d="M399 -72q-144 0 -236 68.5t-92 171.5v11h-10l-50 60v73q44 0 61 -3v222q0 129 157 168l-48 67v134q53 44 99 44q24 0 61 -22t63 -22q42 0 99 33l19 11l50 -60v-144q-53 -37 -98 -44q94 -24 148 -83.5t54 -141.5v-159h11l50 -60v-73q-38 0 -49 -14t-11 -44v-13
q0 -52 -25.5 -89t-69.5 -56q-80 -35 -183 -35zM124 279q12 7 25 24h25q13 -18 24 -24q18 21 41 27v197q0 51 31 79.5t80 28.5t79 -28t30 -80v-197q23 -6 41 -27q10 6 24 24h25q13 -18 25 -24q10 13 23 20v230q0 42 -22 73t-59 48t-79 25t-88 8t-87.5 -8t-79 -25t-59.5 -48
t-22 -73v-230q14 -9 23 -20zM349 18q63 0 116 13t92.5 48.5t39.5 89.5v10q0 83 65 83v24q-18 0 -27.5 -1.5t-25 -12t-28.5 -31.5q-22 5 -44 34q-18 -26 -46 -34q-12 21 -27 31.5t-25 12t-28 1.5v-24q33 0 47 -19t14 -38q0 -54 -35 -84.5t-88 -30.5t-88 30.5t-35 84.5
q0 19 14 38t47 19v24q-18 0 -28 -1.5t-25 -12t-27 -31.5q-26 5 -46 34q-20 -26 -44 -34q-13 21 -28.5 31.5t-25 12t-27.5 1.5v-24q65 0 65 -83v-10q0 -54 39.5 -89.5t92.5 -48.5t116 -13zM318 442v-135l46 -55v-73q-17 -1 -27 -2.5t-21.5 -10.5t-11.5 -26q0 -21 40 -21
t64.5 16.5t32.5 43.5h-7l-50 60v73q32 0 46 -1v191q0 8 -11 13.5t-20 5.5q-37 0 -59 -20.5t-22 -58.5zM206 800q43 28 67 28t63 -22t74.5 -22t86.5 29v89q-51 -30 -85 -30t-71 22t-67.5 22t-67.5 -28v-88zM237 701q51 11 95 11t71 -3q-9 4 -25 13q-31 18 -48 18
q-36 0 -93 -39z" />
    <glyph glyph-name="odieresis" unicode="&#xf6;" 
d="M399 -72q-144 0 -236 68.5t-92 171.5v11h-10l-50 60v73q44 0 61 -3v222q0 52 25.5 89.5t68.5 56.5q79 35 183 35q146 0 236.5 -66.5t90.5 -174.5v-159h11l50 -60v-73q-38 0 -49 -14t-11 -44v-13q0 -52 -25.5 -89t-69.5 -56q-80 -35 -183 -35zM124 279q12 7 25 24h25
q13 -18 24 -24q18 21 41 27v197q0 51 31 79.5t80 28.5t79 -28t30 -80v-197q23 -6 41 -27q10 6 24 24h25q13 -18 25 -24q10 13 23 20v230q0 42 -22 73t-59 48t-79 25t-88 8t-87.5 -8t-79 -25t-59.5 -48t-22 -73v-230q14 -9 23 -20zM349 18q63 0 116 13t92.5 48.5t39.5 89.5
v10q0 83 65 83v24q-18 0 -27.5 -1.5t-25 -12t-28.5 -31.5q-22 5 -44 34q-18 -26 -46 -34q-12 21 -27 31.5t-25 12t-28 1.5v-24q33 0 47 -19t14 -38q0 -54 -35 -84.5t-88 -30.5t-88 30.5t-35 84.5q0 19 14 38t47 19v24q-18 0 -28 -1.5t-25 -12t-27 -31.5q-26 5 -46 34
q-20 -26 -44 -34q-13 21 -28.5 31.5t-25 12t-27.5 1.5v-24q65 0 65 -83v-10q0 -54 39.5 -89.5t92.5 -48.5t116 -13zM318 442v-135l46 -55v-73q-17 -1 -27 -2.5t-21.5 -10.5t-11.5 -26q0 -21 40 -21t64.5 16.5t32.5 43.5h-7l-50 60v73q32 0 46 -1v191q0 8 -11 13.5t-20 5.5
q-37 0 -59 -20.5t-22 -58.5zM366 825v-42q0 -29 -26 -43.5t-57 -14.5q-45 0 -84 41.5t-39 76.5v42q0 29 26 43.5t57 14.5q48 0 85.5 -35.5t37.5 -82.5zM243 812q56 0 56 45v14q0 45 -56 45t-56 -45v-14q0 -45 56 -45zM592 825v-42q0 -29 -26 -43.5t-57 -14.5q-45 0 -84 41.5
t-39 76.5v42q0 29 26 43.5t57 14.5q48 0 85.5 -35.5t37.5 -82.5zM469 812q56 0 56 45v14q0 45 -56 45t-56 -45v-14q0 -45 56 -45z" />
    <glyph glyph-name="divide" unicode="&#xf7;" horiz-adv-x="500" 
d="M351 149v-42q0 -29 -26 -43.5t-57 -14.5q-45 0 -84 41.5t-39 76.5v42q0 18 11 31h-84l-50 60v144h177q-24 19 -39 45t-15 46v42q0 29 26 43.5t57 14.5q48 0 85.5 -35.5t37.5 -82.5v-42q0 -18 -11 -31h90l50 -60v-144h-176q47 -37 47 -91zM52 327h348v90h-348v-90z
M228 504q56 0 56 45v14q0 45 -56 45t-56 -45v-14q0 -45 56 -45zM228 136q56 0 56 45v14q0 41 -49 45h-14q-49 -4 -49 -45v-14q0 -45 56 -45z" />
    <glyph glyph-name="oslash" unicode="&#xf8;" horiz-adv-x="745" 
d="M444 200q0 4 -2 12l-48 -84q50 21 50 72zM500 279q10 6 24 24h25q13 -18 25 -24q10 13 23 20v230q0 58 -43 96l46 87h-51l-33 -62q-66 33 -167 33q-94 0 -167 -33q-37 -17 -59 -48t-22 -73v-230q14 -9 23 -20q12 7 25 24h25q13 -18 24 -24q18 21 41 27v197q0 51 31 79.5
t79 28.5q85 0 107 -76l-210 -397q-20 20 -20 67q0 19 14 38t47 19v24q-18 0 -28 -1.5t-25 -12t-27 -31.5q-26 5 -46 34q-20 -26 -44 -34q-13 21 -28.5 31.5t-25 12t-27.5 1.5v-24q65 0 65 -83v-10q0 -81 94 -125l-39 -74h52l32 60q51 -12 111.5 -12t113.5 13t92.5 48.5
t39.5 89.5v10q0 83 65 83v24q-18 0 -27.5 -1.5t-25 -12t-28.5 -31.5q-22 5 -44 34q-18 -26 -46 -34q-12 21 -27 31.5t-25 12t-28 1.5v-24q33 0 47 -19t14 -38q0 -54 -35 -84.5t-80 -30.5t-76 17l178 338v-139q23 -6 41 -27zM494 -64q-45 -8 -96.5 -8t-101.5 11l-26 -49h-98
l-50 60l30 55q-81 67 -81 163v11h-10l-50 60v73q44 0 61 -3v222q0 52 25.5 89.5t68.5 56.5q79 35 175.5 35t169.5 -27l24 47h99l50 -60l-43 -83q35 -52 35 -118v-159h11l50 -60v-73q-38 0 -49 -14t-11 -44v-13q0 -52 -25.5 -89t-69 -56t-88.5 -27zM399 521q-37 0 -59 -20.5
t-22 -58.5v-122l103 195q-11 6 -22 6z" />
    <glyph glyph-name="ugrave" unicode="&#xf9;" horiz-adv-x="769" 
d="M751 499h-60v-187h7l50 -60v-73q-38 0 -49 -14t-11 -44v-13q0 -52 -25.5 -89t-68.5 -56q-81 -35 -184 -35q-144 0 -236 68.5t-92 171.5v11h-10l-50 60v73q41 0 58 -3v190h-8l-50 60v141h304l50 -60v-141h-60v-187h9l50 -60v-73q-17 -1 -27 -2.5t-21.5 -10.5t-11.5 -26
q0 -21 40 -21t64.5 16.5t32.5 43.5h-7l-50 60v73q43 0 60 -3v190h-8l-50 60v141h304l50 -60v-141zM360 18q63 0 116 13t92.5 48.5t39.5 89.5v10q0 83 65 83v24q-18 0 -27.5 -1.5t-25 -12t-28.5 -31.5q-22 5 -44 34q-18 -26 -46 -34q-12 21 -27 31.5t-25 12t-28 1.5v-24
q33 0 47 -19t14 -38q0 -54 -35 -84.5t-88 -30.5t-88 30.5t-35 84.5q0 19 14 38t47 19v24q-18 0 -28 -1.5t-25 -12t-27 -31.5q-26 5 -46 34q-20 -26 -44 -34q-13 21 -28.5 31.5t-25 12t-27.5 1.5v-24q65 0 65 -83v-10q0 -54 39.5 -89.5t92.5 -48.5t116 -13zM511 279
q10 6 24 24h25q13 -18 25 -24q11 13 26 21v287h62v85h-248v-85h60v-287q14 -8 26 -21zM135 279q12 7 25 24h25q13 -18 24 -24q11 14 27 22v286h62v85h-248v-85h60v-287q13 -7 25 -21zM452 723h-86l-50 60l-60 160h136l50 -60zM337 809h36l-10 109h-68z" />
    <glyph glyph-name="uacute" unicode="&#xfa;" horiz-adv-x="769" 
d="M751 499h-60v-187h7l50 -60v-73q-38 0 -49 -14t-11 -44v-13q0 -52 -25.5 -89t-68.5 -56q-81 -35 -184 -35q-144 0 -236 68.5t-92 171.5v11h-10l-50 60v73q41 0 58 -3v190h-8l-50 60v141h304l50 -60v-141h-60v-187h9l50 -60v-73q-17 -1 -27 -2.5t-21.5 -10.5t-11.5 -26
q0 -21 40 -21t64.5 16.5t32.5 43.5h-7l-50 60v73q43 0 60 -3v190h-8l-50 60v141h304l50 -60v-141zM360 18q63 0 116 13t92.5 48.5t39.5 89.5v10q0 83 65 83v24q-18 0 -27.5 -1.5t-25 -12t-28.5 -31.5q-22 5 -44 34q-18 -26 -46 -34q-12 21 -27 31.5t-25 12t-28 1.5v-24
q33 0 47 -19t14 -38q0 -54 -35 -84.5t-88 -30.5t-88 30.5t-35 84.5q0 19 14 38t47 19v24q-18 0 -28 -1.5t-25 -12t-27 -31.5q-26 5 -46 34q-20 -26 -44 -34q-13 21 -28.5 31.5t-25 12t-27.5 1.5v-24q65 0 65 -83v-10q0 -54 39.5 -89.5t92.5 -48.5t116 -13zM511 279
q10 6 24 24h25q13 -18 25 -24q11 13 26 21v287h62v85h-248v-85h60v-287q14 -8 26 -21zM135 279q12 7 25 24h25q13 -18 24 -24q11 14 27 22v286h62v85h-248v-85h60v-287q13 -7 25 -21zM444 723h-118l-55 60l65 160h118l50 -60zM312 808h61l45 110h-62z" />
    <glyph glyph-name="ucircumflex" unicode="&#xfb;" horiz-adv-x="769" 
d="M751 499h-60v-187h7l50 -60v-73q-38 0 -49 -14t-11 -44v-13q0 -52 -25.5 -89t-68.5 -56q-81 -35 -184 -35q-144 0 -236 68.5t-92 171.5v11h-10l-50 60v73q41 0 58 -3v190h-8l-50 60v141h206l-47 57l120 186h124l50 -60l118 -183h108l50 -60v-141zM360 18q63 0 116 13
t92.5 48.5t39.5 89.5v10q0 83 65 83v24q-18 0 -27.5 -1.5t-25 -12t-28.5 -31.5q-22 5 -44 34q-18 -26 -46 -34q-12 21 -27 31.5t-25 12t-28 1.5v-24q33 0 47 -19t14 -38q0 -54 -35 -84.5t-88 -30.5t-88 30.5t-35 84.5q0 19 14 38t47 19v24q-18 0 -28 -1.5t-25 -12t-27 -31.5
q-26 5 -46 34q-20 -26 -44 -34q-13 21 -28.5 31.5t-25 12t-27.5 1.5v-24q65 0 65 -83v-10q0 -54 39.5 -89.5t92.5 -48.5t116 -13zM511 279q10 6 24 24h25q13 -18 25 -24q11 13 26 21v287h62v85h-248v-85h60v-287q14 -8 26 -21zM135 279q12 7 25 24h25q13 -18 24 -24
q11 14 27 22v286h62v85h-248v-85h60v-287q13 -7 25 -21zM397 700h90l-74 67l-78 -70h-7l48 -57v-141h-60v-187h9l50 -60v-73q-17 -1 -27 -2.5t-21.5 -10.5t-11.5 -26q0 -21 40 -21t64.5 16.5t32.5 43.5h-7l-50 60v73q43 0 60 -3v190h-8l-50 60v141zM322 916l-91 -132h42
l81 70h18l81 -70h42l-91 132h-82z" />
    <glyph glyph-name="udieresis" unicode="&#xfc;" horiz-adv-x="767" 
d="M751 499h-60v-187h7l50 -60v-73q-38 0 -49 -14t-11 -44v-13q0 -52 -25.5 -89t-68.5 -56q-81 -35 -184 -35q-144 0 -236 68.5t-92 171.5v11h-10l-50 60v73q41 0 58 -3v190h-8l-50 60v141h304l50 -60v-141h-60v-187h9l50 -60v-73q-17 -1 -27 -2.5t-21.5 -10.5t-11.5 -26
q0 -21 40 -21t64.5 16.5t32.5 43.5h-7l-50 60v73q43 0 60 -3v190h-8l-50 60v141h304l50 -60v-141zM360 18q63 0 116 13t92.5 48.5t39.5 89.5v10q0 83 65 83v24q-18 0 -27.5 -1.5t-25 -12t-28.5 -31.5q-22 5 -44 34q-18 -26 -46 -34q-12 21 -27 31.5t-25 12t-28 1.5v-24
q33 0 47 -19t14 -38q0 -54 -35 -84.5t-88 -30.5t-88 30.5t-35 84.5q0 19 14 38t47 19v24q-18 0 -28 -1.5t-25 -12t-27 -31.5q-26 5 -46 34q-20 -26 -44 -34q-13 21 -28.5 31.5t-25 12t-27.5 1.5v-24q65 0 65 -83v-10q0 -54 39.5 -89.5t92.5 -48.5t116 -13zM511 279
q10 6 24 24h25q13 -18 25 -24q11 13 26 21v287h62v85h-248v-85h60v-287q14 -8 26 -21zM135 279q12 7 25 24h25q13 -18 24 -24q11 14 27 22v286h62v85h-248v-85h60v-287q13 -7 25 -21zM377 825v-42q0 -29 -26 -43.5t-57 -14.5q-45 0 -84 41.5t-39 76.5v42q0 29 26 43.5
t57 14.5q48 0 85.5 -35.5t37.5 -82.5zM254 812q56 0 56 45v14q0 45 -56 45t-56 -45v-14q0 -45 56 -45zM603 825v-42q0 -29 -26 -43.5t-57 -14.5q-45 0 -84 41.5t-39 76.5v42q0 29 26 43.5t57 14.5q48 0 85.5 -35.5t37.5 -82.5zM480 812q56 0 56 45v14q0 45 -56 45t-56 -45
v-14q0 -45 56 -45z" />
    <glyph glyph-name="yacute" unicode="&#xfd;" horiz-adv-x="729" 
d="M169 312h29l-99 187h-49l-50 60v141h296l48 -58v58h295l50 -60v-141h-68l-119 -224l19 -23v-73q-39 0 -50.5 -14t-11.5 -45v-15q7 0 12 8l28 -18l50 -60q-6 -47 -34 -71t-67.5 -24t-77.5 27q-38 -27 -78.5 -27t-92.5 48t-58 107l28 18q4 -9 19 -9q43 0 43 75h-12l-50 60
v73zM283 279q10 6 24 24h26q13 -18 24 -24q17 24 50 30l144 278h60v85h-239v-85h61l-95 -206h-36l-96 206h62v85h-240v-85h60l143 -278q34 -6 52 -30zM323 61q36 -31 79.5 -31t63.5 50q-7 -4 -16 -4q-70 0 -70 103q0 84 66 84v25q-19 0 -29 -1.5t-25 -12.5t-27 -33
q-24 5 -45 35q-21 -27 -45 -35q-13 22 -28 33t-25 12.5t-28 1.5v-25q66 0 66 -84q0 -76 -32 -95q-15 -8 -38 -8l-16 4q20 -50 63.5 -50t79.5 31h6zM346 499h-43l29 -68l40 94l-26 31v-57zM416 723h-118l-55 60l65 160h118l50 -60zM284 808h61l45 110h-62z" />
    <glyph glyph-name="thorn" unicode="&#xfe;" horiz-adv-x="681" 
d="M443 133h-116l1 -30q10 1 17 10l26 -19l50 -60q-6 -47 -34 -70.5t-65.5 -23.5t-77.5 25q-43 -25 -86 -25t-90 51t-53 103l26 19q4 -10 19.5 -10t24 6.5t11.5 19.5q6 20 6 51h-11l-50 60v72q41 0 58 -3v262h-8l-50 60v141h246l50 -60v-92h43q139 0 216 -70t77 -186
t-61.5 -173.5t-168.5 -57.5zM156 278q10 6 25 25h29q13 -40 67 -51v-31h107q209 0 209 204q0 166 -220 166h-116v153h-188v-85h60v-359q16 -8 27 -22zM257 527h63q143 0 143 -111q0 -59 -34.5 -97t-107.5 -38h-64v246zM271 27q47 0 67 52q-5 -4 -15 -4q-77 0 -77 103v52
q-23 9 -33 17t-19 28q-20 -26 -47 -34q-21 33 -41 40q-17 6 -39 6v-24q65 0 65 -85q0 -31 -3.5 -50.5t-19.5 -36t-46 -16.5l-16 4q20 -52 63 -52t80 34h7q37 -34 74 -34zM367 440h-30v-130q98 8 98 106l-1 15q-19 9 -67 9z" />
    <glyph glyph-name="ydieresis" unicode="&#xff;" horiz-adv-x="700" 
d="M169 312h29l-99 187h-49l-50 60v141h296l48 -58v58h295l50 -60v-141h-68l-119 -224l19 -23v-73q-39 0 -50.5 -14t-11.5 -45v-15q7 0 12 8l28 -18l50 -60q-6 -47 -34 -71t-67.5 -24t-77.5 27q-38 -27 -78.5 -27t-92.5 48t-58 107l28 18q4 -9 19 -9q43 0 43 75h-12l-50 60
v73zM283 279q10 6 24 24h26q13 -18 24 -24q17 24 50 30l144 278h60v85h-239v-85h61l-95 -206h-36l-96 206h62v85h-240v-85h60l143 -278q34 -6 52 -30zM323 61q36 -31 79.5 -31t63.5 50q-7 -4 -16 -4q-70 0 -70 103q0 84 66 84v25q-19 0 -29 -1.5t-25 -12.5t-27 -33
q-24 5 -45 35q-21 -27 -45 -35q-13 22 -28 33t-25 12.5t-28 1.5v-25q66 0 66 -84q0 -76 -32 -95q-15 -8 -38 -8l-16 4q20 -50 63.5 -50t79.5 31h6zM346 499h-43l29 -68l40 94l-26 31v-57zM323 825v-42q0 -29 -26 -43.5t-57 -14.5q-45 0 -84 41.5t-39 76.5v42q0 29 26 43.5
t57 14.5q48 0 85.5 -35.5t37.5 -82.5zM200 812q56 0 56 45v14q0 45 -56 45t-56 -45v-14q0 -45 56 -45zM549 825v-42q0 -29 -26 -43.5t-57 -14.5q-45 0 -84 41.5t-39 76.5v42q0 29 26 43.5t57 14.5q48 0 85.5 -35.5t37.5 -82.5zM426 812q56 0 56 45v14q0 45 -56 45t-56 -45
v-14q0 -45 56 -45z" />
    <glyph glyph-name="Ccaron" unicode="&#x10c;" horiz-adv-x="731" 
d="M484 278q11 7 24 25h26q13 -19 24 -25q18 23 41.5 28.5t72.5 5.5l50 -60v-72q-39 0 -50 -15t-11 -47v-10q0 -52 -24.5 -89t-66.5 -56q-77 -35 -179 -35q-125 0 -216 54q-47 27 -75.5 75t-28.5 111v12h-11l-50 60v72q43 0 61 -3v222q0 49 21.5 85t58.5 56q67 35 165 39
l-38 46l-120 186h104l78 -70l78 70h104l50 -60l-118 -183q93 -21 149.5 -78t56.5 -151v-101h-194l-50 60v72l-1 16q-9 3 -26 3q-74 0 -74 -79v-134l47 -56v-72q-59 -2 -59 -40v-8q16 -5 38 -5q74 0 86 53h-7l-50 60v72q34 0 50 -1q39 -3 64 -33zM124 278q10 8 24 25h26
q12 -19 24 -25q15 19 39 27v198q0 52 27 80t76 28t77 -27.5t28 -80.5v-45h137v71q0 55 -37.5 91t-89.5 49.5t-107 13.5t-95.5 -8t-76 -25t-56.5 -48t-21 -73v-230q13 -7 25 -21zM582 169v9q0 85 65 85v24q-41 0 -61 -20q-10 -10 -20 -26q-21 4 -44 34q-18 -26 -45 -34
q-13 21 -28.5 32t-25 12.5t-26.5 1.5v-24q31 0 45 -20t14 -38q0 -106 -115 -106t-115 106q0 19 14 38.5t45 19.5v24q-18 0 -27.5 -1.5t-24.5 -12t-28 -32.5q-24 4 -45 34q-20 -26 -44 -34q-13 21 -28 32t-25 12.5t-28 1.5v-24q65 0 65 -85v-9q0 -55 38 -91t89.5 -49.5
t113.5 -13.5t113.5 13.5t89.5 49.5t38 91zM381 784l91 132h-42l-81 -70h-18l-81 70h-42l91 -132h82z" />
    <glyph glyph-name="ccaron" unicode="&#x10d;" horiz-adv-x="737" 
d="M484 278q11 7 24 25h26q13 -19 24 -25q18 23 41.5 28.5t72.5 5.5l50 -60v-72q-39 0 -50 -15t-11 -47v-10q0 -52 -24.5 -89t-66.5 -56q-77 -35 -179 -35q-125 0 -216 54q-47 27 -75.5 75t-28.5 111v12h-11l-50 60v72q43 0 61 -3v222q0 49 21.5 85t58.5 56q67 35 165 39
l-38 46l-120 186h104l78 -70l78 70h104l50 -60l-118 -183q93 -21 149.5 -78t56.5 -151v-101h-194l-50 60v72l-1 16q-9 3 -26 3q-74 0 -74 -79v-134l47 -56v-72q-59 -2 -59 -40v-8q16 -5 38 -5q74 0 86 53h-7l-50 60v72q34 0 50 -1q39 -3 64 -33zM124 278q10 8 24 25h26
q12 -19 24 -25q15 19 39 27v198q0 52 27 80t76 28t77 -27.5t28 -80.5v-45h137v71q0 55 -37.5 91t-89.5 49.5t-107 13.5t-95.5 -8t-76 -25t-56.5 -48t-21 -73v-230q13 -7 25 -21zM582 169v9q0 85 65 85v24q-41 0 -61 -20q-10 -10 -20 -26q-21 4 -44 34q-18 -26 -45 -34
q-13 21 -28.5 32t-25 12.5t-26.5 1.5v-24q31 0 45 -20t14 -38q0 -106 -115 -106t-115 106q0 19 14 38.5t45 19.5v24q-18 0 -27.5 -1.5t-24.5 -12t-28 -32.5q-24 4 -45 34q-20 -26 -44 -34q-13 21 -28 32t-25 12.5t-28 1.5v-24q65 0 65 -85v-9q0 -55 38 -91t89.5 -49.5
t113.5 -13.5t113.5 13.5t89.5 49.5t38 91zM381 784l91 132h-42l-81 -70h-18l-81 70h-42l91 -132h82z" />
    <glyph glyph-name="dotlessi" unicode="&#x131;" horiz-adv-x="450" 
d="M410 499h-60v-187h8l50 -60v-73q-39 0 -50.5 -14t-11.5 -45v-15q7 0 12 8l28 -18l50 -60q-6 -47 -34 -71t-67.5 -24t-77.5 27q-38 -27 -78.5 -27t-92.5 48t-58 107l28 18q4 -9 19 -9q43 0 43 75h-12l-50 60v73q41 0 58 -3v190h-8l-50 60v141h304l50 -60v-141zM170 279
q10 6 24 24h26q13 -18 24 -24q10 14 26 22v286h62v85h-248v-85h60v-286q14 -7 26 -22zM210 61q36 -31 79.5 -31t63.5 50q-7 -4 -16 -4q-70 0 -70 103q0 84 66 84v25q-19 0 -29 -1.5t-25 -12.5t-27 -33q-24 5 -45 35q-21 -27 -45 -35q-13 22 -28 33t-25 12.5t-28 1.5v-25
q66 0 66 -84q0 -76 -32 -95q-15 -8 -38 -8l-16 4q20 -50 63.5 -50t79.5 31h6z" />
    <glyph glyph-name="Ydieresis" unicode="&#x178;" horiz-adv-x="700" 
d="M169 312h29l-99 187h-49l-50 60v141h296l48 -58v58h295l50 -60v-141h-68l-119 -224l19 -23v-73q-39 0 -50.5 -14t-11.5 -45v-15q7 0 12 8l28 -18l50 -60q-6 -47 -34 -71t-67.5 -24t-77.5 27q-38 -27 -78.5 -27t-92.5 48t-58 107l28 18q4 -9 19 -9q43 0 43 75h-12l-50 60
v73zM283 279q10 6 24 24h26q13 -18 24 -24q17 24 50 30l144 278h60v85h-239v-85h61l-95 -206h-36l-96 206h62v85h-240v-85h60l143 -278q34 -6 52 -30zM323 61q36 -31 79.5 -31t63.5 50q-7 -4 -16 -4q-70 0 -70 103q0 84 66 84v25q-19 0 -29 -1.5t-25 -12.5t-27 -33
q-24 5 -45 35q-21 -27 -45 -35q-13 22 -28 33t-25 12.5t-28 1.5v-25q66 0 66 -84q0 -76 -32 -95q-15 -8 -38 -8l-16 4q20 -50 63.5 -50t79.5 31h6zM346 499h-43l29 -68l40 94l-26 31v-57zM323 825v-42q0 -29 -26 -43.5t-57 -14.5q-45 0 -84 41.5t-39 76.5v42q0 29 26 43.5
t57 14.5q48 0 85.5 -35.5t37.5 -82.5zM200 812q56 0 56 45v14q0 45 -56 45t-56 -45v-14q0 -45 56 -45zM549 825v-42q0 -29 -26 -43.5t-57 -14.5q-45 0 -84 41.5t-39 76.5v42q0 29 26 43.5t57 14.5q48 0 85.5 -35.5t37.5 -82.5zM426 812q56 0 56 45v14q0 45 -56 45t-56 -45
v-14q0 -45 56 -45z" />
    <glyph glyph-name="circumflex" unicode="&#x2c6;" horiz-adv-x="446" 
d="M305 683l120 -186h-104l-78 70l-78 -70h-104l-50 60l120 186h124zM152 716l-91 -132h42l81 70h18l81 -70h42l-91 132h-82z" />
    <glyph glyph-name="caron" unicode="&#x2c7;" horiz-adv-x="444" 
d="M185 497l-50 60l-120 186h104l78 -70l78 70h104l50 -60l-120 -186h-124zM238 584l91 132h-42l-81 -70h-18l-81 70h-42l91 -132h82z" />
    <glyph glyph-name="breve" unicode="&#x2d8;" horiz-adv-x="468" 
d="M328.5 517q-37.5 -20 -91.5 -20t-98.5 25.5t-68.5 61.5q-47 72 -58 134l-4 25h94l60 -60l1 -10h27q53 0 68 32q10 23 10 38h104l50 -60q0 -27 -11 -62t-28 -59.5t-54.5 -44.5zM196 646h-12q-37 0 -60.5 17.5t-28.5 34.5l-5 18h-52q1 -5 2.5 -14t11.5 -32t24.5 -40
t44.5 -31.5t69 -14.5t68.5 13.5t44.5 32.5q31 40 37 72l2 14h-52q0 -6 -7.5 -21t-16.5 -25q-25 -24 -70 -24z" />
    <glyph glyph-name="dotaccent" unicode="&#x2d9;" horiz-adv-x="278" 
d="M234 594v-72q0 -29 -26 -43.5t-57 -14.5q-45 0 -84 41.5t-39 76.5v72q0 29 26 43.5t57 14.5q48 0 85.5 -35.5t37.5 -82.5zM111 551q56 0 56 45v44q0 45 -56 45t-56 -45v-44q0 -45 56 -45z" />
    <glyph glyph-name="ring" unicode="&#x2da;" horiz-adv-x="259" 
d="M54.5 556.5q-44.5 52.5 -44.5 93.5t26 67t68 26t88.5 -52t46.5 -93.5t-26 -67.5t-64 -26q-50 0 -94.5 52.5zM65 653q0 14 10 24t24 10t24 -10t10 -24t-10 -24t-24 -10t-24 10t-10 24zM54.5 699q-18.5 -19 -18.5 -45t19 -45t45 -19t45 18.5t19 45t-19 45.5t-45.5 19
t-45 -19z" />
    <glyph glyph-name="ogonek" unicode="&#x2db;" horiz-adv-x="370" 
d="M97 16q-40 -36 -40 -94t32 -88.5t72 -30.5q85 0 126 68l-17 24q-34 -34 -86 -34q-34 0 -57 19.5t-23 54t18 58t49 24.5l50 -60v-20q-16 0 -26.5 -14.5t-12.5 -35.5q55 0 93 37l88 -112q-24 -44 -62.5 -69.5t-82.5 -25.5q-73 0 -130.5 64t-57.5 131t42 106z" />
    <glyph glyph-name="tilde" unicode="&#x2dc;" horiz-adv-x="447" 
d="M55 600q43 28 67 28t63 -22t74.5 -22t86.5 29v89q-51 -30 -85 -30t-71 22t-67.5 22t-67.5 -28v-88zM421 540q-63 -44 -105 -44t-81 22t-57 22t-42.5 -11t-39.5 -22l-16 -11l-50 70v134q53 44 99 44q24 0 61 -22t62 -22q43 0 100 33l19 11l50 -60v-144z" />
    <glyph glyph-name="hungarumlaut" unicode="&#x2dd;" horiz-adv-x="497" 
d="M186 523h-118l-55 60l65 160h118l50 -60zM54 608h61l45 110h-62zM416 523h-118l-55 60l65 160h118l50 -60zM284 608h61l45 110h-62z" />
    <glyph glyph-name="mu" unicode="&#x3bc;" horiz-adv-x="798" 
d="M758 499h-60v-187h7l50 -60v-73q-38 0 -50 -14.5t-12 -43.5v-15q8 1 12 7l27 -18l50 -60q-7 -47 -35 -71t-69 -24t-76 14.5t-51 40.5q-27 -20 -53.5 -27.5t-73.5 -7.5t-73.5 7.5t-53.5 27.5q-15 -88 -39 -117q-12 -15 -34.5 -26.5t-51.5 -11.5q-59 0 -103.5 50t-52.5 105
l27 18q6 -8 19.5 -8t23 21t12.5 54q7 61 7 99h-12l-50 60v73q41 0 57 -2v189h-8l-50 60v141h304l50 -60v-141h-60v-187h9l50 -60v-73q-59 -2 -59 -39v-5q20 -4 38 -4q72 0 85 48h-6l-50 60v73q42 0 59 -3v190h-8l-50 60v141h304l50 -60v-141zM374 49q48 0 74 9.5t52 32.5h8
q34 -64 120 -64q49 0 73 52q-6 -2 -17 -2q-30 0 -45.5 16t-19 35t-3.5 51q0 83 64 83v24q-18 0 -28 -1.5t-25 -12t-28 -31.5q-22 5 -44 34q-18 -26 -45 -34q-13 21 -28 31.5t-25 12t-28 1.5v-24q33 0 47.5 -19.5t14.5 -37.5q0 -103 -117 -103t-117 103q0 18 14.5 37.5
t47.5 19.5v24q-18 0 -28 -1.5t-25 -12t-28 -31.5q-24 5 -45 34q-20 -26 -44 -34q-13 21 -28 31.5t-25 12t-28 1.5v-24q64 0 64 -83q0 -131 -31 -179q-15 -23 -37 -23l-17 2q24 -52 68.5 -52t70.5 33t37 131h25q26 -23 52 -32.5t74 -9.5zM519 279q10 8 23 24h26
q12 -18 23 -24q11 14 27 22v286h62v85h-248v-85h60v-286q16 -8 27 -22zM157 279q8 5 23 24h26q13 -18 23 -24q11 14 27 22v286h62v85h-248v-85h60v-286q16 -8 27 -22z" />
    <glyph glyph-name="endash" unicode="&#x2013;" horiz-adv-x="806" 
d="M719 240h-583l-50 60v144h583l50 -60v-144zM116 327h523v90h-523v-90z" />
    <glyph glyph-name="emdash" unicode="&#x2014;" horiz-adv-x="899" 
d="M813 240h-663l-50 60v144h663l50 -60v-144zM130 327h603v90h-603v-90z" />
    <glyph glyph-name="quoteleft" unicode="&#x2018;" horiz-adv-x="269" 
d="M114 592h-29q5 71 66 71v25q-36 0 -67 -20q-39 -26 -39 -98v-59q0 -45 56.5 -45t56.5 45v44q0 25 -9 31t-35 6zM19 497v72q0 92 47 119q41 24 110 24l50 -60v-73q-15 0 -24 -1q33 -35 33 -69v-72q0 -29 -26 -43.5t-60 -14.5t-82 45.5t-48 72.5z" />
    <glyph glyph-name="quoteright" unicode="&#x2019;" horiz-adv-x="262" 
d="M232 594v-72q0 -45 -16 -75.5t-42 -44.5q-47 -23 -99 -23l-50 60v73q24 0 33 2q-5 3 -12 8t-18.5 22.5t-11.5 37.5v72q0 29 26 43.5t57 14.5q48 0 90.5 -35.5t42.5 -82.5zM87 559h29q-5 -71 -66 -71v-25q36 0 68 21q38 25 38 97v59q0 45 -56.5 45t-56.5 -45v-44
q0 -25 9 -31t35 -6z" />
    <glyph glyph-name="quotedblleft" unicode="&#x201c;" horiz-adv-x="537" 
d="M132 592h-29q5 71 66 71v25q-36 0 -67 -20q-39 -26 -39 -98v-59q0 -45 56.5 -45t56.5 45v44q0 25 -9 31t-35 6zM37 497v72q0 92 47 119q41 24 110 24l50 -60v-73q-15 0 -24 -1q33 -35 33 -69v-72q0 -29 -26 -43.5t-60 -14.5t-82 45.5t-48 72.5zM370 592h-29q5 71 66 71
v25q-36 0 -67 -20q-39 -26 -39 -98v-59q0 -45 56.5 -45t56.5 45v44q0 25 -9 31t-35 6zM275 497v72q0 92 47 119q41 24 110 24l50 -60v-73q-15 0 -24 -1q33 -35 33 -69v-72q0 -29 -26 -43.5t-60 -14.5t-82 45.5t-48 72.5z" />
    <glyph glyph-name="quotedblright" unicode="&#x201d;" horiz-adv-x="531" 
d="M253 594v-72q0 -45 -16 -75.5t-43 -44.5q-46 -23 -98 -23l-50 60v73q24 0 33 2q-5 3 -12 8t-18.5 22.5t-11.5 37.5v72q0 29 26 43.5t57 14.5q48 0 90.5 -35.5t42.5 -82.5zM108 559h29q-5 -71 -66 -71v-25q36 0 67 21q39 25 39 97v59q0 45 -56.5 45t-56.5 -45v-44
q0 -25 9 -31t35 -6zM491 594v-72q0 -45 -16 -75.5t-43 -44.5q-46 -23 -98 -23l-50 60v73q24 0 33 2q-5 3 -12 8t-18.5 22.5t-11.5 37.5v72q0 29 26 43.5t57 14.5q48 0 90.5 -35.5t42.5 -82.5zM346 559h29q-5 -71 -66 -71v-25q36 0 67 21q39 25 39 97v59q0 45 -56.5 45
t-56.5 -45v-44q0 -25 9 -31t35 -6z" />
    <glyph glyph-name="quotedblbase" unicode="&#x201e;" horiz-adv-x="524" 
d="M253 70v-72q0 -45 -16 -75.5t-43 -44.5q-46 -23 -98 -23l-50 60v73q24 0 33 2q-5 3 -12 8t-18.5 22.5t-11.5 37.5v72q0 29 26 43.5t57 14.5q48 0 90.5 -35.5t42.5 -82.5zM108 35h29q-5 -71 -66 -71v-25q36 0 67 21q39 25 39 97v59q0 45 -56.5 45t-56.5 -45v-44
q0 -25 9 -31t35 -6zM491 70v-72q0 -45 -16 -75.5t-43 -44.5q-46 -23 -98 -23l-50 60v73q24 0 33 2q-5 3 -12 8t-18.5 22.5t-11.5 37.5v72q0 29 26 43.5t57 14.5q48 0 90.5 -35.5t42.5 -82.5zM346 35h29q-5 -71 -66 -71v-25q36 0 67 21q39 25 39 97v59q0 45 -56.5 45
t-56.5 -45v-44q0 -25 9 -31t35 -6z" />
    <glyph glyph-name="bullet" unicode="&#x2022;" horiz-adv-x="454" 
d="M132.5 211.5q-60.5 66.5 -60.5 133t42 109t108.5 42.5t128.5 -64t62 -142q0 -61 -42.5 -103t-110 -42t-128 66.5zM148.5 417.5q28.5 27.5 68 27.5t67 -27.5t27.5 -67t-27.5 -66.5t-67 -27t-68 27t-28.5 66.5t28.5 67zM132.5 434.5q-34.5 -35.5 -34.5 -84.5t34.5 -84
t84 -35t85 35t35.5 84t-35.5 84.5t-85 35.5t-84 -35.5z" />
    <glyph glyph-name="ellipsis" unicode="&#x2026;" horiz-adv-x="858" 
d="M234 70v-72q0 -29 -26 -43.5t-57 -14.5q-45 0 -84 41.5t-39 76.5v72q0 29 26 43.5t57 14.5q48 0 85.5 -35.5t37.5 -82.5zM111 27q56 0 56 45v44q0 45 -56 45t-56 -45v-44q0 -45 56 -45zM506 70v-72q0 -29 -26 -43.5t-57 -14.5q-45 0 -84 41.5t-39 76.5v72q0 29 26 43.5
t57 14.5q48 0 85.5 -35.5t37.5 -82.5zM383 27q56 0 56 45v44q0 45 -56 45t-56 -45v-44q0 -45 56 -45zM778 70v-72q0 -29 -26 -43.5t-57 -14.5q-45 0 -84 41.5t-39 76.5v72q0 29 26 43.5t57 14.5q48 0 85.5 -35.5t37.5 -82.5zM655 27q56 0 56 45v44q0 45 -56 45t-56 -45v-44
q0 -45 56 -45z" />
    <glyph glyph-name="guilsinglleft" unicode="&#x2039;" horiz-adv-x="435" 
d="M100 225l-50 60v54q42 17 84 65q65 75 93 144l97 -51l50 -60q-12 -37 -45 -95.5t-72 -85.5q2 -2 22.5 -26.5t31.5 -39.5q33 -45 63 -123l-97 -51l-50 60q-60 127 -127 149zM162 312q86 65 127 172l-49 26q-9 -34 -57 -95.5t-103 -92.5v-20q55 -31 103 -92.5t57 -95.5
l49 26q-41 107 -127 172z" />
    <glyph glyph-name="guilsinglright" unicode="&#x203a;" horiz-adv-x="398" 
d="M305 339l50 -60v-54q-42 -17 -84 -65q-65 -75 -93 -144l-97 51l-50 60q12 37 45.5 96t71.5 85q-31 23 -70.5 90.5t-46.5 98.5l97 51l50 -60q8 -21 20.5 -45t42.5 -57t64 -47zM193 312q-86 -65 -127 -172l49 -26q9 34 57 95.5t103 92.5v20q-55 31 -103 92.5t-57 95.5
l-49 -26q41 -107 127 -172z" />
    <glyph glyph-name="fraction" unicode="&#x2044;" horiz-adv-x="399" 
d="M253 -60h-163l-50 60l105 699h163l50 -60zM78 27h96l97 645h-97z" />
    <glyph glyph-name="foursuperior" unicode="&#x2074;" horiz-adv-x="635" 
d="M592 499h-56v-187l50 -60v-72q-38 0 -49.5 -14.5t-11.5 -46.5v-15q6 2 11 9l76 -79q-6 -47 -33 -70.5t-65 -23.5t-81 25q-40 -25 -83 -25t-90.5 51t-53.5 103l26 19q6 -10 25 -10t31 20h-220l-50 60v114l174 403h340l60 -60v-141zM456 588h58v84h-306l-162 -375v-86h254
v41q54 11 67 51h29q14 -19 25 -25q14 18 35 26v284zM331 602v-305h-184v40l117 265h67zM387 61q37 -34 80 -34t63 52q-5 -4 -16 -4q-30 0 -46 16.5t-19.5 36t-3.5 50.5q0 85 65 85v24q-42 0 -60 -20q-10 -10 -20 -26q-25 4 -47 34q-9 -20 -19 -28t-33 -17v-52
q0 -103 -77 -103l-15 4q20 -52 67 -52q37 0 74 34h7zM303 325v128l-56 -128h56z" />
    <glyph glyph-name="twoinferior" unicode="&#x2082;" horiz-adv-x="687" 
d="M610 472q0 -36 -22.5 -70t-79.5 -89.5t-70 -70.5v-62q-17 -1 -27 -2.5t-20.5 -11t-10.5 -26.5v-6q16 -5 41 -5t48 16.5t23 46.5q0 14 -4 29v31h115l50 -60v-181q0 -33 18 -45l-18 -26q-27 0 -54.5 12.5t-42.5 27.5q-55 -40 -128.5 -40t-123.5 36q-44 -36 -107.5 -36
t-118.5 51.5t-55 102.5l32 19q2 -10 21 -10t35.5 24t17.5 53l-50 60l11 72q53 0 72 -6q24 31 74 75.5t80 79.5t30 67q-4 1 -10 1q-38 0 -63 -28.5t-31 -56.5l-7 -28h-118l-50 60v224h124l22 -27q53 39 125 39t132 -28.5t100 -84.5t40 -127zM198 278q14 7 30 25h25
q11 -20 24 -25q25 32 81 34q19 21 71.5 69.5t77 82.5t24.5 71q0 67 -55.5 108t-131.5 41q-103 0 -174 -83h-4v71h-76v-168h74q27 112 122 112q49 0 69 -29.5t20 -59.5t-21 -62t-48 -56q-88 -78 -119 -117zM516 224l5 -37q0 -40 -31 -63t-76 -23t-77.5 25t-32.5 79
q0 28 17.5 43t39.5 15v24q-16 0 -26 -2t-24 -12.5t-25 -31.5q-41 17 -50 34q-24 -26 -53 -34q-8 21 -21 32t-22.5 12.5t-27.5 1.5l-5 -24q56 -9 56 -71q0 -43 -27 -80t-66 -37l-15 4q4 -21 32.5 -36.5t57.5 -15.5q59 0 107 48l8 -7q47 -41 115 -41t131 48q8 -9 34.5 -25.5
t42.5 -18.5q-8 8 -8 51v142h-59z" />
    <glyph glyph-name="fourinferior" unicode="&#x2084;" horiz-adv-x="635" 
d="M592 499h-56v-187l50 -60v-72q-38 0 -49.5 -14.5t-11.5 -46.5v-15q6 2 11 9l76 -79q-6 -47 -33 -70.5t-65 -23.5t-81 25q-40 -25 -83 -25t-90.5 51t-53.5 103l26 19q6 -10 25 -10t31 20h-220l-50 60v114l174 403h340l60 -60v-141zM456 588h58v84h-306l-162 -375v-86h254
v41q54 11 67 51h29q14 -19 25 -25q14 18 35 26v284zM331 602v-305h-184v40l117 265h67zM387 61q37 -34 80 -34t63 52q-5 -4 -16 -4q-30 0 -46 16.5t-19.5 36t-3.5 50.5q0 85 65 85v24q-42 0 -60 -20q-10 -10 -20 -26q-25 4 -47 34q-9 -20 -19 -28t-33 -17v-52
q0 -103 -77 -103l-15 4q20 -52 67 -52q37 0 74 34h7zM303 325v128l-56 -128h56z" />
    <glyph glyph-name="minus" unicode="&#x2212;" horiz-adv-x="555" 
d="M490 240h-363l-50 60v144h363l50 -60v-144zM107 327h303v90h-303v-90z" />
    <glyph glyph-name="divisionslash" unicode="&#x2215;" horiz-adv-x="476" 
d="M214 -60h-153l-50 60l255 699h153l50 -60zM48 27h99l236 645h-100z" />
    <glyph glyph-name="CR" horiz-adv-x="0" 
 />
  </font>
</defs>
</svg>
